<?xml version="1.0" encoding="UTF-8"?>
<svg id="b" data-name="레이어 2" xmlns="http://www.w3.org/2000/svg" viewBox="0 0 147.31 170.17">
  <defs>
    <style>
      .d {
        fill: #f3a89f;
        stroke-width: 0px;
      }

      .e {
        stroke-miterlimit: 10;
        stroke-width: 5px;
      }

      .e, .f {
        fill: none;
      }

      .e, .f, .g, .h {
        stroke: #231815;
        stroke-linecap: round;
      }

      .f, .g, .h {
        stroke-linejoin: round;
      }

      .f, .h {
        stroke-width: 5.52px;
      }

      .g {
        fill: #fff;
        stroke-width: 2.76px;
      }

      .h {
        fill: #f49e15;
      }
    </style>
  </defs>
  <g id="c" data-name="레이어 1">
    <g>
      <path class="h" d="M25.3,141.74c-8.63,20.75,13.73,36.62,29.97,16.12-8.62-1.88-21.07-7.61-29.97-16.12"/>
      <path class="f" d="M41.73,24.73c-5-9.3-18.97-10.45-18.97-10.45"/>
      <line class="f" x1="41.73" y1="2.76" x2="43.75" y2="23.78"/>
      <path class="g" d="M143.34,100.39C125.6,191.87-10.87,167.79,3.75,75.78,21.49-15.69,157.97,8.39,143.34,100.39Z"/>
      <g>
        <path class="d" d="M50.95,126.19c-.38,22.4-33.71,22.4-34.09,0,.38-22.4,33.71-22.4,34.09,0Z"/>
        <path class="d" d="M130.23,126.19c-.38,22.4-33.71,22.4-34.09,0,.38-22.4,33.71-22.4,34.09,0Z"/>
      </g>
      <path class="f" d="M143.45,100.39C125.71,191.87-10.77,167.79,3.86,75.78,21.6-15.69,158.07,8.39,143.45,100.39Z"/>
      <g>
        <path class="e" d="M39.4,111.83c5.08-7.97,13.39-3.77,13.39-3.77"/>
        <path class="e" d="M107.47,111.52c-5.67-7.57-13.64-2.75-13.64-2.75"/>
      </g>
    </g>
  </g>
</svg>