<svg width="210" height="69" viewBox="0 0 210 69" fill="none" xmlns="http://www.w3.org/2000/svg">
<path d="M28.7595 61.1177C43.6258 61.1177 55.6773 49.0662 55.6773 34.2C55.6773 19.3337 43.6258 7.28223 28.7595 7.28223C13.8933 7.28223 1.8418 19.3337 1.8418 34.2C1.8418 49.0662 13.8933 61.1177 28.7595 61.1177Z" fill="white"/>
<path fill-rule="evenodd" clip-rule="evenodd" d="M28.7596 7.80658C14.183 7.80658 2.3664 19.6232 2.3664 34.1998C2.3664 48.7764 14.183 60.593 28.7596 60.593C43.3362 60.593 55.1529 48.7764 55.1529 34.1998C55.1529 19.6232 43.3362 7.80658 28.7596 7.80658ZM1.31738 34.1998C1.31738 19.0439 13.6037 6.75757 28.7596 6.75757C43.9156 6.75757 56.2019 19.0439 56.2019 34.1998C56.2019 49.3557 43.9156 61.6421 28.7596 61.6421C13.6037 61.6421 1.31738 49.3557 1.31738 34.1998Z" fill="black"/>
<path d="M19.8855 59.7434C19.7072 62.8904 21.8262 65.9326 24.0396 66.9396C27.1657 68.3558 31.2359 66.1424 32.7464 61.0442C29.4525 61.6316 24.2494 61.4323 19.896 59.7329" fill="#F49E15"/>
<path fill-rule="evenodd" clip-rule="evenodd" d="M19.1341 59.0096C19.419 58.7104 19.867 58.5961 20.2757 58.7557C24.4303 60.3775 29.4356 60.5687 32.5605 60.0114C32.9186 59.9476 33.2842 60.0738 33.5267 60.3449C33.7691 60.616 33.8538 60.9934 33.7505 61.3422C32.1465 66.7556 27.5595 69.6866 23.605 67.8952L23.6034 67.8945C22.2686 67.2871 21.0391 66.1115 20.1694 64.692C19.2948 63.2645 18.7331 61.5079 18.8364 59.684C18.8514 59.4202 18.9626 59.1847 19.1341 59.0096ZM21.0308 61.237C21.1898 62.0689 21.5162 62.8743 21.9584 63.596C22.6568 64.7358 23.5931 65.5846 24.4715 65.9844C26.4977 66.9017 29.4999 65.8468 31.1528 62.3049C28.2174 62.5528 24.4779 62.2945 21.0308 61.237Z" fill="black"/>
<path d="M14.1677 55.6204C17.7424 55.6204 20.6402 52.7226 20.6402 49.148C20.6402 45.5733 17.7424 42.6755 14.1677 42.6755C10.5931 42.6755 7.69531 45.5733 7.69531 49.148C7.69531 52.7226 10.5931 55.6204 14.1677 55.6204Z" fill="#F3A89F"/>
<path fill-rule="evenodd" clip-rule="evenodd" d="M8.78961 5.91772C8.8364 5.34026 9.34246 4.91006 9.91992 4.95685L9.8352 6.00244C9.91992 4.95685 9.91956 4.95682 9.91992 4.95685L9.92349 4.95715L9.92901 4.95761L9.9458 4.95911C9.95952 4.96036 9.97826 4.96214 10.0017 4.96453C10.0487 4.96932 10.1147 4.97657 10.1975 4.98696C10.3631 5.00772 10.5968 5.04112 10.8813 5.09268C11.4483 5.19542 12.2271 5.37214 13.0742 5.66964C14.7345 6.25278 16.8337 7.36294 17.9661 9.47136C18.2402 9.98176 18.0487 10.6177 17.5383 10.8919C17.0279 11.166 16.3919 10.9745 16.1178 10.4641C15.3515 9.03731 13.8473 8.16484 12.3789 7.64913C11.6616 7.39721 10.9948 7.24545 10.5072 7.15708C10.2644 7.11308 10.0686 7.08526 9.93647 7.06869C9.87047 7.06041 9.82056 7.05497 9.78882 7.05173L9.75517 7.04846L9.75048 7.04803C9.17331 7.00094 8.74284 6.49499 8.78961 5.91772Z" fill="black"/>
<path fill-rule="evenodd" clip-rule="evenodd" d="M16.9411 0.583724C17.5178 0.528403 18.0302 0.95107 18.0855 1.52778L18.8513 9.51079C18.9066 10.0875 18.4839 10.5999 17.9072 10.6552C17.3305 10.7105 16.8182 10.2878 16.7628 9.71112L15.9971 1.72811C15.9417 1.15141 16.3644 0.639046 16.9411 0.583724Z" fill="black"/>
<path d="M19.0141 44.8576C20.1033 44.8576 20.9863 43.9747 20.9863 42.8855C20.9863 41.7963 20.1033 40.9133 19.0141 40.9133C17.925 40.9133 17.042 41.7963 17.042 42.8855C17.042 43.9747 17.925 44.8576 19.0141 44.8576Z" fill="black"/>
<path d="M44.2742 53.8582C47.8488 53.8582 50.7466 50.9604 50.7466 47.3858C50.7466 43.8111 47.8488 40.9133 44.2742 40.9133C40.6996 40.9133 37.8018 43.8111 37.8018 47.3858C37.8018 50.9604 40.6996 53.8582 44.2742 53.8582Z" fill="#F3A89F"/>
<path d="M38.0758 44.648C39.0491 44.648 39.8382 43.859 39.8382 42.8856C39.8382 41.9123 39.0491 41.1233 38.0758 41.1233C37.1025 41.1233 36.3135 41.9123 36.3135 42.8856C36.3135 43.859 37.1025 44.648 38.0758 44.648Z" fill="black"/>
<path fill-rule="evenodd" clip-rule="evenodd" d="M28.7597 8.33094C14.4728 8.33094 2.891 19.9128 2.891 34.1997C2.891 48.4866 14.4728 60.0684 28.7597 60.0684C43.0466 60.0684 54.6284 48.4866 54.6284 34.1997C54.6284 19.9128 43.0466 8.33094 28.7597 8.33094ZM0.792969 34.1997C0.792969 18.7541 13.3141 6.23291 28.7597 6.23291C44.2053 6.23291 56.7265 18.7541 56.7265 34.1997C56.7265 49.6453 44.2053 62.1664 28.7597 62.1664C13.3141 62.1664 0.792969 49.6453 0.792969 34.1997Z" fill="black"/>
<mask id="path-12-outside-1_1063_3820" maskUnits="userSpaceOnUse" x="71.7266" y="10" width="138" height="49" fill="black">
<rect fill="white" x="71.7266" y="10" width="138" height="49"/>
<path d="M87.5586 44.04C87.4146 43.752 87.3666 43.416 87.3666 43.032C87.3666 42.648 87.4146 42.312 87.5586 42.024C81.3186 41.496 77.7666 39.768 76.6626 37.128C75.4626 34.488 75.6066 31.512 76.6626 29.208C77.8146 26.52 79.5906 24.504 85.9266 24.504C90.5346 24.504 94.8546 24.408 99.4626 23.928C100.471 23.88 100.327 22.68 99.3666 22.728C95.0946 23.112 90.8706 23.304 86.8386 23.304C79.0626 23.304 76.9506 22.008 76.9506 19.416C76.9506 16.92 80.3106 15.144 87.3186 14.568C92.4546 14.184 97.3506 14.04 102.055 14.376C107.815 14.808 112.711 15.768 113.959 18.792C115.015 21.384 115.015 24.216 113.959 26.472C113.239 27.96 110.743 28.392 107.863 28.392C99.6066 28.296 93.4626 28.872 88.7106 29.928C87.5586 30.168 87.7506 31.416 88.9026 31.176C93.0306 30.408 98.5986 29.592 103.639 29.592C111.463 29.592 115.639 30.888 115.831 35.016C116.071 39.336 111.367 41.016 105.463 41.832C104.791 41.928 104.119 42.024 103.447 42.072C103.543 42.36 103.639 42.648 103.639 43.032C103.639 43.416 103.543 43.752 103.447 44.04C105.991 43.896 108.583 43.704 111.175 43.464C114.871 43.08 116.983 45.816 116.983 49.176C116.983 53.304 114.871 55.416 111.127 55.8C100.423 56.856 90.4866 56.856 79.7826 55.8C76.1346 55.416 73.9746 53.304 73.9746 49.176C73.9746 45.816 76.1346 43.08 79.7826 43.464C82.4226 43.704 85.0146 43.896 87.5586 44.04ZM128.8 30.648C124.24 30.552 121.072 28.584 120.88 23.832C120.592 19.032 124.384 15.96 129.568 14.664C136.432 12.936 144.928 12.888 151.6 14.568C156.16 15.768 159.376 18.408 160.24 21.576C161.44 25.848 161.392 31.8 159.472 36.072C157.84 39.768 154.24 41.88 149.296 42.072C143.968 42.264 140.416 39.384 139.84 35.16C139.216 30.408 140.416 26.616 142.528 23.304C142.912 22.68 142 22.2 141.616 22.776C137.92 27.96 133.792 30.792 128.8 30.648ZM125.392 55.704C121.744 55.32 119.584 53.112 119.584 48.6C119.584 45.048 121.744 42.12 125.392 42.552C136.096 43.656 146.032 43.656 156.784 42.552C160.48 42.12 162.592 45.048 162.592 48.6C162.592 53.112 160.48 55.32 156.736 55.704C146.032 56.808 136.096 56.808 125.392 55.704ZM193.897 37.512C194.665 32.232 194.665 23.496 193.945 18.552C193.465 14.616 195.961 12.888 199.849 12.888C203.209 12.888 205.561 14.376 205.993 17.592C206.857 23.016 206.857 32.76 205.993 38.136C205.561 41.304 203.209 42.84 199.849 42.84C195.961 42.84 193.465 41.112 193.897 37.512ZM165.769 26.616C165.769 19.176 168.745 13.032 179.209 13.032C189.673 13.032 192.697 19.176 192.697 26.616C192.697 33.96 189.145 39.912 179.209 39.912C169.225 39.912 165.769 33.96 165.769 26.616ZM175.609 25.272C177.001 27.144 179.401 28.536 181.849 29.112C183.049 29.4 183.385 27.72 182.665 27.528C180.361 26.856 178.393 25.608 176.617 23.832C176.041 23.304 174.889 24.408 175.609 25.272ZM167.161 48.6C167.161 43.8 169.561 41.16 173.113 40.632C176.905 39.96 180.985 41.304 182.233 44.424C183.049 46.392 182.953 49.896 181.129 51.24C180.457 51.672 180.985 52.68 181.657 52.104C186.745 48.408 192.697 44.04 199.897 44.04C203.449 44.04 206.521 45.432 207.001 48.984C207.385 52.872 205.369 55.368 199.753 56.04C193.753 56.808 184.825 56.904 175.753 56.376C170.137 55.992 167.161 52.536 167.161 48.6Z"/>
</mask>
<path d="M87.5586 44.04C87.4146 43.752 87.3666 43.416 87.3666 43.032C87.3666 42.648 87.4146 42.312 87.5586 42.024C81.3186 41.496 77.7666 39.768 76.6626 37.128C75.4626 34.488 75.6066 31.512 76.6626 29.208C77.8146 26.52 79.5906 24.504 85.9266 24.504C90.5346 24.504 94.8546 24.408 99.4626 23.928C100.471 23.88 100.327 22.68 99.3666 22.728C95.0946 23.112 90.8706 23.304 86.8386 23.304C79.0626 23.304 76.9506 22.008 76.9506 19.416C76.9506 16.92 80.3106 15.144 87.3186 14.568C92.4546 14.184 97.3506 14.04 102.055 14.376C107.815 14.808 112.711 15.768 113.959 18.792C115.015 21.384 115.015 24.216 113.959 26.472C113.239 27.96 110.743 28.392 107.863 28.392C99.6066 28.296 93.4626 28.872 88.7106 29.928C87.5586 30.168 87.7506 31.416 88.9026 31.176C93.0306 30.408 98.5986 29.592 103.639 29.592C111.463 29.592 115.639 30.888 115.831 35.016C116.071 39.336 111.367 41.016 105.463 41.832C104.791 41.928 104.119 42.024 103.447 42.072C103.543 42.36 103.639 42.648 103.639 43.032C103.639 43.416 103.543 43.752 103.447 44.04C105.991 43.896 108.583 43.704 111.175 43.464C114.871 43.08 116.983 45.816 116.983 49.176C116.983 53.304 114.871 55.416 111.127 55.8C100.423 56.856 90.4866 56.856 79.7826 55.8C76.1346 55.416 73.9746 53.304 73.9746 49.176C73.9746 45.816 76.1346 43.08 79.7826 43.464C82.4226 43.704 85.0146 43.896 87.5586 44.04ZM128.8 30.648C124.24 30.552 121.072 28.584 120.88 23.832C120.592 19.032 124.384 15.96 129.568 14.664C136.432 12.936 144.928 12.888 151.6 14.568C156.16 15.768 159.376 18.408 160.24 21.576C161.44 25.848 161.392 31.8 159.472 36.072C157.84 39.768 154.24 41.88 149.296 42.072C143.968 42.264 140.416 39.384 139.84 35.16C139.216 30.408 140.416 26.616 142.528 23.304C142.912 22.68 142 22.2 141.616 22.776C137.92 27.96 133.792 30.792 128.8 30.648ZM125.392 55.704C121.744 55.32 119.584 53.112 119.584 48.6C119.584 45.048 121.744 42.12 125.392 42.552C136.096 43.656 146.032 43.656 156.784 42.552C160.48 42.12 162.592 45.048 162.592 48.6C162.592 53.112 160.48 55.32 156.736 55.704C146.032 56.808 136.096 56.808 125.392 55.704ZM193.897 37.512C194.665 32.232 194.665 23.496 193.945 18.552C193.465 14.616 195.961 12.888 199.849 12.888C203.209 12.888 205.561 14.376 205.993 17.592C206.857 23.016 206.857 32.76 205.993 38.136C205.561 41.304 203.209 42.84 199.849 42.84C195.961 42.84 193.465 41.112 193.897 37.512ZM165.769 26.616C165.769 19.176 168.745 13.032 179.209 13.032C189.673 13.032 192.697 19.176 192.697 26.616C192.697 33.96 189.145 39.912 179.209 39.912C169.225 39.912 165.769 33.96 165.769 26.616ZM175.609 25.272C177.001 27.144 179.401 28.536 181.849 29.112C183.049 29.4 183.385 27.72 182.665 27.528C180.361 26.856 178.393 25.608 176.617 23.832C176.041 23.304 174.889 24.408 175.609 25.272ZM167.161 48.6C167.161 43.8 169.561 41.16 173.113 40.632C176.905 39.96 180.985 41.304 182.233 44.424C183.049 46.392 182.953 49.896 181.129 51.24C180.457 51.672 180.985 52.68 181.657 52.104C186.745 48.408 192.697 44.04 199.897 44.04C203.449 44.04 206.521 45.432 207.001 48.984C207.385 52.872 205.369 55.368 199.753 56.04C193.753 56.808 184.825 56.904 175.753 56.376C170.137 55.992 167.161 52.536 167.161 48.6Z" fill="white"/>
<path d="M87.5586 44.04L87.4455 46.0368L90.8905 46.2318L89.3474 43.1456L87.5586 44.04ZM87.5586 42.024L89.3474 42.9184L90.6667 40.2799L87.7272 40.0311L87.5586 42.024ZM76.6626 37.128L78.5077 36.3564L78.4959 36.3282L78.4833 36.3004L76.6626 37.128ZM76.6626 29.208L78.4807 30.0413L78.4911 30.0187L78.5009 29.9958L76.6626 29.208ZM99.4626 23.928L99.3674 21.9303L99.3113 21.9329L99.2554 21.9388L99.4626 23.928ZM99.3666 22.728L99.2667 20.7305L99.227 20.7325L99.1875 20.736L99.3666 22.728ZM87.3186 14.568L87.1694 12.5736L87.1621 12.5741L87.1547 12.5747L87.3186 14.568ZM102.055 14.376L102.204 12.3816L102.197 12.3811L102.055 14.376ZM113.959 18.792L115.811 18.0374L115.807 18.029L113.959 18.792ZM113.959 26.472L115.759 27.3431L115.764 27.3315L115.77 27.3199L113.959 26.472ZM107.863 28.392L107.839 30.3919L107.851 30.392H107.863V28.392ZM88.7106 29.928L89.1185 31.886L89.1315 31.8833L89.1444 31.8804L88.7106 29.928ZM88.9026 31.176L88.5367 29.2097L88.5157 29.2137L88.4947 29.218L88.9026 31.176ZM115.831 35.016L113.833 35.1089L113.833 35.1179L113.834 35.1269L115.831 35.016ZM105.463 41.832L105.189 39.8508L105.18 39.8521L105.463 41.832ZM103.447 42.072L103.304 40.0771L100.735 40.2606L101.549 42.7044L103.447 42.072ZM103.447 44.04L101.549 43.4076L100.617 46.2034L103.56 46.0368L103.447 44.04ZM111.175 43.464L111.359 45.4555L111.37 45.4544L111.381 45.4533L111.175 43.464ZM111.127 55.8L111.323 57.7904L111.331 57.7896L111.127 55.8ZM79.7826 55.8L79.5732 57.7891L79.5862 57.7903L79.7826 55.8ZM79.7826 43.464L79.5732 45.453L79.5873 45.4545L79.6015 45.4558L79.7826 43.464ZM89.3474 43.1456C89.376 43.2027 89.3801 43.2356 89.3774 43.2204C89.374 43.2013 89.3666 43.145 89.3666 43.032H85.3666C85.3666 43.5579 85.4272 44.2495 85.7697 44.9344L89.3474 43.1456ZM89.3666 43.032C89.3666 42.919 89.374 42.8627 89.3774 42.8436C89.3801 42.8284 89.376 42.8613 89.3474 42.9184L85.7697 41.1296C85.4272 41.8145 85.3666 42.5061 85.3666 43.032H89.3666ZM87.7272 40.0311C84.7339 39.7778 82.537 39.2464 81.0181 38.55C79.5123 37.8596 78.8084 37.0754 78.5077 36.3564L74.8174 37.8996C75.6207 39.8206 77.2449 41.2204 79.351 42.186C81.4441 43.1456 84.1433 43.7422 87.3899 44.0169L87.7272 40.0311ZM78.4833 36.3004C77.5372 34.2189 77.6519 31.8497 78.4807 30.0413L74.8444 28.3747C73.5613 31.1743 73.388 34.7571 74.8418 37.9556L78.4833 36.3004ZM78.5009 29.9958C78.9964 28.8395 79.5119 28.0912 80.3905 27.5564C81.3271 26.9863 82.9354 26.504 85.9266 26.504V22.504C82.5817 22.504 80.134 23.0297 78.3107 24.1396C76.4293 25.2848 75.4807 26.8885 74.8243 28.4202L78.5009 29.9958ZM85.9266 26.504C90.5604 26.504 94.9602 26.4078 99.6698 25.9172L99.2554 21.9388C94.7489 22.4082 90.5087 22.504 85.9266 22.504V26.504ZM99.5577 25.9257C100.21 25.8947 100.915 25.6587 101.454 25.0953C101.991 24.5332 102.213 23.7941 102.143 23.093C101.994 21.6084 100.682 20.6597 99.2667 20.7305L99.4664 24.7255C99.0108 24.7483 98.2509 24.3756 98.1625 23.491C98.1224 23.0899 98.2513 22.6568 98.5619 22.3317C98.8739 22.0053 99.219 21.9373 99.3674 21.9303L99.5577 25.9257ZM99.1875 20.736C94.9724 21.1149 90.8082 21.304 86.8386 21.304V25.304C90.933 25.304 95.2167 25.1091 99.5456 24.72L99.1875 20.736ZM86.8386 21.304C82.967 21.304 80.8615 20.9668 79.7717 20.496C79.278 20.2827 79.1244 20.0962 79.0733 20.0183C79.024 19.9433 78.9506 19.789 78.9506 19.416H74.9506C74.9506 20.339 75.1412 21.3187 75.7309 22.2157C76.3187 23.1098 77.1792 23.7333 78.1854 24.168C80.0956 24.9932 82.9341 25.304 86.8386 25.304V21.304ZM78.9506 19.416C78.9506 19.2713 78.9861 18.7438 80.3757 18.0733C81.7666 17.4021 84.0736 16.8414 87.4824 16.5613L87.1547 12.5747C83.5555 12.8705 80.6785 13.4859 78.6374 14.4707C76.595 15.4562 74.9506 17.0647 74.9506 19.416H78.9506ZM87.4677 16.5624C92.5522 16.1823 97.342 16.0445 101.912 16.3709L102.197 12.3811C97.3591 12.0355 92.357 12.1857 87.1694 12.5736L87.4677 16.5624ZM101.905 16.3704C104.753 16.584 107.223 16.9197 109.089 17.5168C111.007 18.1307 111.828 18.8712 112.11 19.555L115.807 18.029C114.841 15.6888 112.59 14.4373 110.308 13.7072C107.974 12.9603 105.116 12.6 102.204 12.3816L101.905 16.3704ZM112.106 19.5466C112.981 21.6927 112.936 23.9384 112.147 25.6241L115.77 27.3199C117.093 24.4936 117.048 21.0753 115.811 18.0374L112.106 19.5466ZM112.158 25.6009C112.175 25.5658 112.066 25.8218 111.193 26.061C110.371 26.2858 109.234 26.392 107.863 26.392V30.392C109.372 30.392 110.922 30.2822 112.249 29.919C113.523 29.5702 115.022 28.8662 115.759 27.3431L112.158 25.6009ZM107.886 26.3921C99.5352 26.295 93.2271 26.8755 88.2767 27.9756L89.1444 31.8804C93.698 30.8685 99.678 30.297 107.839 30.3919L107.886 26.3921ZM88.3027 27.97C87.0725 28.2263 85.7021 29.3221 85.9658 31.0361C86.0892 31.8384 86.586 32.5062 87.2783 32.878C87.9523 33.2399 88.6837 33.2645 89.3105 33.134L88.4947 29.218C88.5454 29.2075 88.8209 29.1661 89.1708 29.354C89.5391 29.5518 89.8439 29.9376 89.9193 30.4279C90.087 31.5179 89.1966 31.8697 89.1185 31.886L88.3027 27.97ZM89.2684 33.1423C93.3528 32.3824 98.7805 31.592 103.639 31.592V27.592C98.4166 27.592 92.7084 28.4336 88.5367 29.2097L89.2684 33.1423ZM103.639 31.592C107.518 31.592 110.178 31.9251 111.837 32.6061C112.631 32.9322 113.09 33.2968 113.36 33.6475C113.617 33.9807 113.801 34.4268 113.833 35.1089L117.828 34.9231C117.764 33.5412 117.354 32.2773 116.529 31.2065C115.718 30.1532 114.608 29.4198 113.356 28.9059C110.923 27.9069 107.584 27.592 103.639 27.592V31.592ZM113.834 35.1269C113.872 35.8114 113.718 36.3049 113.459 36.708C113.184 37.1368 112.715 37.5747 111.968 37.9957C110.428 38.8639 108.091 39.4498 105.189 39.8508L105.736 43.8132C108.739 43.3982 111.705 42.7361 113.933 41.4803C115.07 40.8393 116.101 39.9962 116.825 38.8695C117.565 37.7171 117.909 36.3806 117.827 34.9051L113.834 35.1269ZM105.18 39.8521C104.496 39.9498 103.894 40.035 103.304 40.0771L103.589 44.0669C104.343 44.013 105.085 43.9062 105.745 43.8119L105.18 39.8521ZM101.549 42.7044C101.601 42.8599 101.618 42.9165 101.63 42.9657C101.637 42.9981 101.639 43.0141 101.639 43.032H105.639C105.639 42.2912 105.44 41.7283 105.344 41.4396L101.549 42.7044ZM101.639 43.032C101.639 43.0864 101.627 43.1749 101.549 43.4076L105.344 44.6724C105.458 44.3291 105.639 43.7456 105.639 43.032H101.639ZM103.56 46.0368C106.127 45.8915 108.743 45.6977 111.359 45.4555L110.99 41.4725C108.422 41.7103 105.854 41.9005 103.334 42.0432L103.56 46.0368ZM111.381 45.4533C112.655 45.321 113.475 45.7175 114.005 46.2839C114.58 46.8962 114.983 47.8944 114.983 49.176H118.983C118.983 47.0976 118.33 45.0478 116.924 43.5481C115.475 42.0025 113.391 41.223 110.968 41.4747L111.381 45.4533ZM114.983 49.176C114.983 50.9056 114.545 51.9263 113.981 52.5442C113.414 53.1657 112.473 53.6515 110.923 53.8104L111.331 57.7896C113.525 57.5645 115.511 56.8023 116.936 55.2398C118.365 53.6737 118.983 51.5744 118.983 49.176H114.983ZM110.93 53.8097C100.357 54.8528 90.5523 54.8528 79.9789 53.8097L79.5862 57.7903C90.4208 58.8592 100.488 58.8592 111.323 57.7903L110.93 53.8097ZM79.9919 53.811C78.4986 53.6538 77.5617 53.173 76.9882 52.5442C76.4188 51.92 75.9746 50.8944 75.9746 49.176H71.9746C71.9746 51.5856 72.6103 53.68 74.0329 55.2398C75.4514 56.795 77.4186 57.5622 79.5732 57.789L79.9919 53.811ZM75.9746 49.176C75.9746 47.9061 76.3827 46.9062 76.9655 46.2883C77.5081 45.713 78.3323 45.3224 79.5732 45.453L79.9919 41.475C77.5848 41.2216 75.505 42.007 74.0556 43.5437C72.6464 45.0378 71.9746 47.0859 71.9746 49.176H75.9746ZM79.6015 45.4558C82.2632 45.6978 84.8779 45.8915 87.4455 46.0368L87.6716 42.0432C85.1512 41.9005 82.5819 41.7102 79.9636 41.4722L79.6015 45.4558ZM128.8 30.648L128.858 28.6488L128.85 28.6486L128.842 28.6484L128.8 30.648ZM120.88 23.832L122.878 23.7513L122.878 23.7317L122.876 23.7122L120.88 23.832ZM129.568 14.664L130.053 16.6043L130.056 16.6035L129.568 14.664ZM151.6 14.568L152.109 12.6338L152.099 12.6311L152.088 12.6285L151.6 14.568ZM160.24 21.576L158.31 22.1022L158.312 22.1096L158.314 22.1169L160.24 21.576ZM159.472 36.072L157.648 35.2521L157.642 35.2641L159.472 36.072ZM149.296 42.072L149.368 44.0707L149.374 44.0705L149.296 42.072ZM139.84 35.16L137.857 35.4204L137.858 35.4302L139.84 35.16ZM142.528 23.304L144.214 24.3793L144.223 24.3658L144.231 24.3522L142.528 23.304ZM141.616 22.776L143.244 23.937L143.263 23.9115L143.28 23.8854L141.616 22.776ZM125.392 55.704L125.183 57.693L125.187 57.6934L125.392 55.704ZM125.392 42.552L125.157 44.5381L125.172 44.5399L125.187 44.5414L125.392 42.552ZM156.784 42.552L156.988 44.5415L157.002 44.5401L157.016 44.5385L156.784 42.552ZM156.736 55.704L156.532 53.7144L156.531 53.7146L156.736 55.704ZM128.842 28.6484C126.802 28.6055 125.36 28.1443 124.444 27.4183C123.597 26.7472 122.955 25.6587 122.878 23.7513L118.882 23.9127C118.996 26.7573 120.035 29.0288 121.96 30.5537C123.816 32.0237 126.238 32.5945 128.758 32.6476L128.842 28.6484ZM122.876 23.7122C122.77 21.934 123.393 20.5184 124.572 19.3619C125.8 18.1574 127.683 17.1969 130.053 16.6043L129.083 12.7237C126.269 13.4271 123.663 14.6506 121.772 16.5061C119.831 18.4096 118.702 20.93 118.884 23.9518L122.876 23.7122ZM130.056 16.6035C136.612 14.953 144.773 14.9113 151.112 16.5075L152.088 12.6285C145.083 10.8647 136.251 10.919 129.08 12.7245L130.056 16.6035ZM151.091 16.5021C155.276 17.6034 157.707 19.8892 158.31 22.1022L162.169 21.0498C161.045 16.9268 157.044 13.9326 152.109 12.6338L151.091 16.5021ZM158.314 22.1169C159.415 26.0358 159.337 31.4926 157.648 35.2521L161.296 36.8919C163.446 32.1074 163.465 25.6602 162.165 21.0351L158.314 22.1169ZM157.642 35.2641C156.397 38.0849 153.613 39.9029 149.218 40.0735L149.374 44.0705C154.867 43.8571 159.283 41.4511 161.302 36.8799L157.642 35.2641ZM149.224 40.0733C146.934 40.1558 145.186 39.5755 143.989 38.6741C142.805 37.7828 142.04 36.4927 141.822 34.8898L137.858 35.4302C138.216 38.0513 139.515 40.3132 141.583 41.8699C143.638 43.4165 146.33 44.1802 149.368 44.0707L149.224 40.0733ZM141.823 34.8996C141.269 30.6818 142.316 27.3566 144.214 24.3793L140.842 22.2287C138.516 25.8754 137.163 30.1342 137.857 35.4204L141.823 34.8996ZM144.231 24.3522C144.589 23.7709 144.739 23.0351 144.515 22.2972C144.305 21.6024 143.826 21.1153 143.327 20.8395C142.334 20.2908 140.809 20.3813 139.952 21.6666L143.28 23.8854C142.807 24.5947 141.929 24.6372 141.393 24.3405C141.122 24.1907 140.823 23.9046 140.687 23.4573C140.539 22.9669 140.659 22.5251 140.825 22.2558L144.231 24.3522ZM139.987 21.615C136.483 26.5309 132.904 28.7656 128.858 28.6488L128.742 32.6472C134.679 32.8184 139.357 29.3891 143.244 23.937L139.987 21.615ZM125.601 53.715C124.134 53.5606 123.215 53.0727 122.64 52.3997C122.05 51.7111 121.584 50.5528 121.584 48.6H117.584C117.584 51.1592 118.198 53.3609 119.6 55.0003C121.016 56.6553 123.002 57.4634 125.183 57.693L125.601 53.715ZM121.584 48.6C121.584 47.2032 122.011 46.091 122.616 45.4097C123.17 44.7852 123.972 44.3978 125.157 44.5381L125.627 40.5659C123.164 40.2742 121.062 41.1348 119.624 42.7543C118.237 44.317 117.584 46.4448 117.584 48.6H121.584ZM125.187 44.5414C136.027 45.6595 146.101 45.6595 156.988 44.5415L156.58 40.5625C145.963 41.6525 136.164 41.6525 125.597 40.5626L125.187 44.5414ZM157.016 44.5385C158.234 44.3962 159.032 44.7901 159.574 45.4052C160.171 46.0814 160.592 47.1921 160.592 48.6H164.592C164.592 46.4559 163.957 44.3266 162.574 42.7588C161.136 41.1299 159.03 40.2758 156.552 40.5655L157.016 44.5385ZM160.592 48.6C160.592 50.5635 160.132 51.717 159.548 52.3997C158.979 53.0647 158.056 53.5581 156.532 53.7144L156.94 57.6936C159.16 57.4659 161.165 56.6633 162.588 55.0003C163.995 53.355 164.592 51.1485 164.592 48.6H160.592ZM156.531 53.7146C145.963 54.8045 136.165 54.8045 125.597 53.7146L125.187 57.6934C136.027 58.8115 146.101 58.8115 156.941 57.6934L156.531 53.7146ZM193.897 37.512L191.918 37.2241L191.915 37.2489L191.912 37.2737L193.897 37.512ZM193.945 18.552L191.96 18.7941L191.963 18.8172L191.966 18.8402L193.945 18.552ZM205.993 17.592L204.011 17.8583L204.014 17.8825L204.018 17.9066L205.993 17.592ZM205.993 38.136L204.019 37.8186L204.015 37.8422L204.012 37.8658L205.993 38.136ZM175.609 25.272L177.214 24.0786L177.181 24.0342L177.146 23.9916L175.609 25.272ZM181.849 29.112L182.316 27.1672L182.307 27.1652L181.849 29.112ZM182.665 27.528L182.105 29.448L182.128 29.4545L182.15 29.4605L182.665 27.528ZM176.617 23.832L178.032 22.4178L178.001 22.3871L177.969 22.3577L176.617 23.832ZM173.113 40.632L173.407 42.6103L173.435 42.6062L173.462 42.6013L173.113 40.632ZM182.233 44.424L180.376 45.1668L180.381 45.1784L180.386 45.19L182.233 44.424ZM181.129 51.24L182.211 52.9224L182.264 52.8879L182.316 52.8501L181.129 51.24ZM181.657 52.104L180.482 50.4859L180.417 50.5331L180.356 50.5855L181.657 52.104ZM207.001 48.984L208.992 48.7874L208.988 48.7517L208.983 48.7162L207.001 48.984ZM199.753 56.04L199.516 54.0542L199.508 54.0551L199.499 54.0562L199.753 56.04ZM175.753 56.376L175.617 58.3713L175.627 58.372L175.637 58.3726L175.753 56.376ZM195.876 37.7999C196.672 32.3337 196.673 23.4036 195.924 18.2638L191.966 18.8402C192.658 23.5884 192.659 32.1303 191.918 37.2241L195.876 37.7999ZM195.931 18.3099C195.749 16.8195 196.147 16.1272 196.581 15.7454C197.113 15.2765 198.142 14.888 199.849 14.888V10.888C197.669 10.888 195.505 11.3635 193.938 12.7426C192.272 14.2088 191.662 16.3485 191.96 18.7941L195.931 18.3099ZM199.849 14.888C201.257 14.888 202.226 15.202 202.841 15.6503C203.408 16.0635 203.858 16.7211 204.011 17.8583L207.976 17.3257C207.696 15.2469 206.754 13.5525 205.197 12.4177C203.688 11.318 201.801 10.888 199.849 10.888V14.888ZM204.018 17.9066C204.849 23.1231 204.849 32.6538 204.019 37.8186L207.968 38.4534C208.866 32.8662 208.865 22.9089 207.968 17.2774L204.018 17.9066ZM204.012 37.8658C203.86 38.9755 203.412 39.6403 202.835 40.0641C202.215 40.5196 201.245 40.84 199.849 40.84V44.84C201.814 44.84 203.699 44.3924 205.203 43.2879C206.75 42.1517 207.694 40.4645 207.975 38.4062L204.012 37.8658ZM199.849 40.84C198.146 40.84 197.089 40.4532 196.535 39.991C196.091 39.6195 195.732 39.0061 195.883 37.7503L191.912 37.2737C191.63 39.6179 192.304 41.6685 193.971 43.061C195.53 44.3628 197.665 44.84 199.849 44.84V40.84ZM167.769 26.616C167.769 23.1092 168.48 20.2639 170.103 18.3133C171.666 16.4345 174.377 15.032 179.209 15.032V11.032C173.577 11.032 169.569 12.7015 167.028 15.7547C164.547 18.7361 163.769 22.6828 163.769 26.616H167.769ZM179.209 15.032C184.041 15.032 186.768 16.4348 188.344 18.3177C189.977 20.2698 190.697 23.1151 190.697 26.616H194.697C194.697 22.6769 193.905 18.7302 191.411 15.7503C188.859 12.7012 184.841 11.032 179.209 11.032V15.032ZM190.697 26.616C190.697 29.9991 189.877 32.7779 188.182 34.6923C186.527 36.5618 183.766 37.912 179.209 37.912V41.912C184.588 41.912 188.572 40.2862 191.177 37.3437C193.742 34.4461 194.697 30.5769 194.697 26.616H190.697ZM179.209 37.912C174.626 37.912 171.883 36.5605 170.248 34.6986C168.572 32.7884 167.769 30.0107 167.769 26.616H163.769C163.769 30.5653 164.695 34.4356 167.242 37.3374C169.832 40.2875 173.809 41.912 179.209 41.912V37.912ZM174.004 26.4654C175.737 28.7954 178.591 30.3999 181.391 31.0588L182.307 27.1652C180.212 26.6721 178.266 25.4926 177.214 24.0786L174.004 26.4654ZM181.383 31.0568C182.171 31.246 182.978 31.132 183.656 30.7014C184.292 30.2978 184.672 29.7087 184.863 29.1656C185.051 28.6348 185.115 27.9896 184.935 27.3518C184.744 26.6807 184.211 25.8704 183.181 25.5955L182.15 29.4605C181.479 29.2816 181.174 28.7533 181.086 28.4422C181.007 28.1644 181.048 27.9572 181.091 27.8344C181.139 27.6993 181.255 27.4882 181.512 27.3246C181.812 27.134 182.128 27.122 182.316 27.1672L181.383 31.0568ZM183.225 25.608C181.29 25.0436 179.606 23.9925 178.032 22.4178L175.203 25.2462C177.18 27.2235 179.433 28.6684 182.105 29.448L183.225 25.608ZM177.969 22.3577C177.254 21.7024 176.359 21.5972 175.648 21.7682C174.989 21.9267 174.462 22.3118 174.103 22.7355C173.363 23.6072 172.945 25.199 174.073 26.5524L177.146 23.9916C177.293 24.1678 177.399 24.446 177.377 24.7532C177.357 25.0198 177.25 25.209 177.152 25.3245C177.062 25.4302 176.887 25.5843 176.583 25.6573C176.228 25.7428 175.693 25.6976 175.266 25.3063L177.969 22.3577ZM169.161 48.6C169.161 46.527 169.677 45.1395 170.377 44.2512C171.063 43.38 172.064 42.81 173.407 42.6103L172.819 38.6537C170.611 38.982 168.636 39.996 167.234 41.7768C165.845 43.5405 165.161 45.873 165.161 48.6H169.161ZM173.462 42.6013C175.031 42.3232 176.625 42.4728 177.902 42.9699C179.176 43.4656 180.008 44.2458 180.376 45.1668L184.09 43.6812C183.211 41.4822 181.379 40.0304 179.353 39.2421C177.33 38.4552 174.987 38.2688 172.764 38.6627L173.462 42.6013ZM180.386 45.19C180.647 45.8197 180.801 46.8389 180.685 47.835C180.564 48.8739 180.213 49.4309 179.943 49.6299L182.316 52.8501C183.87 51.7051 184.479 49.8381 184.658 48.297C184.842 46.7131 184.636 44.9963 184.081 43.658L180.386 45.19ZM180.048 49.5576C178.786 50.3689 178.515 51.9118 179.147 53.0326C179.464 53.5933 180.058 54.1229 180.897 54.2501C181.751 54.3797 182.475 54.0377 182.959 53.6225L180.356 50.5855C180.504 50.4583 180.91 50.2063 181.497 50.2954C182.069 50.3821 182.447 50.7407 182.631 51.0674C183 51.7202 182.801 52.5431 182.211 52.9224L180.048 49.5576ZM182.833 53.7221C188.032 49.9456 193.457 46.04 199.897 46.04V42.04C191.938 42.04 185.459 46.8704 180.482 50.4859L182.833 53.7221ZM199.897 46.04C201.446 46.04 202.694 46.3485 203.544 46.8778C204.32 47.3609 204.861 48.0779 205.019 49.2518L208.983 48.7162C208.662 46.3381 207.426 44.5831 205.658 43.4822C203.965 42.4275 201.901 42.04 199.897 42.04V46.04ZM205.011 49.1806C205.164 50.7305 204.823 51.6748 204.192 52.3256C203.492 53.0474 202.115 53.7431 199.516 54.0542L199.991 58.0258C203.007 57.6649 205.447 56.7766 207.063 55.1104C208.748 53.3732 209.223 51.1255 208.992 48.7874L205.011 49.1806ZM199.499 54.0562C193.673 54.802 184.882 54.9039 175.87 54.3794L175.637 58.3726C184.769 58.9041 193.834 58.814 200.007 58.0238L199.499 54.0562ZM175.89 54.3807C173.467 54.215 171.794 53.4038 170.745 52.3851C169.7 51.3709 169.161 50.0466 169.161 48.6H165.161C165.161 51.0894 166.111 53.4611 167.958 55.2549C169.801 57.0442 172.423 58.153 175.617 58.3713L175.89 54.3807Z" fill="black" mask="url(#path-12-outside-1_1063_3820)"/>
</svg>
