<svg width="168" height="49" fill="none" xmlns="http://www.w3.org/2000/svg"><path d="M20.26 43.777c10.631 0 19.25-8.619 19.25-19.25S30.89 5.277 20.26 5.277c-10.632 0-19.25 8.619-19.25 19.25s8.618 19.25 19.25 19.25Z" fill="#fff"/><path fill-rule="evenodd" clip-rule="evenodd" d="M20.26 5.653c-10.425 0-18.875 8.45-18.875 18.874 0 10.425 8.45 18.875 18.875 18.875 10.424 0 18.874-8.45 18.874-18.875 0-10.424-8.45-18.874-18.874-18.874ZM.635 24.527C.635 13.69 9.42 4.902 20.26 4.902c10.838 0 19.625 8.787 19.625 19.625 0 10.839-8.787 19.625-19.625 19.625C9.42 44.152.635 35.366.635 24.527Z" fill="#000"/><path d="M13.914 42.794c-.128 2.25 1.388 4.427 2.97 5.147 2.236 1.012 5.147-.57 6.227-4.216-2.355.42-6.076.277-9.19-.938" fill="#F49E15"/><path fill-rule="evenodd" clip-rule="evenodd" d="M13.376 42.27a.75.75 0 0 1 .816-.182c2.971 1.16 6.55 1.297 8.786.898a.75.75 0 0 1 .85.952c-1.146 3.87-4.427 5.967-7.255 4.686-.956-.435-1.835-1.276-2.457-2.29-.625-1.022-1.027-2.278-.953-3.582a.748.748 0 0 1 .213-.483Zm1.356 1.592c.114.595.347 1.171.664 1.687.5.816 1.169 1.422 1.797 1.709 1.449.655 3.596-.099 4.778-2.632-2.1.177-4.773-.007-7.239-.764Z" fill="#000"/><path d="M9.825 39.846a4.629 4.629 0 1 0 0-9.258 4.629 4.629 0 0 0 0 9.258Z" fill="#F3A89F"/><path fill-rule="evenodd" clip-rule="evenodd" d="M5.978 4.302a.75.75 0 0 1 .808-.687l-.06.747.06-.747h.007l.012.001a3.999 3.999 0 0 1 .18.02 10.368 10.368 0 0 1 2.057.488c1.188.417 2.689 1.211 3.498 2.719a.75.75 0 0 1-1.321.71c-.548-1.02-1.624-1.644-2.674-2.013a8.868 8.868 0 0 0-1.852-.427l-.024-.003h-.004a.75.75 0 0 1-.687-.808Z" fill="#000"/><path fill-rule="evenodd" clip-rule="evenodd" d="M11.807.487a.75.75 0 0 1 .819.675l.548 5.71a.75.75 0 1 1-1.494.142l-.548-5.708a.75.75 0 0 1 .675-.819Z" fill="#000"/><path d="M13.29 32.149a1.41 1.41 0 1 0 0-2.82 1.41 1.41 0 0 0 0 2.82Z" fill="#000"/><path d="M31.354 38.585a4.629 4.629 0 1 0 0-9.257 4.629 4.629 0 0 0 0 9.257Z" fill="#F3A89F"/><path d="M26.922 32a1.26 1.26 0 1 0 0-2.521 1.26 1.26 0 0 0 0 2.52Z" fill="#000"/><path fill-rule="evenodd" clip-rule="evenodd" d="M20.26 6.027c-10.217 0-18.5 8.283-18.5 18.5s8.283 18.5 18.5 18.5 18.5-8.283 18.5-18.5-8.283-18.5-18.5-18.5Zm-20 18.5c0-11.046 8.954-20 20-20 11.045 0 20 8.954 20 20s-8.954 20-20 20-20-8.954-20-20Z" fill="#000"/><mask id="a" maskUnits="userSpaceOnUse" x="51.26" y="6.484" width="117" height="32" fill="#000"><path fill="#fff" d="M51.26 6.484h117v32h-117z"/><path d="M61.868 27.564v-1.02c-5.55-.69-7.59-2.79-7.59-7.11 0-6.3 4.47-10.38 12.69-10.38 8.22 0 12.72 4.08 12.72 10.38 0 4.32-2.07 6.42-7.65 7.11v1.02c1.56-.09 3.12-.21 4.74-.39 2.31-.27 3.63 1.56 3.63 3.81 0 2.79-1.32 4.17-3.66 4.41-6.69.69-12.9.69-19.59 0-2.28-.24-3.63-1.62-3.63-4.41 0-2.25 1.35-4.08 3.63-3.81 1.59.15 3.15.3 4.71.39Zm3.18-6.09h3.84c.51 0 .51-1.14 0-1.14h-3.84c-.51 0-.51 1.14 0 1.14Zm41.646 5.82c-.09 1.8-.21 3.6-.39 5.34-.24 2.4-1.74 3.6-3.84 3.6-2.43 0-4.05-1.38-3.78-4.08.78-6.45.78-12.93.03-19.11-.3-2.97 1.32-4.38 3.75-4.38 2.1 0 3.6 1.2 3.84 3.66.15 1.41.24 2.82.33 4.29l.87-.09c1.38-.24 2.19 1.41 2.19 5.4 0 4.02-.81 5.64-2.19 5.49l-.81-.12Zm-17.01 8.25c-3.87-.87-5.07-4.65-3.39-7.68.87-1.56 2.76-3.12 5.19-4.14.81-.33.3-1.35-.66-.84-1.41.69-2.52 1.08-4.11 1.23-3.54.24-4.41-.66-4.32-3 .09-2.1 1.23-2.88 4.23-2.88.87 0 3.45 0 4.86.09.93.03.96-1.17 0-1.17h-6.24c-2.25 0-3.72-1.17-3.72-4.08 0-2.01 1.62-3.21 3.72-3.69 1.98-.48 5.82-.48 7.92 0 2.55.57 3.75 2.04 4.47 5.7.84 4.14.66 10.17 0 14.16-.72 4.56-4.62 6.99-7.95 6.3Zm21.756-20.52c0-4.44 4.89-6.06 12.54-6.06 7.62 0 12.51 1.47 12.51 6.06 0 4.62-4.89 6.09-12.51 6.09-7.65 0-12.54-1.65-12.54-6.09Zm11.73 1.83c1.35-.78 2.55-2.07 3.06-3.39.24-.66-.6-1.14-.84-.72-.78 1.38-1.74 2.49-2.97 3.3-.42.24.09 1.2.75.81Zm-1.83 9.21c-2.82-.03-5.58-.15-8.04-.36-1.71-.12-2.76-.81-2.76-2.19 0-1.17 1.05-2.07 2.76-1.98 6.42.45 14.67.42 21.33 0 1.74-.09 2.79.81 2.79 1.98 0 1.38-1.05 2.07-2.82 2.19-1.56.12-3.21.21-4.92.27 0 .27.03.51.03.78 0 .81-.09 1.5-.33 2.07.93-.18 1.86-.3 2.82-.3 2.22 0 4.14.66 4.44 2.85.24 2.43-1.02 3.81-4.53 4.23-3.75.48-9.69.54-15.3.21-3.54-.24-5.37-1.68-5.37-4.14 0-2.82 1.77-4.5 3.99-4.86 2.37-.39 3.9.12 5.07 1.59.84 1.11.78 3.39-.36 4.2-.39.3-.09.87.36.54 1.23-.9 2.58-1.8 4.05-2.55-2.31-.21-3.27-1.26-3.27-3.51 0-.33.03-.66.06-1.02Zm23.106.42c-2.76-.39-4.35-2.73-4.35-6.57v-4.29c0-3.36 1.05-5.07 3.18-5.22 6.66-.48 13.05-.48 19.68-.21 1.2.03 1.62.72 1.62 1.74 0 .93-.42 1.95-1.62 1.95h-13.08c-.57 0-.57 1.08 0 1.08h12.81c1.2 0 1.62.66 1.62 1.65 0 .99-.42 1.5-1.62 1.53l-12.81.06c-.6 0-.6 1.23 0 1.23l12.84-.06c1.38 0 2.22 1.38 2.22 3.54 0 2.1-.84 3.27-2.22 3.48-6.54.93-12.54.96-18.27.09Zm-1.77 9c-2.28-.24-3.63-1.56-3.63-4.14 0-2.1 1.35-3.81 3.63-3.57 6.69.66 12.9.66 19.62 0 2.31-.24 3.63 1.47 3.63 3.57 0 2.58-1.32 3.9-3.66 4.14-6.69.66-12.9.66-19.59 0Z"/></mask><path d="M61.868 27.564v-1.02c-5.55-.69-7.59-2.79-7.59-7.11 0-6.3 4.47-10.38 12.69-10.38 8.22 0 12.72 4.08 12.72 10.38 0 4.32-2.07 6.42-7.65 7.11v1.02c1.56-.09 3.12-.21 4.74-.39 2.31-.27 3.63 1.56 3.63 3.81 0 2.79-1.32 4.17-3.66 4.41-6.69.69-12.9.69-19.59 0-2.28-.24-3.63-1.62-3.63-4.41 0-2.25 1.35-4.08 3.63-3.81 1.59.15 3.15.3 4.71.39Zm3.18-6.09h3.84c.51 0 .51-1.14 0-1.14h-3.84c-.51 0-.51 1.14 0 1.14Zm41.646 5.82c-.09 1.8-.21 3.6-.39 5.34-.24 2.4-1.74 3.6-3.84 3.6-2.43 0-4.05-1.38-3.78-4.08.78-6.45.78-12.93.03-19.11-.3-2.97 1.32-4.38 3.75-4.38 2.1 0 3.6 1.2 3.84 3.66.15 1.41.24 2.82.33 4.29l.87-.09c1.38-.24 2.19 1.41 2.19 5.4 0 4.02-.81 5.64-2.19 5.49l-.81-.12Zm-17.01 8.25c-3.87-.87-5.07-4.65-3.39-7.68.87-1.56 2.76-3.12 5.19-4.14.81-.33.3-1.35-.66-.84-1.41.69-2.52 1.08-4.11 1.23-3.54.24-4.41-.66-4.32-3 .09-2.1 1.23-2.88 4.23-2.88.87 0 3.45 0 4.86.09.93.03.96-1.17 0-1.17h-6.24c-2.25 0-3.72-1.17-3.72-4.08 0-2.01 1.62-3.21 3.72-3.69 1.98-.48 5.82-.48 7.92 0 2.55.57 3.75 2.04 4.47 5.7.84 4.14.66 10.17 0 14.16-.72 4.56-4.62 6.99-7.95 6.3Zm21.756-20.52c0-4.44 4.89-6.06 12.54-6.06 7.62 0 12.51 1.47 12.51 6.06 0 4.62-4.89 6.09-12.51 6.09-7.65 0-12.54-1.65-12.54-6.09Zm11.73 1.83c1.35-.78 2.55-2.07 3.06-3.39.24-.66-.6-1.14-.84-.72-.78 1.38-1.74 2.49-2.97 3.3-.42.24.09 1.2.75.81Zm-1.83 9.21c-2.82-.03-5.58-.15-8.04-.36-1.71-.12-2.76-.81-2.76-2.19 0-1.17 1.05-2.07 2.76-1.98 6.42.45 14.67.42 21.33 0 1.74-.09 2.79.81 2.79 1.98 0 1.38-1.05 2.07-2.82 2.19-1.56.12-3.21.21-4.92.27 0 .27.03.51.03.78 0 .81-.09 1.5-.33 2.07.93-.18 1.86-.3 2.82-.3 2.22 0 4.14.66 4.44 2.85.24 2.43-1.02 3.81-4.53 4.23-3.75.48-9.69.54-15.3.21-3.54-.24-5.37-1.68-5.37-4.14 0-2.82 1.77-4.5 3.99-4.86 2.37-.39 3.9.12 5.07 1.59.84 1.11.78 3.39-.36 4.2-.39.3-.09.87.36.54 1.23-.9 2.58-1.8 4.05-2.55-2.31-.21-3.27-1.26-3.27-3.51 0-.33.03-.66.06-1.02Zm23.106.42c-2.76-.39-4.35-2.73-4.35-6.57v-4.29c0-3.36 1.05-5.07 3.18-5.22 6.66-.48 13.05-.48 19.68-.21 1.2.03 1.62.72 1.62 1.74 0 .93-.42 1.95-1.62 1.95h-13.08c-.57 0-.57 1.08 0 1.08h12.81c1.2 0 1.62.66 1.62 1.65 0 .99-.42 1.5-1.62 1.53l-12.81.06c-.6 0-.6 1.23 0 1.23l12.84-.06c1.38 0 2.22 1.38 2.22 3.54 0 2.1-.84 3.27-2.22 3.48-6.54.93-12.54.96-18.27.09Zm-1.77 9c-2.28-.24-3.63-1.56-3.63-4.14 0-2.1 1.35-3.81 3.63-3.57 6.69.66 12.9.66 19.62 0 2.31-.24 3.63 1.47 3.63 3.57 0 2.58-1.32 3.9-3.66 4.14-6.69.66-12.9.66-19.59 0Z" fill="#fff"/><path d="m61.868 27.564-.115 1.996 2.115.122v-2.118h-2Zm0-1.02h2v-1.767l-1.753-.218-.247 1.985Zm10.17 0-.245-1.985-1.755.217v1.768h2Zm0 1.02h-2v2.118l2.115-.122-.115-1.996Zm4.74-.39.22 1.987h.012l-.232-1.987Zm-.03 8.22-.204-1.99h-.001l.205 1.99Zm-19.59 0-.21 1.989h.005l.205-1.99Zm0-8.22-.235 1.986.023.003.024.002.188-1.991Zm6.71.39V26.994h-4V27.564h4Zm0-.57V26.544h-4V26.994h4Zm-1.753-2.435c-2.624-.326-4.002-.947-4.74-1.655-.666-.636-1.097-1.62-1.097-3.47h-4c0 2.468.59 4.695 2.331 6.361 1.669 1.596 4.086 2.37 7.012 2.733l.494-3.97Zm-5.837-5.125c0-2.645.918-4.647 2.551-6.024 1.677-1.412 4.337-2.356 8.139-2.356v-4c-4.418 0-8.103 1.095-10.716 3.298-2.657 2.238-3.974 5.426-3.974 9.082h4Zm10.69-8.38c3.802 0 6.472.944 8.156 2.359 1.642 1.378 2.564 3.38 2.564 6.02h4c0-3.66-1.328-6.847-3.991-9.083-2.62-2.2-6.311-3.296-10.729-3.296v4Zm10.72 8.38c0 1.843-.434 2.825-1.108 3.464-.751.712-2.147 1.334-4.787 1.66l.49 3.97c2.94-.363 5.37-1.136 7.048-2.726 1.756-1.664 2.357-3.892 2.357-6.368h-4Zm-7.65 7.11V26.994h4V26.544h-4Zm0 .45V27.564h4V26.994h-4Zm2.115 2.566A90.982 90.982 0 0 0 77 29.161l-.442-3.975c-1.576.175-3.1.292-4.634.381l.23 3.993Zm4.857-.4c.524-.061.775.098.946.293.226.257.452.768.452 1.53h4c0-1.487-.434-3.016-1.445-4.169-1.067-1.215-2.631-1.836-4.417-1.627l.464 3.973Zm1.398 1.824c0 1.097-.26 1.613-.469 1.857-.196.228-.572.479-1.395.563l.408 3.98c1.517-.156 2.971-.715 4.02-1.935 1.035-1.204 1.436-2.773 1.436-4.465h-4Zm-1.865 2.42c-6.554.676-12.626.676-19.18 0l-.41 3.98c6.826.703 13.174.703 20 0l-.41-3.98Zm-19.176 0c-.783-.082-1.16-.327-1.363-.563-.214-.25-.476-.77-.476-1.857h-4c0 1.703.413 3.267 1.444 4.465 1.042 1.212 2.48 1.776 3.977 1.934l.418-3.978Zm-1.839-2.42c0-.752.228-1.265.46-1.527.18-.204.435-.357.935-.297l.47-3.973c-1.78-.21-3.34.417-4.404 1.623-1.014 1.148-1.461 2.675-1.461 4.174h4Zm1.442-1.82c1.58.15 3.18.304 4.783.396l.23-3.993c-1.516-.087-3.037-.234-4.637-.384l-.376 3.982Zm8.078-5.69h3.84v-4h-3.84v4Zm3.84 0c1.01 0 1.681-.612 2.005-1.154a2.777 2.777 0 0 0 .377-1.416c0-.402-.083-.923-.377-1.417-.324-.542-.995-1.153-2.005-1.153v4c-.755 0-1.235-.47-1.43-.798a1.229 1.229 0 0 1-.188-.632c0-.117.02-.353.187-.633a1.674 1.674 0 0 1 1.431-.797v4Zm0-5.14h-3.84v4h3.84v-4Zm-3.84 0c-1.01 0-1.681.611-2.005 1.153a2.777 2.777 0 0 0-.377 1.417c0 .4.083.922.378 1.416.323.542.995 1.154 2.004 1.154v-4c.755 0 1.235.469 1.43.797.168.28.188.516.188.633 0 .116-.02.352-.187.632a1.674 1.674 0 0 1-1.431.798v-4Zm41.646 8.96.293-1.979-2.181-.323-.11 2.202 1.998.1Zm-.39 5.34-1.989-.206-.001.007 1.99.199Zm-7.62-.48-1.986-.24-.002.02-.002.02 1.99.2Zm.03-19.11-1.99.2.002.02.002.02 1.986-.24Zm7.59-.72-1.991.194.001.008.001.01 1.989-.212Zm.33 4.29-1.996.122.127 2.082 2.075-.215-.206-1.99Zm.87-.09.206 1.989.068-.007.069-.012-.343-1.97Zm0 10.89-.293 1.978.038.006.039.004.216-1.988Zm-17.82 8.13-.439 1.95.017.005.016.003.406-1.958Zm-3.39-7.68-1.747-.974-.002.004 1.749.97Zm5.19-4.14-.755-1.852-.01.003-.01.005.775 1.844Zm-.66-.84.879 1.796.03-.014.03-.016-.94-1.766Zm-4.11 1.23.135 1.995.026-.002.027-.002-.188-1.991Zm-4.32-3-1.998-.086v.009l1.998.077Zm9.09-2.79-.127 1.996.03.002h.032l.065-1.998Zm-6.24-8.94.446 1.95.012-.004.013-.003-.471-1.943Zm7.92 0-.446 1.95.01.002.436-1.952Zm4.47 5.7-1.963.386.003.011 1.96-.397Zm0 14.16-1.973-.327-.002.007v.008l1.975.312Zm7.062-2.05a99.65 99.65 0 0 1-.381 5.234l3.978.411c.185-1.787.307-3.625.398-5.445l-3.995-.2Zm-.382 5.24c-.082.817-.349 1.214-.57 1.412-.225.202-.612.388-1.28.388v4c1.432 0 2.844-.415 3.954-1.413 1.115-1.002 1.718-2.405 1.876-3.988l-3.98-.398Zm-1.85 1.8c-.861 0-1.291-.243-1.481-.434-.157-.16-.4-.535-.309-1.447l-3.98-.398c-.179 1.788.253 3.452 1.445 4.657 1.161 1.174 2.756 1.622 4.325 1.622v-4Zm-1.795-1.84c.799-6.606.8-13.248.03-19.591l-3.97.482c.73 6.016.73 12.335-.03 18.629l3.97.48Zm.035-19.551c-.112-1.104.16-1.563.328-1.743.18-.194.583-.436 1.432-.436v-4c-1.581 0-3.203.463-4.365 1.716-1.175 1.267-1.564 2.998-1.375 4.865l3.98-.402Zm1.76-2.18c.668 0 1.049.185 1.271.387.22.2.495.61.578 1.468l3.981-.389c-.156-1.602-.751-3.022-1.866-4.037-1.114-1.013-2.532-1.428-3.964-1.428v4Zm1.851 1.872c.145 1.36.232 2.728.323 4.2l3.992-.244c-.09-1.467-.182-2.919-.337-4.379l-3.978.423Zm2.525 6.068.87-.09-.412-3.979-.87.09.412 3.979Zm1.007-.109a.798.798 0 0 1-.542-.134c-.155-.105-.126-.168-.029.06.211.497.418 1.572.418 3.504h4c0-2.06-.199-3.804-.737-5.07-.278-.652-.711-1.332-1.405-1.804-.747-.506-1.594-.635-2.391-.497l.686 3.941Zm-.153 3.43c0 1.944-.206 3.023-.42 3.53-.098.233-.136.195-.011.105a.718.718 0 0 1 .457-.134l-.432 3.977a3.292 3.292 0 0 0 2.306-.592c.665-.477 1.088-1.144 1.365-1.8.536-1.27.735-3.011.735-5.086h-4Zm.103 3.511-.81-.12-.586 3.957.81.12.586-3.957Zm-17.674 8.157c-1.328-.298-2.043-1.034-2.359-1.822-.332-.829-.294-1.903.279-2.936l-3.498-1.94c-1.107 1.996-1.31 4.327-.494 6.363.832 2.077 2.652 3.666 5.194 4.238l.878-3.903Zm-2.082-4.754c.586-1.051 2.054-2.362 4.217-3.27l-1.548-3.689c-2.697 1.133-5.01 2.942-6.163 5.01l3.494 1.949Zm4.198-3.262c.608-.248 1.201-.731 1.487-1.482a2.438 2.438 0 0 0-.215-2.17c-.873-1.387-2.528-1.39-3.625-.807l1.876 3.533a1.333 1.333 0 0 1-1.637-.596 1.562 1.562 0 0 1-.136-1.385c.184-.483.537-.715.74-.797l1.51 3.704Zm-2.294-4.489c-1.262.618-2.135.914-3.419 1.035l.376 3.983c1.896-.18 3.243-.663 4.801-1.425l-1.758-3.593Zm-3.366 1.031c-.811.055-1.37.037-1.748-.02-.377-.057-.464-.136-.437-.116.183.138-.041.235-.002-.791l-3.997-.154c-.05 1.313.116 3.03 1.596 4.143 1.288.968 3.075 1.05 4.858.93l-.27-3.992Zm-2.187-.919c.016-.36.072-.533.102-.598.017-.039.023-.044.05-.062.144-.098.65-.305 2.08-.305v-4c-1.571 0-3.134.182-4.333 1-1.381.94-1.835 2.382-1.895 3.794l3.996.171Zm2.232-.965c.897 0 3.401 0 4.733.086l.254-3.992c-1.488-.095-4.144-.094-4.987-.094v4Zm4.795.089c.678.021 1.384-.184 1.94-.692a2.554 2.554 0 0 0 .04-3.739c-.547-.52-1.247-.738-1.915-.738v4a1.26 1.26 0 0 1-.843-.365 1.447 1.447 0 0 1 .022-2.113c.32-.291.673-.358.885-.351l-.129 3.998Zm.065-5.17h-6.24v4h6.24v-4Zm-6.24 0c-.798 0-1.133-.204-1.281-.354-.153-.154-.44-.584-.44-1.725h-4c0 1.769.45 3.378 1.595 4.537 1.148 1.162 2.674 1.543 4.126 1.543v-4Zm-1.72-2.08c0-.4.136-.68.423-.943.334-.306.91-.606 1.743-.797l-.892-3.9c-2.44.559-5.274 2.219-5.274 5.64h4Zm2.191-1.746c.768-.186 2.043-.303 3.444-.303 1.395 0 2.714.116 3.56.31l.89-3.9c-1.254-.287-2.905-.41-4.45-.41-1.539 0-3.174.122-4.386.416l.942 3.887Zm7.013.008c.95.213 1.434.533 1.788.98.415.525.817 1.437 1.155 3.155l3.925-.772c-.382-1.942-.94-3.596-1.942-4.864C96.59 8.49 95.199 7.79 93.6 7.432l-.872 3.903Zm2.946 4.146c.778 3.835.62 9.609-.013 13.436l3.946.653c.687-4.152.889-10.439-.013-14.884l-3.92.795Zm-.016 13.45c-.56 3.549-3.469 5.09-5.568 4.654l-.812 3.917c4.56.945 9.452-2.375 10.331-7.946l-3.95-.624Zm27.512-12.077-1.001-1.732-.008.005-.009.005 1.018 1.722Zm3.06-3.39 1.865.72.008-.018.006-.019-1.879-.683Zm-.84-.72-1.737-.993-.004.008 1.741.985Zm-2.97 3.3.992 1.736.055-.031.053-.035-1.1-1.67Zm-1.08 10.02 1.993.166.178-2.143-2.15-.023-.021 2Zm-8.04-.36.17-1.993-.015-.001-.015-.002-.14 1.996Zm0-4.17.14-1.995-.018-.002h-.017l-.105 1.997Zm21.33 0-.104-1.998h-.011l-.011.002.126 1.996Zm-.03 4.17-.136-1.996h-.009l-.009.002.154 1.994Zm-4.92.27-.07-2-1.93.069v1.93h2Zm-.3 2.85-1.844-.777-1.453 3.452 3.677-.712-.38-1.963Zm7.26 2.55 1.99-.197-.004-.037-.005-.038-1.981.272Zm-4.53 4.23-.238-1.986h-.008l-.008.002.254 1.984Zm-15.3.21-.136 1.995h.009l.009.001.118-1.996Zm-1.38-9 .32 1.974h.005l-.325-1.974Zm5.07 1.59 1.595-1.207-.015-.02-.015-.019-1.565 1.246Zm-.36 4.2-1.159-1.63-.031.021-.03.023 1.22 1.586Zm.36.54-1.181-1.614h-.002l1.183 1.614Zm4.05-2.55.909 1.781 6.167-3.146-6.895-.627-.181 1.992Zm-11.11-15.57c0-.718.188-1.224.488-1.626.316-.425.851-.856 1.719-1.24 1.789-.787 4.584-1.194 8.333-1.194v-4c-3.901 0-7.377.403-9.945 1.534-1.31.578-2.477 1.384-3.316 2.511-.857 1.15-1.279 2.512-1.279 4.015h4Zm10.54-4.06c3.752 0 6.536.373 8.318 1.144.861.373 1.387.796 1.699 1.22.296.401.493.926.493 1.696h4c0-1.526-.415-2.906-1.274-4.07-.842-1.143-2.016-1.949-3.329-2.517-2.568-1.111-6.04-1.473-9.907-1.473v4Zm10.51 4.06c0 .78-.199 1.312-.496 1.717-.313.428-.839.852-1.699 1.226-1.78.774-4.562 1.147-8.315 1.147v4c3.867 0 7.34-.362 9.909-1.479 1.315-.57 2.489-1.38 3.33-2.528.858-1.17 1.271-2.553 1.271-4.083h-4Zm-10.51 4.09c-3.746 0-6.539-.414-8.327-1.208-.869-.386-1.405-.82-1.723-1.25-.302-.405-.49-.915-.49-1.632h-4c0 1.502.422 2.864 1.277 4.016.838 1.129 2.002 1.94 3.312 2.521 2.57 1.142 6.047 1.553 9.951 1.553v-4Zm.19-.529c1.667-.963 3.221-2.577 3.925-4.4l-3.731-1.442c-.315.817-1.162 1.782-2.195 2.379l2.001 3.463Zm3.939-4.438c.488-1.34-.171-2.514-.957-3.076a2.555 2.555 0 0 0-1.565-.484 2.306 2.306 0 0 0-1.934 1.164l3.473 1.985a1.694 1.694 0 0 1-1.401.849 1.448 1.448 0 0 1-.898-.259c-.366-.261-.724-.866-.477-1.546l3.759 1.367Zm-4.46-2.388c-.657 1.163-1.416 2.013-2.329 2.614l2.2 3.341c1.546-1.018 2.708-2.389 3.611-3.986l-3.482-1.969Zm-2.222 2.548c-.86.492-1.155 1.348-1.16 2.003-.005.607.213 1.141.493 1.535.288.404.751.814 1.398 1.001a2.56 2.56 0 0 0 2.029-.27l-2.035-3.444a1.44 1.44 0 0 1 1.12-.127c.379.11.617.337.747.52.123.172.251.446.248.817a1.69 1.69 0 0 1-.855 1.438l-1.985-3.473Zm-.066 9.757a108.16 108.16 0 0 1-7.891-.353l-.34 3.985c2.518.215 5.329.337 8.188.367l.043-4Zm-7.921-.355a3.275 3.275 0 0 1-.711-.117.826.826 0 0 1-.244-.106c-.004-.003.025.02.048.07.022.044.007.045.007-.042h-4c0 1.274.523 2.4 1.532 3.163.911.688 2.04.948 3.088 1.022l.28-3.99Zm-.9-.195a.207.207 0 0 1-.025.087c-.02.039-.039.052-.03.046.019-.015.213-.142.71-.116l.21-3.995c-1.213-.063-2.399.214-3.333.92a3.8 3.8 0 0 0-1.532 3.058h4Zm.62.015c6.52.457 14.86.425 21.596 0l-.252-3.991c-6.584.415-14.744.444-21.064 0l-.28 3.99Zm21.573.002c.52-.027.723.104.744.12.009.007-.011-.007-.032-.048a.22.22 0 0 1-.025-.09h4a3.792 3.792 0 0 0-1.543-3.062c-.939-.704-2.131-.978-3.351-.915l.207 3.995Zm.687-.017c0 .087-.016.084.008.036.025-.052.056-.077.051-.073a.888.888 0 0 1-.261.11 3.542 3.542 0 0 1-.754.121l.271 3.991c1.068-.072 2.212-.328 3.133-1.013 1.026-.764 1.552-1.895 1.552-3.172h-4Zm-.974.195a116.72 116.72 0 0 1-4.836.266l.14 3.997c1.734-.06 3.412-.152 5.003-.274l-.307-3.989Zm-6.766 2.265c0 .202.011.387.018.507.008.135.012.205.012.273h4c0-.203-.012-.388-.019-.508a4.544 4.544 0 0 1-.011-.272h-4Zm.03.78c0 .69-.082 1.076-.174 1.293l3.687 1.553c.388-.922.487-1.917.487-2.846h-4Zm2.05 4.033c.85-.164 1.646-.263 2.44-.263v-4c-1.127 0-2.19.14-3.2.336l.76 3.927Zm2.44-.263c.96 0 1.604.15 1.973.354.257.142.423.315.485.767l3.963-.543c-.238-1.738-1.182-2.99-2.515-3.726-1.221-.673-2.646-.852-3.906-.852v4Zm2.449 1.046c.082.822-.108 1.089-.26 1.236-.255.247-.919.62-2.517.812l.475 3.971c1.913-.228 3.634-.755 4.826-1.91 1.296-1.256 1.616-2.893 1.457-4.502l-3.981.393Zm-2.793 2.05c-3.576.458-9.378.524-14.929.197l-.235 3.993c5.67.334 11.748.28 15.672-.223l-.508-3.967Zm-14.911.198c-1.568-.106-2.462-.465-2.923-.823-.369-.286-.582-.655-.582-1.321h-4c0 1.794.702 3.375 2.132 4.483 1.339 1.038 3.13 1.518 5.102 1.652l.271-3.99Zm-3.505-2.144c0-.973.296-1.614.663-2.031.379-.43.939-.74 1.647-.855l-.64-3.949c-1.512.246-2.947.955-4.009 2.16-1.072 1.218-1.661 2.827-1.661 4.675h4Zm2.315-2.887c.991-.163 1.625-.106 2.053.03.394.125.752.36 1.127.832l3.13-2.49c-.795-1-1.788-1.754-3.044-2.154-1.222-.389-2.538-.392-3.916-.165l.65 3.947Zm3.15.823a.876.876 0 0 1 .112.285c.043.176.063.384.049.592-.013.21-.057.369-.1.465-.042.096-.057.072.015.021l2.317 3.261c1.261-.896 1.688-2.374 1.76-3.489.074-1.14-.175-2.507-.963-3.548l-3.19 2.413Zm.015 1.408c-.926.713-1.279 2.03-.634 3.114.324.545.899.988 1.641 1.09.728.1 1.342-.163 1.755-.465l-2.365-3.226a1.593 1.593 0 0 1 1.154-.272 1.736 1.736 0 0 1 1.253.829c.48.807.171 1.688-.365 2.1l-2.439-3.17Zm2.761 3.74c1.184-.867 2.439-1.7 3.778-2.383l-1.818-3.563c-1.601.817-3.046 1.784-4.322 2.718l2.362 3.228Zm3.05-6.156c-.922-.084-1.166-.304-1.216-.358-.044-.048-.235-.284-.235-1.16h-4c0 1.373.289 2.788 1.302 3.88 1.007 1.085 2.398 1.495 3.787 1.621l.362-3.983Zm-1.451-1.518c0-.228.02-.463.053-.854l-3.986-.332c-.028.328-.067.753-.067 1.186h4Zm21.166-.6.3-1.978-.01-.001-.011-.002-.279 1.98Zm-1.17-16.08.14 1.995h.003l-.143-1.995Zm19.68-.21-.082 1.998h.016l.016.001.05-2Zm-.27 7.95.009 2h.02l.021-.001-.05-2Zm-12.81.06v2h.009l-.009-2Zm0 1.23v2h.009l-.009-2Zm12.84-.06v-2h-.01l.01 2Zm0 7.02.281 1.98.01-.002.01-.001-.301-1.977Zm-20.04 9.09-.21 1.989.013.001.197-1.99Zm0-7.71-.21 1.989.013.001.197-1.99Zm19.62 0 .195 1.99.011-.001-.206-1.99Zm-.03 7.71.196 1.99h.008l-.204-1.99Zm-17.541-10.98c-.83-.118-1.407-.494-1.825-1.121-.455-.683-.804-1.8-.804-3.47h-4c0 2.171.446 4.144 1.476 5.689 1.066 1.6 2.664 2.59 4.594 2.862l.559-3.96Zm-2.629-4.59v-4.29h-4v4.29h4Zm0-4.29c0-1.529.249-2.364.498-2.772.168-.276.357-.42.822-.453l-.281-3.99c-1.664.117-3.066.902-3.955 2.359-.808 1.324-1.084 3.024-1.084 4.856h4Zm1.323-3.226c6.567-.473 12.879-.474 19.455-.206l.163-3.997c-6.683-.272-13.151-.273-19.905.214l.287 3.99Zm19.487-.205c.116.003.118.02.054-.006a.741.741 0 0 1-.395-.414c-.003-.01.011.036.011.16h4c0-.737-.145-1.712-.829-2.527-.731-.871-1.76-1.187-2.741-1.212l-.1 3.999Zm-.33-.26a.844.844 0 0 1-.022.2c-.012.046-.016.035.013-.008a.61.61 0 0 1 .212-.183c.11-.058.186-.058.177-.058v4c1.266 0 2.284-.586 2.908-1.494.556-.81.712-1.737.712-2.456h-4Zm.38-.05h-13.08v4h13.08v-4Zm-13.08 0c-.87 0-1.557.45-1.957 1.018a2.655 2.655 0 0 0-.471 1.523c0 .452.114 1.014.471 1.522a2.38 2.38 0 0 0 1.957 1.018v-4c.584 0 1.057.314 1.315.68.215.306.257.597.257.78 0 .182-.042.474-.257.78-.258.365-.731.68-1.315.68v-4Zm0 5.08h12.81v-4h-12.81v4Zm12.81 0c.122 0 .127.018.062-.006a.78.78 0 0 1-.301-.216.684.684 0 0 1-.147-.247c-.007-.025.006.006.006.12h4c0-.73-.148-1.713-.861-2.52-.756-.857-1.799-1.13-2.759-1.13v4Zm-.38-.35c0 .117-.014.122.005.06a.893.893 0 0 1 .22-.349.808.808 0 0 1 .297-.195c.027-.01-.021.011-.192.015l.1 3.999c.82-.02 1.842-.208 2.624-.99.797-.797.946-1.809.946-2.54h-4Zm.37-.47-12.81.06.019 4 12.81-.06-.019-4Zm-12.8.06a2.39 2.39 0 0 0-2.014 1.102 2.78 2.78 0 0 0-.436 1.514c0 .441.101.999.436 1.513a2.39 2.39 0 0 0 2.014 1.102v-4a1.61 1.61 0 0 1 1.339.717c.184.284.211.534.211.668s-.027.384-.211.667a1.61 1.61 0 0 1-1.339.718v-4Zm.009 5.23 12.84-.06-.019-4-12.84.06.019 4Zm12.831-.06c.004 0-.008.001-.031-.005a.27.27 0 0 1-.067-.028c-.042-.025-.024-.031.027.05.118.19.291.664.291 1.524h4c0-1.301-.247-2.596-.895-3.637-.695-1.117-1.85-1.903-3.325-1.903v4Zm.22 1.54c0 .81-.166 1.202-.264 1.35-.059.09-.106.13-.257.153l.602 3.955c1.229-.187 2.291-.837 2.997-1.91.667-1.014.922-2.258.922-3.547h-4Zm-.502 1.5c-6.374.907-12.176.93-17.688.093l-.601 3.955c5.948.903 12.146.866 18.852-.087l-.563-3.96Zm-19.549 9.082c-.809-.086-1.202-.332-1.402-.552-.196-.214-.437-.655-.437-1.6h-4c0 1.636.433 3.146 1.482 4.296 1.045 1.146 2.468 1.679 3.938 1.834l.419-3.978Zm-1.839-2.151c0-.64.205-1.069.415-1.29.169-.18.448-.35 1.005-.291l.419-3.978c-1.723-.182-3.258.383-4.334 1.524-1.036 1.098-1.505 2.575-1.505 4.035h4Zm1.433-1.58c6.821.673 13.162.673 20.012 0l-.391-3.98c-6.59.646-12.669.646-19.228 0l-.393 3.98Zm20.023-.001c.581-.06.856.116 1.016.286.203.216.408.643.408 1.295h4c0-1.449-.455-2.927-1.49-4.03-1.078-1.15-2.617-1.71-4.347-1.53l.413 3.979Zm1.424 1.58c0 .956-.24 1.392-.431 1.6-.193.212-.585.464-1.433.551l.408 3.98c1.492-.154 2.929-.682 3.981-1.835 1.055-1.157 1.475-2.67 1.475-4.295h-4Zm-1.857 2.15a95.16 95.16 0 0 1-19.197 0l-.393 3.981a99.158 99.158 0 0 0 19.983 0l-.393-3.98Z" fill="#000" mask="url(#a)"/></svg>