<svg width="200" height="46" viewBox="0 0 200 46" fill="none" xmlns="http://www.w3.org/2000/svg">
<mask id="mask0_1623_1453" style="mask-type:luminance" maskUnits="userSpaceOnUse" x="0" y="0" width="200" height="46">
<path d="M200 0H0V46H200V0Z" fill="white"/>
</mask>
<g mask="url(#mask0_1623_1453)">
<path d="M16.9634 38.2873C7.32985 38.2873 3.07156 32.5114 3.07156 23.2076C3.07156 13.9039 6.73649 8.12793 16.9634 8.12793C27.2251 8.12793 30.8552 13.9039 30.8552 23.2076C30.8552 32.5114 26.5969 38.2873 16.9634 38.2873ZM15.7068 25.4557C15.3578 25.94 16.4398 26.4242 16.8936 25.8362C17.8709 24.4527 18.1152 22.5851 18.1501 20.8557C18.185 20.0603 16.9634 20.0948 16.9285 20.6482C16.8237 22.343 16.5096 23.7956 15.7068 25.4557ZM47.2447 38.2873C36.1452 38.2873 32.8294 31.543 32.8294 23.2076C32.8294 14.9069 36.1452 8.12793 47.2447 8.12793C50.421 8.12793 53.0388 8.61214 54.9934 9.68432C57.7508 11.0678 57.8206 14.1114 56.5292 16.3941C55.2028 18.7806 52.5152 20.4407 49.7578 19.0573C49.1644 18.746 48.3267 18.5039 47.2447 18.5039C43.9288 18.5039 42.6374 20.7174 42.6374 23.173C42.6374 25.6979 43.9288 27.9114 47.2447 27.9114C48.3267 27.9114 49.1644 27.6693 49.7578 27.358C52.585 25.94 55.3424 27.7385 56.599 30.1941C57.8206 32.5114 57.6461 35.3475 54.9934 36.7655C53.0388 37.8031 50.421 38.2873 47.2447 38.2873ZM73.4227 38.2873C62.3232 38.2873 59.0073 31.543 59.0073 23.2076C59.0073 14.9069 62.3232 8.12793 73.4227 8.12793C76.599 8.12793 79.2168 8.61214 81.1714 9.68432C83.9288 11.0678 83.9986 14.1114 82.7072 16.3941C81.3808 18.7806 78.6932 20.4407 75.9358 19.0573C75.3424 18.746 74.5047 18.5039 73.4227 18.5039C70.1068 18.5039 68.8154 20.7174 68.8154 23.173C68.8154 25.6979 70.1068 27.9114 73.4227 27.9114C74.5047 27.9114 75.3424 27.6693 75.9358 27.358C78.763 25.94 81.5204 27.7385 82.777 30.1941C83.9986 32.5114 83.8241 35.3475 81.1714 36.7655C79.2168 37.8031 76.599 38.2873 73.4227 38.2873ZM130.172 38.3219C120.295 38.3219 117.677 31.8197 117.677 23.5535C117.677 19.9911 117.747 16.1866 117.886 12.7625C118.061 10.1339 120.015 8.47379 122.703 8.47379C125.391 8.47379 127.38 10.1339 127.52 12.7625C127.694 16.1866 127.764 19.9911 127.764 23.5535C127.764 25.5941 128.078 27.1851 130.172 27.1851C132.267 27.1851 132.581 25.5941 132.581 23.5535C132.581 19.9911 132.651 16.1866 132.825 12.7625C132.93 10.1339 134.954 8.47379 137.607 8.47379C140.295 8.47379 142.354 10.1339 142.459 12.7625C142.633 16.1866 142.703 19.9911 142.703 23.5535C142.703 31.8197 140.05 38.3219 130.172 38.3219ZM155.686 23.3806C155.651 26.4242 155.442 30.4708 155.128 33.4106C154.883 36.0046 153.417 38.0452 150.52 38.0452C147.554 38.0452 146.123 36.0046 145.878 33.4106C145.18 26.8392 145.18 19.6106 145.878 13.0738C146.123 10.5144 147.554 8.47379 150.52 8.47379C152.196 8.47379 153.383 9.13094 154.15 10.1685C157.292 14.1806 158.932 19.5069 161.655 23.9339C161.899 24.5219 162.632 24.1761 162.283 23.5189C161.55 22.0317 160.992 21.0287 160.259 19.7144C160.363 17.4317 160.503 14.9415 160.678 13.0738C161.027 10.5144 162.423 8.47379 165.355 8.47379C168.287 8.47379 169.683 10.5144 170.032 13.0738C170.695 19.6106 170.695 26.8392 170.032 33.4106C169.683 36.0046 168.287 38.0452 165.355 38.0452C163.33 38.0452 162.109 37.0076 161.306 35.5896C159.491 32.4076 157.78 26.9776 155.686 23.3806ZM180.009 20.164H177.705C174.355 20.164 172.156 17.8813 172.156 14.5264C172.156 11.0332 174.355 8.99259 177.705 8.75049C180.393 8.54297 182.697 8.47379 184.965 8.47379C187.199 8.47379 189.468 8.57755 192.051 8.75049C195.367 8.99259 197.601 11.1024 197.601 14.4573C197.601 17.8121 195.367 20.164 192.051 20.164H190.899C190.69 19.2302 190.341 18.158 190.061 17.3279C189.817 16.7054 188.875 16.9475 189.049 17.3971C190.585 22.0317 191.004 28.4648 190.76 32.373C190.48 35.2437 188.77 38.0452 184.896 38.0452C181.091 38.0452 179.241 35.2437 179.032 32.373C178.753 28.4648 178.997 24.3836 180.009 20.164Z" fill="white"/>
<mask id="mask1_1623_1453" style="mask-type:luminance" maskUnits="userSpaceOnUse" x="1" y="6" width="199" height="34">
<path d="M199.302 6.57178H1.39616V39.7748H199.302V6.57178Z" fill="white"/>
<path d="M16.9634 38.2873C7.32985 38.2873 3.07156 32.5114 3.07156 23.2076C3.07156 13.9039 6.73649 8.12793 16.9634 8.12793C27.2251 8.12793 30.8552 13.9039 30.8552 23.2076C30.8552 32.5114 26.5969 38.2873 16.9634 38.2873ZM15.7068 25.4557C15.3578 25.94 16.4398 26.4242 16.8936 25.8362C17.8709 24.4527 18.1152 22.5851 18.1501 20.8557C18.185 20.0603 16.9634 20.0948 16.9285 20.6482C16.8237 22.343 16.5096 23.7956 15.7068 25.4557ZM47.2447 38.2873C36.1452 38.2873 32.8294 31.543 32.8294 23.2076C32.8294 14.9069 36.1452 8.12793 47.2447 8.12793C50.421 8.12793 53.0388 8.61214 54.9934 9.68432C57.7508 11.0678 57.8206 14.1114 56.5292 16.3941C55.2028 18.7806 52.5152 20.4407 49.7578 19.0573C49.1644 18.746 48.3267 18.5039 47.2447 18.5039C43.9288 18.5039 42.6374 20.7174 42.6374 23.173C42.6374 25.6979 43.9288 27.9114 47.2447 27.9114C48.3267 27.9114 49.1644 27.6693 49.7578 27.358C52.585 25.94 55.3424 27.7385 56.599 30.1941C57.8206 32.5114 57.6461 35.3475 54.9934 36.7655C53.0388 37.8031 50.421 38.2873 47.2447 38.2873ZM73.4227 38.2873C62.3232 38.2873 59.0073 31.543 59.0073 23.2076C59.0073 14.9069 62.3232 8.12793 73.4227 8.12793C76.599 8.12793 79.2168 8.61214 81.1714 9.68432C83.9288 11.0678 83.9986 14.1114 82.7072 16.3941C81.3808 18.7806 78.6932 20.4407 75.9358 19.0573C75.3424 18.746 74.5047 18.5039 73.4227 18.5039C70.1068 18.5039 68.8154 20.7174 68.8154 23.173C68.8154 25.6979 70.1068 27.9114 73.4227 27.9114C74.5047 27.9114 75.3424 27.6693 75.9358 27.358C78.763 25.94 81.5204 27.7385 82.777 30.1941C83.9986 32.5114 83.8241 35.3475 81.1714 36.7655C79.2168 37.8031 76.599 38.2873 73.4227 38.2873ZM130.172 38.3219C120.295 38.3219 117.677 31.8197 117.677 23.5535C117.677 19.9911 117.747 16.1866 117.886 12.7625C118.061 10.1339 120.015 8.47379 122.703 8.47379C125.391 8.47379 127.38 10.1339 127.52 12.7625C127.694 16.1866 127.764 19.9911 127.764 23.5535C127.764 25.5941 128.078 27.1851 130.172 27.1851C132.267 27.1851 132.581 25.5941 132.581 23.5535C132.581 19.9911 132.651 16.1866 132.825 12.7625C132.93 10.1339 134.954 8.47379 137.607 8.47379C140.295 8.47379 142.354 10.1339 142.459 12.7625C142.633 16.1866 142.703 19.9911 142.703 23.5535C142.703 31.8197 140.05 38.3219 130.172 38.3219ZM155.686 23.3806C155.651 26.4242 155.442 30.4708 155.128 33.4106C154.883 36.0046 153.417 38.0452 150.52 38.0452C147.554 38.0452 146.123 36.0046 145.878 33.4106C145.18 26.8392 145.18 19.6106 145.878 13.0738C146.123 10.5144 147.554 8.47379 150.52 8.47379C152.196 8.47379 153.383 9.13094 154.15 10.1685C157.292 14.1806 158.932 19.5069 161.655 23.9339C161.899 24.5219 162.632 24.1761 162.283 23.5189C161.55 22.0317 160.992 21.0287 160.259 19.7144C160.363 17.4317 160.503 14.9415 160.678 13.0738C161.027 10.5144 162.423 8.47379 165.355 8.47379C168.287 8.47379 169.683 10.5144 170.032 13.0738C170.695 19.6106 170.695 26.8392 170.032 33.4106C169.683 36.0046 168.287 38.0452 165.355 38.0452C163.33 38.0452 162.109 37.0076 161.306 35.5896C159.491 32.4076 157.78 26.9776 155.686 23.3806ZM180.009 20.164H177.705C174.355 20.164 172.156 17.8813 172.156 14.5264C172.156 11.0332 174.355 8.99259 177.705 8.75049C180.393 8.54297 182.697 8.47379 184.965 8.47379C187.199 8.47379 189.468 8.57755 192.051 8.75049C195.367 8.99259 197.601 11.1024 197.601 14.4573C197.601 17.8121 195.367 20.164 192.051 20.164H190.899C190.69 19.2302 190.341 18.158 190.061 17.3279C189.817 16.7054 188.875 16.9475 189.049 17.3971C190.585 22.0317 191.004 28.4648 190.76 32.373C190.48 35.2437 188.77 38.0452 184.896 38.0452C181.091 38.0452 179.241 35.2437 179.032 32.373C178.753 28.4648 178.997 24.3836 180.009 20.164Z" fill="black"/>
</mask>
<g mask="url(#mask1_1623_1453)">
<path d="M15.7068 25.4559L16.8429 26.26L16.9134 26.1622L16.9659 26.0537L15.7068 25.4559ZM16.8935 25.8364L18.0026 26.6767L18.0205 26.6536L18.0373 26.6297L16.8935 25.8364ZM18.1501 20.8559L16.7553 20.7958L16.7545 20.812L16.7542 20.8282L18.1501 20.8559ZM16.9285 20.6484L15.535 20.5621L15.5349 20.5639L16.9285 20.6484ZM16.9634 38.2875V36.904C12.4375 36.904 9.39875 35.5583 7.46221 33.333C5.49362 31.071 4.46772 27.6773 4.46772 23.2078H3.07156H1.6754C1.6754 28.0421 2.77866 32.1882 5.34758 35.1401C7.94856 38.1287 11.8557 39.6709 16.9634 39.6709V38.2875ZM3.07156 23.2078H4.46772C4.46772 18.6955 5.36357 15.3115 7.25449 13.0652C9.10228 10.8703 12.1171 9.51155 16.9634 9.51155V8.12809V6.74463C11.5827 6.74463 7.65166 8.27387 5.11027 11.2929C2.61201 14.2605 1.6754 18.4163 1.6754 23.2078H3.07156ZM16.9634 8.12809V9.51155C21.8285 9.51155 24.8419 10.871 26.6844 13.0642C28.5709 15.3095 29.459 18.6929 29.459 23.2078H30.8552H32.2513C32.2513 18.4189 31.3245 14.2624 28.8304 11.2939C26.2925 8.27311 22.36 6.74463 16.9634 6.74463V8.12809ZM30.8552 23.2078H29.459C29.459 27.6773 28.4331 31.071 26.4645 33.333C24.528 35.5583 21.4892 36.904 16.9634 36.904V38.2875V39.6709C22.071 39.6709 25.9782 38.1287 28.5791 35.1401C31.1481 32.1882 32.2513 28.0421 32.2513 23.2078H30.8552ZM15.7068 25.4559L14.5707 24.6518C14.1637 25.2163 14.143 25.9167 14.4655 26.4826C14.7322 26.9505 15.159 27.2103 15.4979 27.3395C16.1534 27.5892 17.2803 27.6127 18.0026 26.6767L16.8935 25.8364L15.7845 24.996C16.0531 24.648 16.4121 24.7233 16.5003 24.7569C16.5557 24.778 16.7491 24.8627 16.8969 25.122C16.9792 25.2665 17.0453 25.4675 17.0334 25.7041C17.0214 25.9429 16.9343 26.1332 16.8429 26.26L15.7068 25.4559ZM16.8935 25.8364L18.0373 26.6297C19.2677 24.8881 19.5101 22.6593 19.546 20.8836L18.1501 20.8559L16.7542 20.8282C16.7203 22.5112 16.4741 24.0177 15.7498 25.043L16.8935 25.8364ZM18.1501 20.8559L19.5449 20.916C19.5707 20.3289 19.3512 19.7795 18.9218 19.3898C18.5293 19.0336 18.0563 18.8941 17.6649 18.8664C17.2762 18.8389 16.8332 18.9109 16.4362 19.1401C16.0181 19.3815 15.5796 19.8562 15.535 20.5621L16.9285 20.6484L18.3219 20.7347C18.2948 21.1639 18.0221 21.4268 17.8418 21.5309C17.6825 21.6228 17.5493 21.6322 17.466 21.6263C17.38 21.6202 17.2081 21.5866 17.0359 21.4303C16.8268 21.2406 16.747 20.9852 16.7553 20.7958L18.1501 20.8559ZM16.9285 20.6484L15.5349 20.5639C15.4393 22.1108 15.1605 23.3841 14.4477 24.8581L15.7068 25.4559L16.9659 26.0537C17.8587 24.2074 18.2082 22.5755 18.322 20.7329L16.9285 20.6484ZM54.9934 9.68448L54.3173 10.8949L54.34 10.9072L54.3627 10.9187L54.9934 9.68448ZM56.5291 16.3943L55.3113 15.7177L55.3089 15.7223L55.3061 15.7269L56.5291 16.3943ZM49.7578 19.0574L49.1047 20.2801L49.1159 20.286L49.1271 20.2917L49.7578 19.0574ZM49.7578 27.3582L49.1274 26.1238L49.1159 26.1295L49.1047 26.1355L49.7578 27.3582ZM56.599 30.1943L55.3539 30.8199L55.3578 30.8274L55.3616 30.8348L56.599 30.1943ZM54.9934 36.7657L55.6527 37.9852L55.6562 37.9831L54.9934 36.7657ZM47.2447 38.2875V36.904C41.9944 36.904 38.845 35.3231 36.9623 33.0058C35.0325 30.6304 34.2256 27.2315 34.2256 23.2078H32.8294H31.4333C31.4333 27.5194 32.2844 31.6604 34.7873 34.741C37.3375 37.8797 41.3958 39.6709 47.2447 39.6709V38.2875ZM32.8294 23.2078H34.2256C34.2256 19.2025 35.0318 15.8025 36.963 13.4219C38.8468 11.0997 41.9969 9.51155 47.2447 9.51155V8.12809V6.74463C41.3934 6.74463 37.3358 8.546 34.7866 11.6884C32.2849 14.7725 31.4333 18.9123 31.4333 23.2078H32.8294ZM47.2447 8.12809V9.51155C50.3054 9.51155 52.6545 9.98275 54.3173 10.8949L54.9934 9.68448L55.6698 8.47409C53.423 7.24184 50.5368 6.74463 47.2447 6.74463V8.12809ZM54.9934 9.68448L54.3627 10.9187C55.3281 11.403 55.77 12.1243 55.9016 12.9249C56.0422 13.7784 55.8335 14.7949 55.3113 15.7177L56.5291 16.3943L57.747 17.0708C58.5166 15.7109 58.9187 14.0643 58.6576 12.4794C58.3881 10.8416 57.4164 9.3494 55.6241 8.45023L54.9934 9.68448ZM56.5291 16.3943L55.3061 15.7269C54.7599 16.7103 53.9599 17.4881 53.0953 17.8833C52.2702 18.2605 51.3581 18.3096 50.3885 17.8232L49.7578 19.0574L49.1271 20.2917C50.9152 21.1887 52.7253 21.0995 54.2649 20.3958C55.7651 19.7102 56.9724 18.4647 57.7522 17.0616L56.5291 16.3943ZM49.7578 19.0574L50.4112 17.8347C49.6028 17.4106 48.5382 17.1206 47.2447 17.1206V18.504V19.8875C48.1152 19.8875 48.7264 20.0817 49.1047 20.2801L49.7578 19.0574ZM47.2447 18.504V17.1206C45.2485 17.1206 43.6792 17.8021 42.6335 19.0222C41.6202 20.2044 41.2412 21.7257 41.2412 23.1732H42.6374H44.0335C44.0335 22.1651 44.3002 21.3518 44.762 20.8133C45.1909 20.3127 45.925 19.8875 47.2447 19.8875V18.504ZM42.6374 23.1732H41.2412C41.2412 24.6476 41.6164 26.1861 42.629 27.3795C43.6757 28.6129 45.2482 29.295 47.2447 29.295V27.9115V26.5281C45.9257 26.5281 45.1944 26.1034 44.7661 25.5989C44.304 25.0543 44.0335 24.2236 44.0335 23.1732H42.6374ZM47.2447 27.9115V29.295C48.5382 29.295 49.6028 29.005 50.4112 28.5808L49.7578 27.3582L49.1047 26.1355C48.7264 26.3339 48.1152 26.5281 47.2447 26.5281V27.9115ZM49.7578 27.3582L50.3885 28.5925C51.378 28.0962 52.3127 28.1602 53.156 28.5672C54.0391 28.9938 54.8398 29.8155 55.3539 30.8199L56.599 30.1943L57.8443 29.5686C57.1016 28.1173 55.8953 26.812 54.3791 26.0799C52.8223 25.3283 50.9651 25.2021 49.1274 26.1238L49.7578 27.3582ZM56.599 30.1943L55.3616 30.8348C55.8597 31.7799 56.03 32.7532 55.8768 33.5622C55.7323 34.3257 55.2876 35.0364 54.3305 35.5482L54.9934 36.7657L55.6562 37.9831C57.3518 37.077 58.3208 35.6606 58.6213 34.0722C58.9134 32.5293 58.5599 30.9259 57.8367 29.5537L56.599 30.1943ZM54.9934 36.7657L54.334 35.5462C52.6625 36.4337 50.3037 36.904 47.2447 36.904V38.2875V39.6709C50.5386 39.6709 53.415 39.1729 55.6527 37.9852L54.9934 36.7657ZM81.1714 9.68448L80.4953 10.8949L80.518 10.9072L80.5407 10.9187L81.1714 9.68448ZM82.7072 16.3943L81.4894 15.7177L81.4869 15.7223L81.4841 15.7269L82.7072 16.3943ZM75.9358 19.0574L75.2827 20.2801L75.2939 20.286L75.3051 20.2917L75.9358 19.0574ZM75.9358 27.3582L75.3054 26.1238L75.2939 26.1295L75.2827 26.1355L75.9358 27.3582ZM82.777 30.1943L81.5319 30.8199L81.5358 30.8274L81.5396 30.8348L82.777 30.1943ZM81.1714 36.7657L81.8307 37.9852L81.8342 37.9831L81.1714 36.7657ZM73.4227 38.2875V36.904C68.1724 36.904 65.023 35.3231 63.1403 33.0058C61.2105 30.6304 60.4035 27.2315 60.4035 23.2078H59.0073H57.6112C57.6112 27.5194 58.4625 31.6604 60.9651 34.741C63.5155 37.8797 67.5738 39.6709 73.4227 39.6709V38.2875ZM59.0073 23.2078H60.4035C60.4035 19.2025 61.2098 15.8025 63.141 13.4219C65.0248 11.0997 68.1749 9.51155 73.4227 9.51155V8.12809V6.74463C67.5714 6.74463 63.5138 8.546 60.9648 11.6884C58.4628 14.7725 57.6112 18.9123 57.6112 23.2078H59.0073ZM73.4227 8.12809V9.51155C76.4834 9.51155 78.8325 9.98275 80.4953 10.8949L81.1714 9.68448L81.8478 8.47409C79.6011 7.24184 76.7148 6.74463 73.4227 6.74463V8.12809ZM81.1714 9.68448L80.5407 10.9187C81.5061 11.403 81.948 12.1243 82.0796 12.9249C82.2202 13.7784 82.0115 14.7949 81.4894 15.7177L82.7072 16.3943L83.925 17.0708C84.6946 15.7109 85.0967 14.0643 84.8356 12.4794C84.5661 10.8416 83.5944 9.3494 81.8021 8.45023L81.1714 9.68448ZM82.7072 16.3943L81.4841 15.7269C80.9379 16.7103 80.1379 17.4881 79.2733 17.8833C78.4482 18.2605 77.5361 18.3096 76.5665 17.8232L75.9358 19.0574L75.3051 20.2917C77.0932 21.1887 78.9033 21.0995 80.4429 20.3958C81.9431 19.7102 83.1504 18.4647 83.9302 17.0616L82.7072 16.3943ZM75.9358 19.0574L76.5892 17.8347C75.7808 17.4106 74.7162 17.1206 73.4227 17.1206V18.504V19.8875C74.2932 19.8875 74.9044 20.0817 75.2827 20.2801L75.9358 19.0574ZM73.4227 18.504V17.1206C71.4265 17.1206 69.8572 17.8021 68.8115 19.0222C67.7983 20.2044 67.4192 21.7257 67.4192 23.1732H68.8154H70.2115C70.2115 22.1651 70.4782 21.3518 70.94 20.8133C71.3689 20.3127 72.103 19.8875 73.4227 19.8875V18.504ZM68.8154 23.1732H67.4192C67.4192 24.6476 67.7944 26.1861 68.807 27.3795C69.8538 28.6129 71.4262 29.295 73.4227 29.295V27.9115V26.5281C72.1037 26.5281 71.3724 26.1034 70.9442 25.5989C70.482 25.0543 70.2115 24.2236 70.2115 23.1732H68.8154ZM73.4227 27.9115V29.295C74.7162 29.295 75.7808 29.005 76.5892 28.5808L75.9358 27.3582L75.2827 26.1355C74.9044 26.3339 74.2932 26.5281 73.4227 26.5281V27.9115ZM75.9358 27.3582L76.5665 28.5925C77.556 28.0962 78.4908 28.1602 79.334 28.5672C80.2171 28.9938 81.0178 29.8155 81.5319 30.8199L82.777 30.1943L84.0223 29.5686C83.2796 28.1173 82.0733 26.812 80.5571 26.0799C79.0004 25.3283 77.1431 25.2021 75.3054 26.1238L75.9358 27.3582ZM82.777 30.1943L81.5396 30.8348C82.0377 31.7799 82.208 32.7532 82.0548 33.5622C81.9103 34.3257 81.4656 35.0364 80.5086 35.5482L81.1714 36.7657L81.8342 37.9831C83.5298 37.077 84.4988 35.6606 84.7993 34.0722C85.0914 32.5293 84.7379 30.9259 84.0147 29.5537L82.777 30.1943ZM81.1714 36.7657L80.512 35.5462C78.8405 36.4337 76.4817 36.904 73.4227 36.904V38.2875V39.6709C76.7166 39.6709 79.593 39.1729 81.8307 37.9852L81.1714 36.7657ZM117.886 12.7627L116.493 12.6719L116.492 12.6893L116.491 12.7068L117.886 12.7627ZM127.52 12.7627L128.914 12.6929L128.914 12.69L127.52 12.7627ZM132.825 12.7627L134.22 12.8325L134.22 12.8249L134.22 12.8173L132.825 12.7627ZM142.459 12.7627L141.064 12.8173L141.064 12.8249L141.064 12.8325L142.459 12.7627ZM130.172 38.3221V36.9386C125.576 36.9386 122.931 35.45 121.362 33.2412C119.723 30.9339 119.073 27.5923 119.073 23.5536H117.677H116.281C116.281 27.7811 116.94 31.8238 119.079 34.834C121.288 37.943 124.891 39.7055 130.172 39.7055V38.3221ZM117.677 23.5536H119.073C119.073 20.0075 119.142 16.2218 119.281 12.8185L117.886 12.7627L116.491 12.7068C116.351 16.1517 116.281 19.975 116.281 23.5536H117.677ZM117.886 12.7627L119.279 12.8535C119.345 11.8718 119.729 11.15 120.278 10.6678C120.835 10.1792 121.651 9.85741 122.703 9.85741V8.47395V7.09049C121.067 7.09049 119.563 7.59878 118.426 8.59743C117.282 9.6024 116.602 11.025 116.493 12.6719L117.886 12.7627ZM122.703 8.47395V9.85741C123.757 9.85741 124.583 10.1803 125.143 10.6701C125.694 11.1516 126.074 11.867 126.125 12.8354L127.52 12.7627L128.914 12.69C128.826 11.0298 128.141 9.60085 126.99 8.59507C125.849 7.5977 124.336 7.09049 122.703 7.09049V8.47395ZM127.52 12.7627L126.125 12.8325C126.298 16.2266 126.368 20.0067 126.368 23.5536H127.764H129.16C129.16 19.9757 129.09 16.1468 128.914 12.6929L127.52 12.7627ZM127.764 23.5536H126.368C126.368 24.5715 126.431 25.7887 126.942 26.7696C127.219 27.3003 127.633 27.7781 128.227 28.1098C128.809 28.4354 129.473 28.5687 130.172 28.5687V27.1852V25.8018C129.825 25.8018 129.664 25.7362 129.598 25.6997C129.544 25.6693 129.487 25.6219 129.423 25.4997C129.254 25.175 129.16 24.5764 129.16 23.5536H127.764ZM130.172 27.1852V28.5687C130.872 28.5687 131.535 28.4354 132.118 28.1098C132.712 27.7781 133.126 27.3003 133.402 26.7696C133.914 25.7887 133.977 24.5715 133.977 23.5536H132.581H131.185C131.185 24.5764 131.091 25.175 130.921 25.4997C130.858 25.6219 130.801 25.6693 130.746 25.6997C130.681 25.7362 130.52 25.8018 130.172 25.8018V27.1852ZM132.581 23.5536H133.977C133.977 20.0067 134.046 16.2266 134.22 12.8325L132.825 12.7627L131.431 12.6929C131.254 16.1468 131.185 19.9757 131.185 23.5536H132.581ZM132.825 12.7627L134.22 12.8173C134.258 11.8618 134.633 11.1515 135.184 10.6701C135.746 10.1788 136.573 9.85741 137.607 9.85741V8.47395V7.09049C135.988 7.09049 134.476 7.59919 133.337 8.59507C132.186 9.60095 131.497 11.0349 131.43 12.7081L132.825 12.7627ZM137.607 8.47395V9.85741C138.663 9.85741 139.511 10.1819 140.086 10.677C140.648 11.161 141.026 11.8698 141.064 12.8173L142.459 12.7627L143.854 12.7081C143.787 11.027 143.082 9.59144 141.917 8.58819C140.764 7.59604 139.238 7.09049 137.607 7.09049V8.47395ZM142.459 12.7627L141.064 12.8325C141.237 16.2266 141.307 20.0067 141.307 23.5536H142.703H144.099C144.099 19.9757 144.029 16.1468 143.853 12.6929L142.459 12.7627ZM142.703 23.5536H141.307C141.307 27.5897 140.649 30.9311 139.002 33.2388C137.424 35.4497 134.769 36.9386 130.172 36.9386V38.3221V39.7055C135.454 39.7055 139.064 37.9433 141.282 34.8364C143.43 31.8266 144.099 27.7838 144.099 23.5536H142.703ZM155.686 23.3807L156.895 22.6894L154.348 18.3139L154.29 23.365L155.686 23.3807ZM155.128 33.4108L153.739 33.2651L153.738 33.2737L153.738 33.2822L155.128 33.4108ZM145.878 33.4108L147.268 33.2822L147.267 33.2741L147.267 33.266L145.878 33.4108ZM145.878 13.074L147.266 13.2195L147.267 13.2119L147.268 13.2042L145.878 13.074ZM154.15 10.1687L153.024 10.9868L153.036 11.0019L153.047 11.0167L154.15 10.1687ZM161.655 23.9341L162.946 23.4074L162.904 23.3069L162.847 23.2142L161.655 23.9341ZM162.283 23.5191L161.028 24.1262L161.038 24.1449L161.047 24.1634L162.283 23.5191ZM160.259 19.7146L158.864 19.6517L158.846 20.0419L159.037 20.3837L160.259 19.7146ZM160.677 13.074L159.294 12.8887L159.29 12.9175L159.287 12.9464L160.677 13.074ZM170.032 13.074L171.421 12.9356L171.419 12.9121L171.415 12.8887L170.032 13.074ZM170.032 33.4108L171.416 33.5937L171.419 33.5711L171.421 33.5484L170.032 33.4108ZM161.306 35.5897L162.523 34.9129L162.521 34.9091L161.306 35.5897ZM155.686 23.3807L154.29 23.365C154.255 26.3738 154.048 30.3762 153.739 33.2651L155.128 33.4108L156.516 33.5565C156.836 30.5657 157.047 26.4749 157.082 23.3964L155.686 23.3807ZM155.128 33.4108L153.738 33.2822C153.635 34.374 153.285 35.221 152.782 35.7744C152.308 36.295 151.606 36.6619 150.52 36.6619V38.0454V39.4288C152.332 39.4288 153.811 38.7755 154.855 37.6272C155.871 36.5118 156.376 35.0415 156.518 33.5394L155.128 33.4108ZM150.52 38.0454V36.6619C149.391 36.6619 148.683 36.2891 148.215 35.7744C147.716 35.2252 147.372 34.3814 147.268 33.2822L145.878 33.4108L144.488 33.5394C144.629 35.0343 145.123 36.5077 146.141 37.6272C147.192 38.7814 148.683 39.4288 150.52 39.4288V38.0454ZM145.878 33.4108L147.267 33.266C146.579 26.7906 146.579 19.6594 147.266 13.2195L145.878 13.074L144.49 12.9284C143.781 19.5622 143.781 26.8882 144.49 33.5556L145.878 33.4108ZM145.878 13.074L147.268 13.2042C147.371 12.1252 147.713 11.2895 148.213 10.7432C148.681 10.2307 149.391 9.85741 150.52 9.85741V8.47395V7.09049C148.683 7.09049 147.193 7.7375 146.144 8.88515C145.125 9.99897 144.629 11.4633 144.488 12.9437L145.878 13.074ZM150.52 8.47395V9.85741C151.775 9.85741 152.533 10.323 153.024 10.9868L154.15 10.1687L155.276 9.35055C154.232 7.93914 152.617 7.09049 150.52 7.09049V8.47395ZM154.15 10.1687L153.047 11.0167C154.517 12.8937 155.658 15.108 156.798 17.489C157.918 19.8276 159.052 22.3607 160.462 24.654L161.655 23.9341L162.847 23.2142C161.535 21.0804 160.487 18.7369 159.321 16.3025C158.175 13.9106 156.925 11.4557 155.253 9.32063L154.15 10.1687ZM161.655 23.9341L160.364 24.4609C160.538 24.8802 160.867 25.2817 161.372 25.4882C161.872 25.6932 162.425 25.6513 162.877 25.3985C163.895 24.8296 163.934 23.6563 163.518 22.8747L162.283 23.5191L161.047 24.1634C161.019 24.1087 160.945 23.9301 160.998 23.6713C161.051 23.4103 161.221 23.1474 161.505 22.9885C161.787 22.8308 162.133 22.8062 162.438 22.9312C162.747 23.0578 162.894 23.282 162.946 23.4074L161.655 23.9341ZM162.283 23.5191L163.538 22.912C162.788 21.3909 162.215 20.3616 161.481 19.0454L160.259 19.7146L159.037 20.3837C159.769 21.6961 160.312 22.6728 161.028 24.1262L162.283 23.5191ZM160.259 19.7146L161.653 19.7774C161.758 17.4981 161.896 15.035 162.068 13.2015L160.677 13.074L159.287 12.9464C159.11 14.8482 158.969 17.3655 158.864 19.6517L160.259 19.7146ZM160.677 13.074L162.061 13.2592C162.212 12.154 162.572 11.3006 163.082 10.7432C163.556 10.2246 164.252 9.85741 165.355 9.85741V8.47395V7.09049C163.526 7.09049 162.057 7.74362 161.013 8.88515C160.004 9.98791 159.492 11.4346 159.294 12.8887L160.677 13.074ZM165.355 8.47395V9.85741C166.458 9.85741 167.153 10.2246 167.627 10.7432C168.137 11.3006 168.497 12.154 168.648 13.2592L170.032 13.074L171.415 12.8887C171.217 11.4346 170.705 9.98791 169.696 8.88515C168.652 7.74362 167.184 7.09049 165.355 7.09049V8.47395ZM170.032 13.074L168.643 13.2123C169.296 19.6569 169.296 26.793 168.642 33.2731L170.032 33.4108L171.421 33.5484C172.093 26.8857 172.093 19.5647 171.421 12.9356L170.032 13.074ZM170.032 33.4108L168.648 33.2279C168.496 34.3528 168.134 35.2141 167.625 35.7744C167.151 36.295 166.457 36.6619 165.355 36.6619V38.0454V39.4288C167.184 39.4288 168.654 38.7755 169.698 37.6272C170.707 36.5187 171.218 35.0626 171.416 33.5937L170.032 33.4108ZM165.355 38.0454V36.6619C164.599 36.6619 164.061 36.4731 163.648 36.1995C163.221 35.9162 162.85 35.4905 162.523 34.9129L161.306 35.5897L160.088 36.2666C160.564 37.107 161.205 37.9091 162.096 38.4992C163 39.0989 164.086 39.4288 165.355 39.4288V38.0454ZM161.306 35.5897L162.521 34.9091C161.667 33.4109 160.822 31.3542 159.891 29.1141C158.983 26.9264 157.997 24.5816 156.895 22.6894L155.686 23.3807L154.477 24.0721C155.469 25.7768 156.386 27.9456 157.31 30.1676C158.211 32.3373 159.13 34.5867 160.09 36.2704L161.306 35.5897ZM180.009 20.1642L181.367 20.4841L181.776 18.7807H180.009V20.1642ZM177.705 8.75064L177.807 10.1304L177.81 10.1302L177.814 10.1299L177.705 8.75064ZM192.051 8.75064L192.154 7.37092L192.149 7.37061L192.145 7.37033L192.051 8.75064ZM190.899 20.1642L189.536 20.4643L189.779 21.5476H190.899V20.1642ZM190.061 17.3281L191.386 16.8906L191.375 16.8583L191.363 16.8267L190.061 17.3281ZM189.049 17.3973L190.376 16.9657L190.365 16.9329L190.352 16.9006L189.049 17.3973ZM190.76 32.3732L192.149 32.5059L192.151 32.4824L192.153 32.4587L190.76 32.3732ZM179.032 32.3732L177.639 32.4709V32.4729L179.032 32.3732ZM180.009 20.1642V18.7807H177.705V20.1642V21.5476H180.009V20.1642ZM177.705 20.1642V18.7807C176.361 18.7807 175.351 18.3301 174.676 17.6405C173.997 16.9465 173.552 15.901 173.552 14.5266H172.156H170.76C170.76 16.507 171.413 18.2804 172.672 19.5664C173.934 20.8569 175.699 21.5476 177.705 21.5476V20.1642ZM172.156 14.5266H173.552C173.552 13.0784 174 12.0649 174.67 11.3889C175.35 10.7031 176.39 10.2328 177.807 10.1304L177.705 8.75064L177.604 7.37085C175.67 7.51058 173.935 8.18163 172.678 9.44995C171.411 10.7282 170.76 12.4815 170.76 14.5266H172.156ZM177.705 8.75064L177.814 10.1299C180.461 9.92551 182.728 9.85741 184.965 9.85741V8.47395V7.09049C182.665 7.09049 180.325 7.16074 177.597 7.37137L177.705 8.75064ZM184.965 8.47395V9.85741C187.156 9.85741 189.39 9.95913 191.957 10.131L192.051 8.75064L192.145 7.37033C189.546 7.19629 187.243 7.09049 184.965 7.09049V8.47395ZM192.051 8.75064L191.948 10.1304C193.334 10.2315 194.382 10.7119 195.075 11.4084C195.76 12.0957 196.205 13.0979 196.205 14.4574H197.601H198.997C198.997 12.462 198.325 10.7319 197.063 9.46503C195.811 8.20743 194.084 7.51186 192.154 7.37092L192.051 8.75064ZM197.601 14.4574H196.205C196.205 15.8274 195.753 16.8958 195.061 17.6123C194.374 18.3233 193.362 18.7807 192.051 18.7807V20.1642V21.5476C194.055 21.5476 195.819 20.8291 197.078 19.5254C198.332 18.2273 198.997 16.4423 198.997 14.4574H197.601ZM192.051 20.1642V18.7807H190.899V20.1642V21.5476H192.051V20.1642ZM190.899 20.1642L192.262 19.8641C192.035 18.8526 191.665 17.7189 191.386 16.8906L190.061 17.3281L188.737 17.7656C189.017 18.5974 189.344 19.6081 189.536 20.4643L190.899 20.1642ZM190.061 17.3281L191.363 16.8267C190.946 15.7645 189.904 15.4788 189.177 15.5947C188.821 15.6514 188.384 15.82 188.051 16.1956C187.663 16.6325 187.504 17.2698 187.746 17.8939L189.049 17.3973L190.352 16.9006C190.416 17.0664 190.448 17.2772 190.403 17.5048C190.359 17.7277 190.255 17.9018 190.148 18.0228C189.95 18.246 189.732 18.3088 189.62 18.3265C189.38 18.3646 188.933 18.2691 188.76 17.8295L190.061 17.3281ZM189.049 17.3973L187.723 17.8289C189.187 22.2483 189.603 28.4949 189.366 32.2877L190.76 32.3732L192.153 32.4587C192.405 28.4349 191.983 21.8154 190.376 16.9657L189.049 17.3973ZM190.76 32.3732L189.37 32.2405C189.25 33.4697 188.831 34.5844 188.131 35.3684C187.463 36.1155 186.455 36.6619 184.896 36.6619V38.0454V39.4288C187.21 39.4288 188.995 38.5746 190.221 37.2032C191.414 35.8689 191.99 34.1474 192.149 32.5059L190.76 32.3732ZM184.896 38.0454V36.6619C183.373 36.6619 182.342 36.1168 181.652 35.3591C180.935 34.5717 180.511 33.4648 180.424 32.2735L179.032 32.3732L177.639 32.4729C177.762 34.1523 178.367 35.8817 179.579 37.2125C180.817 38.5732 182.613 39.4288 184.896 39.4288V38.0454ZM179.032 32.3732L180.424 32.2755C180.154 28.4937 180.391 24.5543 181.367 20.4841L180.009 20.1642L178.651 19.8443C177.603 24.2132 177.351 28.4362 177.639 32.4709L179.032 32.3732Z" fill="#111111"/>
</g>
<mask id="mask2_1623_1453" style="mask-type:luminance" maskUnits="userSpaceOnUse" x="83" y="3" width="34" height="40">
<path d="M116.208 4.9786L84.8168 3.80469L83.3951 41.1315L114.786 42.3054L116.208 4.9786Z" fill="white"/>
</mask>
<g mask="url(#mask2_1623_1453)">
<path d="M99.2464 37.6325C107.59 37.9445 114.605 31.5802 114.916 23.4174C115.227 15.2547 108.716 8.38453 100.372 8.07252C92.029 7.76052 85.0133 14.1248 84.7026 22.2875C84.3917 30.4503 90.9033 37.3205 99.2464 37.6325Z" fill="white"/>
<path fill-rule="evenodd" clip-rule="evenodd" d="M100.361 8.36062C92.1805 8.0547 85.3016 14.295 84.9969 22.2987C84.6918 30.3024 91.0765 37.0385 99.2573 37.3446C107.438 37.6507 114.317 31.4102 114.622 23.4066C114.927 15.4028 108.542 8.66657 100.361 8.36062ZM84.408 22.2767C84.725 13.9548 91.8772 7.46656 100.383 7.78465C108.889 8.10274 115.527 15.1067 115.21 23.4286C114.894 31.7504 107.741 38.2387 99.2353 37.9205C90.7295 37.6026 84.0911 30.5985 84.408 22.2767Z" fill="#111111"/>
<path d="M94.2946 36.6916C94.1288 38.4157 95.2545 40.1305 96.4754 40.7299C98.2004 41.5731 100.531 40.4432 101.485 37.6756C99.6245 37.9291 96.7082 37.7105 94.3005 36.686" fill="#F49E15"/>
<path fill-rule="evenodd" clip-rule="evenodd" d="M93.8887 36.2729C94.0548 36.1145 94.3086 36.0612 94.5348 36.1574C96.8325 37.1351 99.6374 37.3451 101.403 37.1047C101.605 37.077 101.808 37.1542 101.938 37.3081C102.068 37.462 102.108 37.6712 102.043 37.8604C101.03 40.7992 98.3938 42.3124 96.2119 41.2457L96.2112 41.245C95.4747 40.8836 94.8091 40.2123 94.3508 39.4147C93.8897 38.6127 93.6112 37.6363 93.7075 36.6371C93.7215 36.4925 93.7889 36.3652 93.8887 36.2729ZM94.9065 37.5356C94.9784 37.9956 95.1445 38.4449 95.3777 38.8503C95.7459 39.4908 96.2538 39.9768 96.7383 40.2147C97.8562 40.7608 99.563 40.2445 100.565 38.3346C98.9124 38.409 96.8189 38.1886 94.9065 37.5356Z" fill="#111111"/>
<path d="M91.1721 34.3077C93.1784 34.3827 94.8653 32.8524 94.94 30.8897C95.0147 28.9269 93.4489 27.2749 91.4429 27.1999C89.4367 27.1249 87.7497 28.6552 87.6751 30.618C87.6004 32.5807 89.1658 34.2327 91.1721 34.3077Z" fill="#F3A89F"/>
<path fill-rule="evenodd" clip-rule="evenodd" d="M89.193 6.90399C89.2314 6.5879 89.5246 6.36233 89.8475 6.40013L89.7784 6.97247C89.8475 6.40013 89.8475 6.4001 89.8475 6.40013L89.8496 6.40037L89.8527 6.40072L89.8621 6.4019C89.8698 6.4029 89.8803 6.40425 89.8932 6.40605C89.9197 6.40968 89.9564 6.41504 90.0028 6.42247C90.0953 6.43735 90.2258 6.46059 90.3843 6.4949C90.7002 6.56321 91.1337 6.67658 91.6028 6.85771C92.5225 7.21274 93.6775 7.86636 94.2688 9.04783C94.4122 9.33379 94.2911 9.679 93.999 9.81883C93.7068 9.9586 93.354 9.84014 93.2108 9.55407C92.8105 8.75461 91.9847 8.24401 91.1714 7.93C90.7742 7.77664 90.4032 7.67931 90.1313 7.62055C89.9958 7.59129 89.8866 7.57192 89.8126 7.56002C89.7759 7.55411 89.748 7.55006 89.7302 7.54764L89.7114 7.54512L89.7089 7.54481C89.3857 7.50683 89.155 7.21997 89.193 6.90399Z" fill="#111111"/>
<path fill-rule="evenodd" clip-rule="evenodd" d="M93.8796 4.14647C94.2042 4.12821 94.4831 4.37104 94.5019 4.68886L94.7648 9.08822C94.7839 9.40604 94.5358 9.67851 94.2112 9.69677C93.8862 9.71507 93.6077 9.4722 93.5885 9.15442L93.3257 4.75502C93.3068 4.43721 93.5546 4.16477 93.8796 4.14647Z" fill="#111111"/>
<path d="M94.1173 28.5C94.7285 28.5229 95.2426 28.0566 95.2653 27.4586C95.288 26.8605 94.8108 26.3572 94.1997 26.3343C93.5885 26.3114 93.0744 26.7777 93.0517 27.3758C93.029 27.9738 93.5058 28.4772 94.1173 28.5Z" fill="#111111"/>
<path d="M108.105 33.9723C110.111 34.0473 111.798 32.5169 111.873 30.5542C111.948 28.5915 110.382 26.9395 108.376 26.8645C106.37 26.7894 104.683 28.3198 104.608 30.2825C104.533 32.2452 106.099 33.8972 108.105 33.9723Z" fill="#F3A89F"/>
<path d="M104.819 28.7847C105.365 28.8051 105.825 28.3885 105.845 27.854C105.865 27.3196 105.439 26.8698 104.893 26.8494C104.347 26.8289 103.887 27.2456 103.867 27.78C103.846 28.3145 104.273 28.7642 104.819 28.7847Z" fill="#111111"/>
<path fill-rule="evenodd" clip-rule="evenodd" d="M100.35 8.6483C92.3323 8.34843 85.5899 14.4647 85.2911 22.3093C84.9923 30.154 91.2503 36.7564 99.2684 37.0563C107.287 37.3562 114.029 31.2399 114.327 23.3952C114.626 15.5505 108.369 8.94813 100.35 8.6483ZM84.1138 22.2653C84.4367 13.7845 91.7257 7.17215 100.394 7.49629C109.062 7.82047 115.828 14.9584 115.505 23.4392C115.182 31.9201 107.893 38.5325 99.2245 38.2084C90.556 37.884 83.7906 30.7462 84.1138 22.2653Z" fill="#111111"/>
</g>
</g>
</svg>
