<svg width="256" height="69" viewBox="0 0 256 69" fill="none" xmlns="http://www.w3.org/2000/svg">
<path d="M28.7595 61.1177C43.6258 61.1177 55.6773 49.0662 55.6773 34.2C55.6773 19.3337 43.6258 7.28223 28.7595 7.28223C13.8933 7.28223 1.8418 19.3337 1.8418 34.2C1.8418 49.0662 13.8933 61.1177 28.7595 61.1177Z" fill="white"/>
<path fill-rule="evenodd" clip-rule="evenodd" d="M28.7596 7.80658C14.183 7.80658 2.3664 19.6232 2.3664 34.1998C2.3664 48.7764 14.183 60.593 28.7596 60.593C43.3362 60.593 55.1529 48.7764 55.1529 34.1998C55.1529 19.6232 43.3362 7.80658 28.7596 7.80658ZM1.31738 34.1998C1.31738 19.0439 13.6037 6.75757 28.7596 6.75757C43.9156 6.75757 56.2019 19.0439 56.2019 34.1998C56.2019 49.3557 43.9156 61.6421 28.7596 61.6421C13.6037 61.6421 1.31738 49.3557 1.31738 34.1998Z" fill="black"/>
<path d="M19.8855 59.7434C19.7072 62.8904 21.8262 65.9326 24.0396 66.9396C27.1657 68.3558 31.2359 66.1424 32.7464 61.0442C29.4525 61.6316 24.2494 61.4323 19.896 59.7329" fill="#F49E15"/>
<path fill-rule="evenodd" clip-rule="evenodd" d="M19.1341 59.0095C19.419 58.7103 19.867 58.596 20.2757 58.7556C24.4303 60.3774 29.4356 60.5686 32.5605 60.0113C32.9186 59.9475 33.2842 60.0736 33.5267 60.3448C33.7691 60.6159 33.8538 60.9933 33.7505 61.3421C32.1465 66.7554 27.5595 69.6865 23.605 67.895L23.6034 67.8943C22.2686 67.287 21.0391 66.1113 20.1694 64.6919C19.2948 63.2644 18.7331 61.5078 18.8364 59.6839C18.8514 59.4201 18.9626 59.1845 19.1341 59.0095ZM21.0308 61.2369C21.1898 62.0688 21.5162 62.8742 21.9584 63.5958C22.6568 64.7357 23.5931 65.5844 24.4715 65.9843C26.4977 66.9016 29.4999 65.8466 31.1528 62.3048C28.2174 62.5527 24.4779 62.2944 21.0308 61.2369Z" fill="black"/>
<path d="M14.1677 55.6204C17.7424 55.6204 20.6402 52.7226 20.6402 49.148C20.6402 45.5733 17.7424 42.6755 14.1677 42.6755C10.5931 42.6755 7.69531 45.5733 7.69531 49.148C7.69531 52.7226 10.5931 55.6204 14.1677 55.6204Z" fill="#F3A89F"/>
<path fill-rule="evenodd" clip-rule="evenodd" d="M8.78961 5.91772C8.8364 5.34026 9.34246 4.91006 9.91992 4.95685L9.8352 6.00244C9.91992 4.95685 9.91956 4.95682 9.91992 4.95685L9.92349 4.95715L9.92901 4.95761L9.9458 4.95911C9.95952 4.96036 9.97826 4.96214 10.0017 4.96453C10.0487 4.96932 10.1147 4.97657 10.1975 4.98696C10.3631 5.00772 10.5968 5.04112 10.8813 5.09268C11.4483 5.19542 12.2271 5.37214 13.0742 5.66964C14.7345 6.25278 16.8337 7.36294 17.9661 9.47136C18.2402 9.98176 18.0487 10.6177 17.5383 10.8919C17.0279 11.166 16.3919 10.9745 16.1178 10.4641C15.3515 9.03731 13.8473 8.16484 12.3789 7.64913C11.6616 7.39721 10.9948 7.24545 10.5072 7.15708C10.2644 7.11308 10.0686 7.08526 9.93647 7.06869C9.87047 7.06041 9.82056 7.05497 9.78882 7.05173L9.75517 7.04846L9.75048 7.04803C9.17331 7.00094 8.74284 6.49499 8.78961 5.91772Z" fill="black"/>
<path fill-rule="evenodd" clip-rule="evenodd" d="M16.9411 0.583724C17.5178 0.528403 18.0302 0.95107 18.0855 1.52778L18.8513 9.51079C18.9066 10.0875 18.4839 10.5999 17.9072 10.6552C17.3305 10.7105 16.8182 10.2878 16.7628 9.71112L15.9971 1.72811C15.9417 1.15141 16.3644 0.639046 16.9411 0.583724Z" fill="black"/>
<path d="M19.0141 44.8576C20.1033 44.8576 20.9863 43.9747 20.9863 42.8855C20.9863 41.7963 20.1033 40.9133 19.0141 40.9133C17.925 40.9133 17.042 41.7963 17.042 42.8855C17.042 43.9747 17.925 44.8576 19.0141 44.8576Z" fill="black"/>
<path d="M44.2742 53.8582C47.8488 53.8582 50.7466 50.9604 50.7466 47.3858C50.7466 43.8111 47.8488 40.9133 44.2742 40.9133C40.6996 40.9133 37.8018 43.8111 37.8018 47.3858C37.8018 50.9604 40.6996 53.8582 44.2742 53.8582Z" fill="#F3A89F"/>
<path d="M38.0758 44.6481C39.0491 44.6481 39.8382 43.8591 39.8382 42.8858C39.8382 41.9124 39.0491 41.1234 38.0758 41.1234C37.1025 41.1234 36.3135 41.9124 36.3135 42.8858C36.3135 43.8591 37.1025 44.6481 38.0758 44.6481Z" fill="black"/>
<path fill-rule="evenodd" clip-rule="evenodd" d="M28.7597 8.33094C14.4728 8.33094 2.891 19.9128 2.891 34.1997C2.891 48.4866 14.4728 60.0684 28.7597 60.0684C43.0466 60.0684 54.6284 48.4866 54.6284 34.1997C54.6284 19.9128 43.0466 8.33094 28.7597 8.33094ZM0.792969 34.1997C0.792969 18.7541 13.3141 6.23291 28.7597 6.23291C44.2053 6.23291 56.7265 18.7541 56.7265 34.1997C56.7265 49.6453 44.2053 62.1664 28.7597 62.1664C13.3141 62.1664 0.792969 49.6453 0.792969 34.1997Z" fill="black"/>
<mask id="path-12-outside-1_1063_3910" maskUnits="userSpaceOnUse" x="71.7266" y="10" width="183" height="50" fill="black">
<rect fill="white" x="71.7266" y="10" width="183" height="50"/>
<path d="M83.0946 43.944C76.8546 42.456 74.1666 38.136 74.1666 32.568C74.1666 28.104 75.6066 25.176 77.6226 23.928C75.7026 23.352 74.7426 22.2 74.7426 20.664C74.7426 17.352 78.8226 16.968 81.3666 16.968C80.7906 16.44 80.6466 15.912 80.6466 15.336C80.6466 13.272 83.6226 12.216 87.8946 12.216C92.1666 12.216 95.0946 13.272 95.0946 15.336C95.0946 15.912 94.9506 16.392 94.4706 16.92C95.2386 16.968 96.0546 16.968 96.7746 17.016C100.327 17.16 102.055 18.6 102.055 20.664C102.055 22.2 101.095 23.352 99.1746 23.928C101.143 25.176 102.583 28.152 102.583 32.568C102.583 38.04 99.9426 42.36 93.8466 43.896V45.432C95.7666 45.336 97.4466 45.24 98.6466 45.096C101.143 44.712 102.535 46.776 102.535 49.56C102.535 52.728 101.143 54.792 98.6466 55.128C94.0866 55.752 82.2786 55.752 78.0066 55.176C75.5106 54.84 74.1186 52.728 74.1186 49.56C74.1186 46.776 75.5106 44.808 78.0066 45.192C79.2066 45.336 81.0306 45.432 83.0946 45.48V43.944ZM109.351 56.952C105.463 56.952 102.871 54.744 103.447 50.424C104.551 40.104 104.551 29.736 103.447 19.848C102.871 15.096 105.463 12.84 109.351 12.84C112.759 12.84 115.159 14.76 115.591 18.696C116.599 29.064 116.599 40.776 115.591 51.192C115.159 55.032 112.759 56.952 109.351 56.952ZM87.6546 34.968C87.6546 35.784 89.1426 35.784 89.1426 34.968V29.688C89.1426 28.872 87.6546 28.872 87.6546 29.688V34.968ZM148.48 39.144C149.056 33.144 148.96 24.12 148.336 19.176C147.808 14.808 150.352 12.888 154.24 12.888C157.6 12.888 159.952 14.568 160.384 18.12C161.248 24.072 161.248 35.352 160.384 41.304C159.952 44.808 157.6 46.44 154.24 46.44H144.592C142.48 46.44 141.136 45.432 141.136 42.84C141.136 40.2 142.48 39.048 144.592 39.096L148.48 39.144ZM120.496 22.104C120.496 16.872 123.616 12.888 133.888 12.888C144.208 12.888 147.184 16.824 147.184 22.104C147.184 27.336 143.728 31.368 133.888 31.368C124.048 31.368 120.496 27.288 120.496 22.104ZM132.88 23.976C132.88 24.792 134.8 24.792 134.8 23.976V19.8C134.8 18.984 132.88 18.984 132.88 19.8V23.976ZM127.36 38.904C126.064 38.856 124.912 38.808 124.048 38.712C121.504 38.472 120.16 37.128 120.16 34.92C120.16 32.904 121.504 31.656 124.048 31.896C128.272 32.28 138.688 32.28 143.2 31.848C145.696 31.656 147.376 32.904 147.376 34.92C147.376 37.128 145.936 38.472 143.392 38.664C142.24 38.76 140.704 38.856 138.976 38.904V41.544C138.976 44.424 138.016 45.192 134.272 45.288C134.56 45.624 134.8 46.008 134.992 46.44C135.856 48.552 135.28 50.616 133.84 51.816C133.264 52.344 133.696 53.064 134.464 52.632C139.6 49.896 147.28 47.208 154.48 47.208C158.032 47.208 161.2 47.976 161.536 50.712C161.968 53.688 159.952 55.512 154.336 56.136C148.336 56.808 138.448 56.904 129.424 56.424C123.76 56.088 120.88 53.592 120.88 50.04C120.88 45.864 123.232 43.848 126.304 43.368C126.688 43.32 127.12 43.272 127.552 43.224C127.408 42.744 127.36 42.216 127.36 41.544V38.904ZM204.745 42.696C204.601 45.576 204.409 48.456 204.121 51.24C203.737 55.08 201.337 57 197.977 57C194.089 57 191.497 54.792 191.929 50.472C193.177 40.152 193.177 29.784 191.977 19.896C191.497 15.144 194.089 12.888 197.977 12.888C201.337 12.888 203.737 14.808 204.121 18.744C204.361 21 204.505 23.256 204.649 25.608L206.041 25.464C208.249 25.08 209.545 27.72 209.545 34.104C209.545 40.536 208.249 43.128 206.041 42.888L204.745 42.696ZM169.081 43.8C169.561 36.312 176.377 29.592 182.905 25.992C183.769 25.512 182.905 24.024 182.089 24.6C179.401 26.568 175.801 28.104 172.393 28.344C168.841 28.68 164.857 26.76 164.281 23.256C163.657 19.512 166.009 17.064 169.513 15.768C172.393 14.712 175.801 14.376 180.025 14.376C186.649 14.376 189.625 17.928 190.633 23.304C191.833 30.072 191.641 39.432 189.961 46.392C188.665 51.816 184.921 55.752 178.249 55.272C172.489 54.888 168.697 50.52 169.081 43.8ZM239.507 32.376C240.275 27.096 240.275 23.496 239.555 18.552C239.075 14.616 241.571 12.888 245.459 12.888C248.819 12.888 251.171 14.376 251.603 17.592C252.467 23.016 252.467 27.576 251.603 33C251.171 36.216 248.819 37.704 245.459 37.704C241.571 37.704 239.075 35.976 239.507 32.376ZM211.379 25.416C211.379 18.36 214.355 13.032 224.819 13.032C235.283 13.032 238.307 18.36 238.307 25.416C238.307 32.232 234.755 37.368 224.819 37.368C214.835 37.368 211.379 32.232 211.379 25.416ZM221.219 24.024C222.611 25.896 225.011 27.24 227.459 27.864C228.659 28.152 228.995 26.52 228.275 26.28C225.971 25.608 224.003 24.36 222.227 22.584C221.651 22.056 220.499 23.208 221.219 24.024ZM229.859 42.84C231.587 42.648 232.883 42.648 234.515 42.84V41.592C234.515 37.176 250.115 36.936 251.507 42.216C252.323 45.576 252.467 49.416 251.507 52.536C250.787 54.888 248.147 56.28 244.115 56.616C236.339 57.288 228.083 57.336 220.259 56.616C216.275 56.328 213.683 54.888 212.915 52.536C212.051 49.416 212.099 45.576 212.915 42.216C214.307 36.936 229.859 37.176 229.859 41.592V42.84ZM236.147 48.696C236.003 48.36 235.523 48.024 235.091 48.264C233.363 49.224 230.915 49.176 229.235 48.216C228.947 48.024 228.371 48.168 228.131 48.6C227.843 49.128 228.083 49.416 228.755 49.752C230.915 50.952 233.507 50.904 235.667 49.752C236.051 49.56 236.291 49.224 236.147 48.696Z"/>
</mask>
<path d="M83.0946 43.944C76.8546 42.456 74.1666 38.136 74.1666 32.568C74.1666 28.104 75.6066 25.176 77.6226 23.928C75.7026 23.352 74.7426 22.2 74.7426 20.664C74.7426 17.352 78.8226 16.968 81.3666 16.968C80.7906 16.44 80.6466 15.912 80.6466 15.336C80.6466 13.272 83.6226 12.216 87.8946 12.216C92.1666 12.216 95.0946 13.272 95.0946 15.336C95.0946 15.912 94.9506 16.392 94.4706 16.92C95.2386 16.968 96.0546 16.968 96.7746 17.016C100.327 17.16 102.055 18.6 102.055 20.664C102.055 22.2 101.095 23.352 99.1746 23.928C101.143 25.176 102.583 28.152 102.583 32.568C102.583 38.04 99.9426 42.36 93.8466 43.896V45.432C95.7666 45.336 97.4466 45.24 98.6466 45.096C101.143 44.712 102.535 46.776 102.535 49.56C102.535 52.728 101.143 54.792 98.6466 55.128C94.0866 55.752 82.2786 55.752 78.0066 55.176C75.5106 54.84 74.1186 52.728 74.1186 49.56C74.1186 46.776 75.5106 44.808 78.0066 45.192C79.2066 45.336 81.0306 45.432 83.0946 45.48V43.944ZM109.351 56.952C105.463 56.952 102.871 54.744 103.447 50.424C104.551 40.104 104.551 29.736 103.447 19.848C102.871 15.096 105.463 12.84 109.351 12.84C112.759 12.84 115.159 14.76 115.591 18.696C116.599 29.064 116.599 40.776 115.591 51.192C115.159 55.032 112.759 56.952 109.351 56.952ZM87.6546 34.968C87.6546 35.784 89.1426 35.784 89.1426 34.968V29.688C89.1426 28.872 87.6546 28.872 87.6546 29.688V34.968ZM148.48 39.144C149.056 33.144 148.96 24.12 148.336 19.176C147.808 14.808 150.352 12.888 154.24 12.888C157.6 12.888 159.952 14.568 160.384 18.12C161.248 24.072 161.248 35.352 160.384 41.304C159.952 44.808 157.6 46.44 154.24 46.44H144.592C142.48 46.44 141.136 45.432 141.136 42.84C141.136 40.2 142.48 39.048 144.592 39.096L148.48 39.144ZM120.496 22.104C120.496 16.872 123.616 12.888 133.888 12.888C144.208 12.888 147.184 16.824 147.184 22.104C147.184 27.336 143.728 31.368 133.888 31.368C124.048 31.368 120.496 27.288 120.496 22.104ZM132.88 23.976C132.88 24.792 134.8 24.792 134.8 23.976V19.8C134.8 18.984 132.88 18.984 132.88 19.8V23.976ZM127.36 38.904C126.064 38.856 124.912 38.808 124.048 38.712C121.504 38.472 120.16 37.128 120.16 34.92C120.16 32.904 121.504 31.656 124.048 31.896C128.272 32.28 138.688 32.28 143.2 31.848C145.696 31.656 147.376 32.904 147.376 34.92C147.376 37.128 145.936 38.472 143.392 38.664C142.24 38.76 140.704 38.856 138.976 38.904V41.544C138.976 44.424 138.016 45.192 134.272 45.288C134.56 45.624 134.8 46.008 134.992 46.44C135.856 48.552 135.28 50.616 133.84 51.816C133.264 52.344 133.696 53.064 134.464 52.632C139.6 49.896 147.28 47.208 154.48 47.208C158.032 47.208 161.2 47.976 161.536 50.712C161.968 53.688 159.952 55.512 154.336 56.136C148.336 56.808 138.448 56.904 129.424 56.424C123.76 56.088 120.88 53.592 120.88 50.04C120.88 45.864 123.232 43.848 126.304 43.368C126.688 43.32 127.12 43.272 127.552 43.224C127.408 42.744 127.36 42.216 127.36 41.544V38.904ZM204.745 42.696C204.601 45.576 204.409 48.456 204.121 51.24C203.737 55.08 201.337 57 197.977 57C194.089 57 191.497 54.792 191.929 50.472C193.177 40.152 193.177 29.784 191.977 19.896C191.497 15.144 194.089 12.888 197.977 12.888C201.337 12.888 203.737 14.808 204.121 18.744C204.361 21 204.505 23.256 204.649 25.608L206.041 25.464C208.249 25.08 209.545 27.72 209.545 34.104C209.545 40.536 208.249 43.128 206.041 42.888L204.745 42.696ZM169.081 43.8C169.561 36.312 176.377 29.592 182.905 25.992C183.769 25.512 182.905 24.024 182.089 24.6C179.401 26.568 175.801 28.104 172.393 28.344C168.841 28.68 164.857 26.76 164.281 23.256C163.657 19.512 166.009 17.064 169.513 15.768C172.393 14.712 175.801 14.376 180.025 14.376C186.649 14.376 189.625 17.928 190.633 23.304C191.833 30.072 191.641 39.432 189.961 46.392C188.665 51.816 184.921 55.752 178.249 55.272C172.489 54.888 168.697 50.52 169.081 43.8ZM239.507 32.376C240.275 27.096 240.275 23.496 239.555 18.552C239.075 14.616 241.571 12.888 245.459 12.888C248.819 12.888 251.171 14.376 251.603 17.592C252.467 23.016 252.467 27.576 251.603 33C251.171 36.216 248.819 37.704 245.459 37.704C241.571 37.704 239.075 35.976 239.507 32.376ZM211.379 25.416C211.379 18.36 214.355 13.032 224.819 13.032C235.283 13.032 238.307 18.36 238.307 25.416C238.307 32.232 234.755 37.368 224.819 37.368C214.835 37.368 211.379 32.232 211.379 25.416ZM221.219 24.024C222.611 25.896 225.011 27.24 227.459 27.864C228.659 28.152 228.995 26.52 228.275 26.28C225.971 25.608 224.003 24.36 222.227 22.584C221.651 22.056 220.499 23.208 221.219 24.024ZM229.859 42.84C231.587 42.648 232.883 42.648 234.515 42.84V41.592C234.515 37.176 250.115 36.936 251.507 42.216C252.323 45.576 252.467 49.416 251.507 52.536C250.787 54.888 248.147 56.28 244.115 56.616C236.339 57.288 228.083 57.336 220.259 56.616C216.275 56.328 213.683 54.888 212.915 52.536C212.051 49.416 212.099 45.576 212.915 42.216C214.307 36.936 229.859 37.176 229.859 41.592V42.84ZM236.147 48.696C236.003 48.36 235.523 48.024 235.091 48.264C233.363 49.224 230.915 49.176 229.235 48.216C228.947 48.024 228.371 48.168 228.131 48.6C227.843 49.128 228.083 49.416 228.755 49.752C230.915 50.952 233.507 50.904 235.667 49.752C236.051 49.56 236.291 49.224 236.147 48.696Z" fill="white"/>
<path d="M83.0946 43.944H85.0946V42.3648L83.5585 41.9985L83.0946 43.944ZM77.6226 23.928L78.6753 25.6285L82.4539 23.2894L78.1973 22.0123L77.6226 23.928ZM81.3666 16.968V18.968H86.5082L82.718 15.4937L81.3666 16.968ZM94.4706 16.92L92.9907 15.5746L90.1892 18.6563L94.3458 18.9161L94.4706 16.92ZM96.7746 17.016L96.6415 19.0116L96.6675 19.0133L96.6936 19.0144L96.7746 17.016ZM99.1746 23.928L98.5999 22.0123L94.4041 23.2711L98.1035 25.617L99.1746 23.928ZM93.8466 43.896L93.3579 41.9566L91.8466 42.3374V43.896H93.8466ZM93.8466 45.432H91.8466V47.5345L93.9464 47.4295L93.8466 45.432ZM98.6466 45.096L98.8849 47.0818L98.9178 47.0778L98.9507 47.0727L98.6466 45.096ZM98.6466 55.128L98.3797 53.1459L98.3754 53.1465L98.6466 55.128ZM78.0066 55.176L78.2738 53.1939L78.2734 53.1939L78.0066 55.176ZM78.0066 45.192L77.7024 47.1687L77.7353 47.1738L77.7683 47.1778L78.0066 45.192ZM83.0946 45.48L83.0481 47.4795L85.0946 47.5271V45.48H83.0946ZM103.447 50.424L105.429 50.6883L105.432 50.6626L105.435 50.6367L103.447 50.424ZM103.447 19.848L105.434 19.6261L105.433 19.6167L105.432 19.6073L103.447 19.848ZM115.591 18.696L117.581 18.5025L117.58 18.4901L117.579 18.4778L115.591 18.696ZM115.591 51.192L117.578 51.4156L117.58 51.4001L117.581 51.3846L115.591 51.192ZM83.5585 41.9985C80.8157 41.3445 79.024 40.1175 77.8982 38.5962C76.7603 37.0587 76.1666 35.0353 76.1666 32.568H72.1666C72.1666 35.6687 72.9168 38.5893 74.6829 40.9757C76.4611 43.3785 79.1334 45.0555 82.6306 45.8895L83.5585 41.9985ZM76.1666 32.568C76.1666 28.4362 77.5005 26.3557 78.6753 25.6285L76.5699 22.2275C73.7126 23.9963 72.1666 27.7718 72.1666 32.568H76.1666ZM78.1973 22.0123C77.4889 21.7998 77.1374 21.5341 76.9718 21.3436C76.8303 21.181 76.7426 20.9844 76.7426 20.664H72.7426C72.7426 21.8796 73.1348 23.027 73.9534 23.9684C74.7478 24.8819 75.8362 25.4802 77.0479 25.8437L78.1973 22.0123ZM76.7426 20.664C76.7426 20.2845 76.8455 20.1013 76.9501 19.977C77.0852 19.8165 77.3449 19.6212 77.8129 19.4428C78.7894 19.0706 80.1341 18.968 81.3666 18.968V14.968C80.055 14.968 78.0877 15.0574 76.3882 15.7052C75.5182 16.0368 74.599 16.5585 73.8896 17.4015C73.1496 18.2807 72.7426 19.3875 72.7426 20.664H76.7426ZM82.718 15.4937C82.6662 15.4462 82.6452 15.4181 82.6404 15.4114C82.6366 15.406 82.6415 15.4123 82.6475 15.4272C82.6533 15.4416 82.6537 15.4483 82.6523 15.4396C82.6505 15.4287 82.6466 15.3976 82.6466 15.336H78.6466C78.6466 15.7922 78.7037 16.3379 78.9336 16.9128C79.1668 17.4958 79.5349 18.0021 80.0151 18.4423L82.718 15.4937ZM82.6466 15.336C82.6466 15.3241 82.6476 15.3324 82.6421 15.3461C82.6375 15.3578 82.6398 15.3441 82.6736 15.3059C82.7523 15.2174 82.9637 15.0418 83.4248 14.8535C84.361 14.4711 85.879 14.216 87.8946 14.216V10.216C85.6381 10.216 83.5321 10.4889 81.9123 11.1505C80.3219 11.8001 78.6466 13.1032 78.6466 15.336H82.6466ZM87.8946 14.216C89.9109 14.216 91.4135 14.4714 92.3342 14.851C92.7866 15.0375 92.9913 15.2105 93.0664 15.2962C93.0988 15.3331 93.1013 15.3468 93.0974 15.3368C93.0928 15.325 93.0946 15.3199 93.0946 15.336H97.0946C97.0946 13.1186 95.4522 11.8099 93.8589 11.153C92.2477 10.4886 90.1503 10.216 87.8946 10.216V14.216ZM93.0946 15.336C93.0946 15.452 93.0808 15.4682 93.0881 15.4485C93.0903 15.4427 93.0899 15.4465 93.0796 15.4628C93.0684 15.4804 93.0427 15.5174 92.9907 15.5746L95.9504 18.2653C96.7891 17.3428 97.0946 16.3727 97.0946 15.336H93.0946ZM94.3458 18.9161C94.7672 18.9424 95.1959 18.9553 95.5791 18.9671C95.9758 18.9793 96.3235 18.9904 96.6415 19.0116L96.9076 15.0204C96.5056 14.9936 96.0853 14.9807 95.7021 14.9689C95.3053 14.9567 94.942 14.9456 94.5953 14.9239L94.3458 18.9161ZM96.6936 19.0144C98.2524 19.0776 99.133 19.42 99.5715 19.7384C99.9274 19.9968 100.055 20.2701 100.055 20.664H104.055C104.055 18.9938 103.318 17.5152 101.922 16.5016C100.608 15.548 98.8487 15.0984 96.8556 15.0176L96.6936 19.0144ZM100.055 20.664C100.055 20.9844 99.9668 21.181 99.8254 21.3436C99.6598 21.5341 99.3082 21.7998 98.5999 22.0123L99.7493 25.8437C100.961 25.4802 102.049 24.8819 102.844 23.9684C103.662 23.027 104.055 21.8796 104.055 20.664H100.055ZM98.1035 25.617C99.2444 26.3405 100.583 28.4786 100.583 32.568H104.583C104.583 27.8254 103.041 24.0115 100.246 22.239L98.1035 25.617ZM100.583 32.568C100.583 34.9872 100.001 36.9944 98.8829 38.532C97.7773 40.0527 96.0245 41.2847 93.3579 41.9566L94.3352 45.8354C97.7646 44.9713 100.38 43.2753 102.118 40.884C103.844 38.5096 104.583 35.6208 104.583 32.568H100.583ZM91.8466 43.896V45.432H95.8466V43.896H91.8466ZM93.9464 47.4295C95.8518 47.3342 97.6034 47.2355 98.8849 47.0818L98.4083 43.1102C97.2898 43.2445 95.6813 43.3378 93.7467 43.4345L93.9464 47.4295ZM98.9507 47.0727C99.513 46.9862 99.7704 47.149 99.9715 47.3977C100.253 47.7458 100.535 48.4574 100.535 49.56H104.535C104.535 47.8786 104.12 46.1662 103.082 44.8823C101.963 43.499 100.276 42.8218 98.3424 43.1193L98.9507 47.0727ZM100.535 49.56C100.535 50.8732 100.244 51.7451 99.8818 52.2681C99.5538 52.7423 99.0911 53.0501 98.3797 53.1459L98.9134 57.1101C100.698 56.8699 102.179 55.9777 103.171 54.5439C104.129 53.1589 104.535 51.4148 104.535 49.56H100.535ZM98.3754 53.1465C96.2388 53.4388 92.2625 53.596 88.2156 53.602C84.1663 53.608 80.2642 53.4623 78.2738 53.1939L77.7393 57.1581C80.0209 57.4657 84.1588 57.608 88.2215 57.602C92.2866 57.596 96.4943 57.4412 98.9177 57.1095L98.3754 53.1465ZM78.2734 53.1939C77.5774 53.1002 77.1128 52.7919 76.7779 52.3017C76.4096 51.7626 76.1186 50.8733 76.1186 49.56H72.1186C72.1186 51.4147 72.5236 53.1654 73.4752 54.5583C74.4603 56.0001 75.9397 56.9158 77.7397 57.1581L78.2734 53.1939ZM76.1186 49.56C76.1186 48.4572 76.3998 47.7842 76.663 47.4684C76.8451 47.2498 77.1018 47.0763 77.7024 47.1687L78.3107 43.2153C76.4153 42.9237 74.728 43.5422 73.5901 44.9076C72.5333 46.1758 72.1186 47.8788 72.1186 49.56H76.1186ZM77.7683 47.1778C79.067 47.3336 80.9692 47.4311 83.0481 47.4795L83.1411 43.4805C81.0919 43.4329 79.3461 43.3384 78.2449 43.2062L77.7683 47.1778ZM85.0946 45.48V43.944H81.0946V45.48H85.0946ZM109.351 54.952C107.756 54.952 106.729 54.5 106.158 53.9136C105.626 53.3667 105.2 52.4031 105.429 50.6883L101.464 50.1597C101.117 52.7649 101.699 55.0653 103.291 56.7024C104.844 58.3 107.058 58.952 109.351 58.952V54.952ZM105.435 50.6367C106.554 40.1785 106.555 29.6646 105.434 19.6261L101.459 20.0699C102.546 29.8074 102.547 40.0295 101.458 50.2113L105.435 50.6367ZM105.432 19.6073C105.191 17.616 105.647 16.5147 106.199 15.9138C106.766 15.2952 107.769 14.84 109.351 14.84V10.84C107.044 10.84 104.807 11.5128 103.251 13.2102C101.678 14.9253 101.126 17.328 101.461 20.0887L105.432 19.6073ZM109.351 14.84C110.677 14.84 111.614 15.2078 112.249 15.7786C112.882 16.3484 113.427 17.3128 113.603 18.9142L117.579 18.4778C117.322 16.1432 116.451 14.1796 114.924 12.8054C113.399 11.4322 111.432 10.84 109.351 10.84V14.84ZM113.6 18.8895C114.595 29.1285 114.595 40.7112 113.6 50.9994L117.581 51.3846C118.602 40.8408 118.602 28.9995 117.581 18.5025L113.6 18.8895ZM113.603 50.9684C113.43 52.5112 112.892 53.4537 112.258 54.0172C111.62 54.5837 110.678 54.952 109.351 54.952V58.952C111.431 58.952 113.393 58.3603 114.915 57.0068C116.441 55.6503 117.32 53.7128 117.578 51.4156L113.603 50.9684ZM85.6546 34.968C85.6546 35.8661 86.099 36.5972 86.7066 37.0415C87.2558 37.4431 87.8796 37.58 88.3986 37.58C88.9175 37.58 89.5413 37.4431 90.0905 37.0415C90.6982 36.5972 91.1426 35.8661 91.1426 34.968H87.1426C87.1426 34.4779 87.401 34.0528 87.7296 33.8125C87.9998 33.6149 88.2516 33.58 88.3986 33.58C88.5455 33.58 88.7973 33.6149 89.0675 33.8125C89.3962 34.0528 89.6546 34.4779 89.6546 34.968H85.6546ZM91.1426 34.968V29.688H87.1426V34.968H91.1426ZM91.1426 29.688C91.1426 28.7899 90.6982 28.0588 90.0905 27.6145C89.5413 27.2129 88.9175 27.076 88.3986 27.076C87.8796 27.076 87.2558 27.2129 86.7066 27.6145C86.099 28.0588 85.6546 28.7899 85.6546 29.688H89.6546C89.6546 30.1781 89.3962 30.6032 89.0675 30.8435C88.7973 31.0411 88.5455 31.076 88.3986 31.076C88.2516 31.076 87.9998 31.0411 87.7296 30.8435C87.401 30.6032 87.1426 30.1781 87.1426 29.688H91.1426ZM85.6546 29.688V34.968H89.6546V29.688H85.6546ZM148.48 39.144L148.455 41.1438L150.295 41.1666L150.471 39.3351L148.48 39.144ZM148.336 19.176L146.35 19.416L146.352 19.4264L148.336 19.176ZM160.384 18.12L158.399 18.3615L158.401 18.3844L158.405 18.4073L160.384 18.12ZM160.384 41.304L158.405 41.0167L158.402 41.038L158.399 41.0593L160.384 41.304ZM144.592 39.096L144.546 41.0955L144.557 41.0957L144.567 41.0958L144.592 39.096ZM127.36 38.904H129.36V36.9767L127.434 36.9054L127.36 38.904ZM124.048 38.712L124.269 36.7242L124.252 36.7224L124.236 36.7208L124.048 38.712ZM124.048 31.896L123.86 33.8872L123.867 33.8878L124.048 31.896ZM143.2 31.848L143.047 29.8539L143.028 29.8553L143.009 29.8571L143.2 31.848ZM143.392 38.664L143.241 36.6697L143.234 36.6703L143.226 36.6709L143.392 38.664ZM138.976 38.904L138.92 36.9048L136.976 36.9588V38.904H138.976ZM134.272 45.288L134.221 43.2887L130.016 43.3965L132.753 46.5896L134.272 45.288ZM134.992 46.44L136.843 45.6827L136.832 45.6551L136.82 45.6277L134.992 46.44ZM133.84 51.816L132.56 50.2796L132.523 50.3098L132.488 50.3417L133.84 51.816ZM134.464 52.632L133.524 50.8668L133.503 50.8776L133.483 50.8888L134.464 52.632ZM161.536 50.712L159.551 50.9558L159.554 50.9776L159.557 50.9993L161.536 50.712ZM154.336 56.136L154.115 54.1482L154.113 54.1484L154.336 56.136ZM129.424 56.424L129.306 58.4205L129.318 58.4212L129.424 56.424ZM126.304 43.368L126.056 41.3834L126.025 41.3872L125.995 41.392L126.304 43.368ZM127.552 43.224L127.773 45.2118L130.157 44.9469L129.468 42.6493L127.552 43.224ZM150.471 39.3351C151.059 33.2064 150.965 24.0332 150.32 18.9256L146.352 19.4264C146.955 24.2068 147.053 33.0816 146.489 38.9529L150.471 39.3351ZM150.321 18.936C150.108 17.1717 150.545 16.2958 151.026 15.8284C151.566 15.3035 152.577 14.888 154.24 14.888V10.888C152.015 10.888 149.81 11.4325 148.238 12.9596C146.607 14.5442 146.036 16.8122 146.35 19.416L150.321 18.936ZM154.24 14.888C155.599 14.888 156.537 15.2264 157.148 15.7234C157.735 16.201 158.233 16.9968 158.399 18.3615L162.369 17.8785C162.103 15.6912 161.209 13.871 159.672 12.6206C158.159 11.3896 156.241 10.888 154.24 10.888V14.888ZM158.405 18.4073C159.241 24.1688 159.241 35.2552 158.405 41.0167L162.363 41.5913C163.255 35.4488 163.255 23.9752 162.363 17.8327L158.405 18.4073ZM158.399 41.0593C158.235 42.3909 157.744 43.1593 157.164 43.6217C156.554 44.1073 155.611 44.44 154.24 44.44V48.44C156.229 48.44 158.142 47.9567 159.656 46.7503C161.2 45.5207 162.101 43.7211 162.369 41.5487L158.399 41.0593ZM154.24 44.44H144.592V48.44H154.24V44.44ZM144.592 44.44C143.822 44.44 143.546 44.2547 143.457 44.1692C143.383 44.0983 143.136 43.8089 143.136 42.84H139.136C139.136 44.4631 139.561 45.9737 140.687 47.0548C141.798 48.1213 143.25 48.44 144.592 48.44V44.44ZM143.136 42.84C143.136 41.8351 143.39 41.472 143.5 41.3601C143.597 41.2613 143.853 41.0797 144.546 41.0955L144.637 37.0965C143.219 37.0643 141.747 37.4347 140.644 38.5599C139.553 39.672 139.136 41.2049 139.136 42.84H143.136ZM144.567 41.0958L148.455 41.1438L148.505 37.1442L144.617 37.0962L144.567 41.0958ZM122.496 22.104C122.496 19.9057 123.13 18.262 124.589 17.0962C126.141 15.8557 128.951 14.888 133.888 14.888V10.888C128.553 10.888 124.667 11.9123 122.091 13.9718C119.421 16.106 118.496 19.0703 118.496 22.104H122.496ZM133.888 14.888C138.858 14.888 141.634 15.8474 143.149 17.0714C144.567 18.2179 145.184 19.8516 145.184 22.104H149.184C149.184 19.0764 148.313 16.1021 145.663 13.9605C143.11 11.8966 139.238 10.888 133.888 10.888V14.888ZM145.184 22.104C145.184 24.2483 144.5 25.9274 142.983 27.1315C141.386 28.3989 138.582 29.368 133.888 29.368V33.368C139.034 33.368 142.878 32.3211 145.469 30.2645C148.14 28.1446 149.184 25.1917 149.184 22.104H145.184ZM133.888 29.368C129.2 29.368 126.366 28.3894 124.739 27.1088C123.19 25.8888 122.496 24.2036 122.496 22.104H118.496C118.496 25.1884 119.578 28.1352 122.265 30.2512C124.874 32.3066 128.736 33.368 133.888 33.368V29.368ZM130.88 23.976C130.88 25.1135 131.598 25.8373 132.194 26.175C132.753 26.4917 133.357 26.588 133.84 26.588C134.323 26.588 134.927 26.4917 135.486 26.175C136.082 25.8373 136.8 25.1135 136.8 23.976H132.8C132.8 23.6614 132.9 23.3581 133.068 23.1121C133.225 22.8838 133.403 22.7575 133.514 22.695C133.713 22.5823 133.837 22.588 133.84 22.588C133.843 22.588 133.967 22.5823 134.166 22.695C134.276 22.7575 134.455 22.8838 134.611 23.1121C134.78 23.3581 134.88 23.6614 134.88 23.976H130.88ZM136.8 23.976V19.8H132.8V23.976H136.8ZM136.8 19.8C136.8 18.6625 136.082 17.9387 135.486 17.601C134.927 17.2843 134.323 17.188 133.84 17.188C133.357 17.188 132.753 17.2843 132.194 17.601C131.598 17.9387 130.88 18.6625 130.88 19.8H134.88C134.88 20.1146 134.78 20.4179 134.611 20.6639C134.455 20.8922 134.276 21.0185 134.166 21.081C133.967 21.1937 133.843 21.188 133.84 21.188C133.837 21.188 133.713 21.1937 133.514 21.081C133.403 21.0185 133.225 20.8922 133.068 20.6639C132.9 20.4179 132.8 20.1146 132.8 19.8H136.8ZM130.88 19.8V23.976H134.88V19.8H130.88ZM127.434 36.9054C126.119 36.8567 125.045 36.8105 124.269 36.7242L123.827 40.6998C124.779 40.8055 126.009 40.8553 127.286 40.9026L127.434 36.9054ZM124.236 36.7208C123.26 36.6288 122.778 36.3495 122.551 36.1268C122.354 35.9329 122.16 35.5996 122.16 34.92H118.16C118.16 36.4484 118.638 37.8911 119.749 38.9812C120.83 40.0425 122.292 40.5552 123.86 40.7032L124.236 36.7208ZM122.16 34.92C122.16 34.366 122.329 34.1815 122.415 34.1112C122.533 34.0148 122.919 33.7984 123.86 33.8872L124.236 29.9048C122.633 29.7536 121.075 30.0412 119.885 31.0128C118.663 32.0105 118.16 33.458 118.16 34.92H122.16ZM123.867 33.8878C128.212 34.2828 138.753 34.2829 143.391 33.8389L143.009 29.8571C138.623 30.2771 128.331 30.2772 124.229 29.9042L123.867 33.8878ZM143.353 33.8421C144.258 33.7725 144.787 33.9816 145.037 34.1654C145.237 34.3135 145.376 34.5215 145.376 34.92H149.376C149.376 33.3025 148.675 31.8785 147.411 30.9466C146.196 30.0504 144.638 29.7315 143.047 29.8539L143.353 33.8421ZM145.376 34.92C145.376 35.5623 145.183 35.8894 144.97 36.0893C144.722 36.3219 144.212 36.5964 143.241 36.6697L143.542 40.6583C145.116 40.5396 146.598 40.0461 147.706 39.0067C148.849 37.9346 149.376 36.4857 149.376 34.92H145.376ZM143.226 36.6709C142.108 36.7641 140.609 36.8579 138.92 36.9048L139.031 40.9032C140.799 40.8541 142.372 40.7559 143.558 40.6571L143.226 36.6709ZM136.976 38.904V41.544H140.976V38.904H136.976ZM136.976 41.544C136.976 42.1779 136.92 42.5365 136.857 42.7377C136.829 42.8275 136.806 42.8664 136.799 42.877C136.794 42.8846 136.792 42.8879 136.782 42.8957C136.755 42.9169 136.612 43.0179 136.172 43.1109C135.73 43.2044 135.108 43.2659 134.221 43.2887L134.323 47.2873C136.154 47.2404 137.982 47.0534 139.274 46.0243C140.748 44.8505 140.976 43.0888 140.976 41.544H136.976ZM132.753 46.5896C132.907 46.7686 133.046 46.9854 133.164 47.2523L136.82 45.6277C136.554 45.0306 136.213 44.4794 135.79 43.9864L132.753 46.5896ZM133.141 47.1973C133.694 48.5505 133.29 49.6707 132.56 50.2796L135.12 53.3524C137.27 51.5613 138.017 48.5535 136.843 45.6827L133.141 47.1973ZM132.488 50.3417C131.725 51.0411 131.124 52.443 132 53.7171C132.949 55.0973 134.563 54.8707 135.444 54.3752L133.483 50.8888C133.557 50.8474 133.802 50.7324 134.175 50.7725C134.572 50.8151 135.007 51.031 135.296 51.4509C135.908 52.341 135.378 53.1189 135.191 53.2903L132.488 50.3417ZM135.404 54.3972C140.356 51.7593 147.709 49.208 154.48 49.208V45.208C146.85 45.208 138.844 48.0327 133.524 50.8668L135.404 54.3972ZM154.48 49.208C156.164 49.208 157.529 49.3977 158.443 49.7794C159.27 50.125 159.495 50.5031 159.551 50.9558L163.521 50.4682C163.241 48.1849 161.714 46.811 159.985 46.0886C158.342 45.4023 156.348 45.208 154.48 45.208V49.208ZM159.557 50.9993C159.629 51.4968 159.582 51.8256 159.501 52.0491C159.426 52.2592 159.281 52.4873 158.968 52.7339C158.265 53.2865 156.819 53.8478 154.115 54.1482L154.557 58.1238C157.469 57.8002 159.839 57.1375 161.44 55.8781C162.279 55.2187 162.908 54.3938 163.264 53.4054C163.616 52.4304 163.659 51.4152 163.515 50.4247L159.557 50.9993ZM154.113 54.1484C148.265 54.8034 138.498 54.9039 129.53 54.4268L129.318 58.4212C138.398 58.9041 148.406 58.8126 154.559 58.1236L154.113 54.1484ZM129.542 54.4275C126.95 54.2737 125.255 53.6363 124.255 52.8589C123.322 52.1337 122.88 51.2082 122.88 50.04H118.88C118.88 52.4238 119.878 54.5223 121.801 56.0171C123.656 57.4597 126.234 58.2383 129.306 58.4205L129.542 54.4275ZM122.88 50.04C122.88 48.3398 123.35 47.3001 123.93 46.6518C124.523 45.989 125.415 45.5311 126.613 45.344L125.995 41.392C124.12 41.6849 122.3 42.475 120.95 43.9842C119.586 45.5079 118.88 47.5642 118.88 50.04H122.88ZM126.552 45.3526C126.92 45.3066 127.337 45.2601 127.773 45.2118L127.331 41.2362C126.903 41.2839 126.456 41.3334 126.056 41.3834L126.552 45.3526ZM129.468 42.6493C129.405 42.4401 129.36 42.1352 129.36 41.544H125.36C125.36 42.2968 125.411 43.0479 125.636 43.7987L129.468 42.6493ZM129.36 41.544V38.904H125.36V41.544H129.36ZM204.745 42.696L205.038 40.7176L202.858 40.3946L202.748 42.5961L204.745 42.696ZM204.121 51.24L202.132 51.0342L202.131 51.041L204.121 51.24ZM191.929 50.472L189.944 50.2319L189.941 50.2524L189.939 50.273L191.929 50.472ZM191.977 19.896L189.987 20.097L189.989 20.117L189.992 20.1369L191.977 19.896ZM204.121 18.744L202.131 18.9382L202.132 18.9469L202.133 18.9556L204.121 18.744ZM204.649 25.608L202.653 25.7302L202.781 27.812L204.855 27.5974L204.649 25.608ZM206.041 25.464L206.247 27.4534L206.316 27.4463L206.384 27.4344L206.041 25.464ZM206.041 42.888L205.748 44.8664L205.787 44.8721L205.825 44.8763L206.041 42.888ZM169.081 43.8L167.085 43.6721L167.085 43.6859L169.081 43.8ZM182.905 25.992L183.871 27.7434L183.877 27.7403L182.905 25.992ZM182.089 24.6L180.936 22.9661L180.922 22.976L180.908 22.9863L182.089 24.6ZM172.393 28.344L172.253 26.3489L172.229 26.3506L172.205 26.3529L172.393 28.344ZM164.281 23.256L166.255 22.9316L166.254 22.9272L164.281 23.256ZM169.513 15.768L168.825 13.8902L168.82 13.8922L169.513 15.768ZM190.633 23.304L192.603 22.9548L192.601 22.9451L192.599 22.9354L190.633 23.304ZM189.961 46.392L188.017 45.9227L188.016 45.9272L189.961 46.392ZM178.249 55.272L178.393 53.2771L178.382 53.2764L178.249 55.272ZM202.748 42.5961C202.605 45.456 202.415 48.2979 202.132 51.0342L206.111 51.4458C206.404 48.6141 206.598 45.696 206.743 42.7959L202.748 42.5961ZM202.131 51.041C201.978 52.5775 201.45 53.5142 200.828 54.0726C200.203 54.6348 199.275 55 197.977 55V59C200.039 59 201.992 58.4052 203.502 57.0474C205.017 55.6858 205.881 53.7425 206.111 51.439L202.131 51.041ZM197.977 55C196.388 55 195.35 54.5504 194.755 53.9496C194.193 53.3808 193.747 52.3929 193.919 50.671L189.939 50.273C189.679 52.8711 190.314 55.1472 191.911 56.7624C193.477 58.3456 195.679 59 197.977 59V55ZM193.915 50.7121C195.182 40.236 195.183 29.7065 193.963 19.6551L189.992 20.1369C191.172 29.8615 191.173 40.068 189.944 50.2319L193.915 50.7121ZM193.967 19.695C193.766 17.7002 194.236 16.5846 194.806 15.97C195.389 15.3416 196.399 14.888 197.977 14.888V10.888C195.667 10.888 193.438 11.5624 191.873 13.25C190.295 14.9514 189.709 17.3398 189.987 20.097L193.967 19.695ZM197.977 14.888C199.275 14.888 200.197 15.2527 200.819 15.8191C201.44 16.3839 201.975 17.3428 202.131 18.9382L206.112 18.5498C205.884 16.2092 205.027 14.2401 203.511 12.8609C201.998 11.4833 200.04 10.888 197.977 10.888V14.888ZM202.133 18.9556C202.367 21.1612 202.509 23.3754 202.653 25.7302L206.646 25.4858C206.502 23.1366 206.355 20.8388 206.11 18.5324L202.133 18.9556ZM204.855 27.5974L206.247 27.4534L205.836 23.4746L204.444 23.6186L204.855 27.5974ZM206.384 27.4344C206.451 27.4227 206.466 27.4306 206.445 27.4265C206.435 27.4247 206.424 27.4213 206.412 27.4166C206.401 27.4119 206.396 27.4083 206.397 27.409C206.404 27.4139 206.571 27.5358 206.781 28.0291C207.217 29.0546 207.545 30.9759 207.545 34.104H211.545C211.545 30.8481 211.225 28.2574 210.462 26.4629C210.072 25.5462 209.5 24.6811 208.644 24.0995C207.735 23.4829 206.703 23.319 205.699 23.4936L206.384 27.4344ZM207.545 34.104C207.545 37.2548 207.218 39.1797 206.779 40.2205C206.568 40.7196 206.392 40.8695 206.355 40.8959C206.341 40.9057 206.343 40.9025 206.35 40.9008C206.354 40.8997 206.329 40.9075 206.257 40.8997L205.825 44.8763C206.819 44.9843 207.816 44.7702 208.686 44.1466C209.513 43.5535 210.075 42.6984 210.464 41.7755C211.225 39.9723 211.545 37.3852 211.545 34.104H207.545ZM206.334 40.9096L205.038 40.7176L204.452 44.6744L205.748 44.8664L206.334 40.9096ZM171.077 43.9279C171.281 40.7477 172.846 37.5887 175.256 34.7257C177.657 31.8722 180.792 29.4413 183.871 27.7433L181.939 24.2407C178.49 26.1427 174.954 28.8718 172.195 32.1503C169.444 35.4193 167.362 39.3643 167.085 43.6721L171.077 43.9279ZM183.877 27.7403C184.666 27.3017 185.127 26.5592 185.238 25.7686C185.338 25.0495 185.144 24.3878 184.855 23.8923C184.568 23.4 184.077 22.8849 183.364 22.6265C182.565 22.3372 181.673 22.4458 180.936 22.9661L183.243 26.2339C182.914 26.4662 182.436 26.5448 182.002 26.3875C181.653 26.2611 181.477 26.04 181.4 25.9077C181.321 25.7722 181.231 25.5365 181.276 25.2134C181.332 24.8188 181.577 24.4423 181.934 24.2437L183.877 27.7403ZM180.908 22.9863C178.461 24.7777 175.214 26.1404 172.253 26.3489L172.534 30.3391C176.389 30.0676 180.342 28.3583 183.271 26.2137L180.908 22.9863ZM172.205 26.3529C170.827 26.4833 169.361 26.1685 168.224 25.5095C167.101 24.8586 166.424 23.9604 166.255 22.9316L162.308 23.5804C162.715 26.0556 164.318 27.8694 166.219 28.9705C168.105 30.0635 170.408 30.5407 172.582 30.3351L172.205 26.3529ZM166.254 22.9272C166.03 21.5817 166.337 20.5957 166.939 19.8075C167.584 18.9626 168.677 18.2096 170.207 17.6438L168.82 13.8922C166.845 14.6224 165.011 15.7414 163.76 17.3805C162.465 19.0763 161.909 21.1863 162.309 23.5848L166.254 22.9272ZM170.202 17.6458C172.748 16.7121 175.874 16.376 180.025 16.376V12.376C175.729 12.376 172.039 12.7119 168.825 13.8902L170.202 17.6458ZM180.025 16.376C182.968 16.376 184.84 17.1558 186.082 18.2968C187.353 19.4641 188.211 21.2355 188.668 23.6726L192.599 22.9354C192.048 19.9965 190.914 17.3039 188.788 15.3512C186.634 13.3722 183.706 12.376 180.025 12.376V16.376ZM188.664 23.6532C189.818 30.1605 189.63 39.2415 188.017 45.9227L191.905 46.8613C193.653 39.6225 193.849 29.9835 192.603 22.9548L188.664 23.6532ZM188.016 45.9272C187.441 48.336 186.361 50.2494 184.845 51.5064C183.36 52.7376 181.284 53.4851 178.393 53.2772L178.106 57.2668C181.887 57.5389 185.019 56.5584 187.398 54.5856C189.746 52.6386 191.186 49.872 191.907 46.8568L188.016 45.9272ZM178.382 53.2764C175.995 53.1173 174.143 52.1533 172.909 50.6455C171.666 49.1255 170.909 46.8757 171.078 43.9141L167.085 43.6859C166.87 47.4443 167.817 50.7385 169.813 53.1785C171.82 55.6307 174.743 57.0427 178.116 57.2676L178.382 53.2764ZM239.507 32.376L237.528 32.0881L237.524 32.1129L237.521 32.1377L239.507 32.376ZM239.555 18.552L237.569 18.7941L237.572 18.8172L237.576 18.8402L239.555 18.552ZM251.603 17.592L249.62 17.8583L249.624 17.8825L249.628 17.9066L251.603 17.592ZM251.603 33L249.628 32.6854L249.624 32.7095L249.62 32.7337L251.603 33ZM221.219 24.024L222.824 22.8306L222.774 22.7635L222.718 22.7008L221.219 24.024ZM227.459 27.864L226.965 29.802L226.978 29.8055L226.992 29.8088L227.459 27.864ZM228.275 26.28L228.907 24.3826L228.871 24.3706L228.835 24.36L228.275 26.28ZM222.227 22.584L223.641 21.1698L223.61 21.1391L223.578 21.1097L222.227 22.584ZM229.859 42.84H227.859V45.0745L230.08 44.8278L229.859 42.84ZM234.515 42.84L234.281 44.8263L236.515 45.0891V42.84H234.515ZM251.507 42.216L253.45 41.744L253.446 41.725L253.441 41.7061L251.507 42.216ZM251.507 52.536L249.595 51.9478L249.594 51.9506L251.507 52.536ZM244.115 56.616L243.949 54.6229L243.942 54.6234L244.115 56.616ZM220.259 56.616L220.442 54.6244L220.422 54.6226L220.403 54.6212L220.259 56.616ZM212.915 52.536L210.987 53.0698L210.999 53.1136L211.013 53.1568L212.915 52.536ZM212.915 42.216L210.981 41.7061L210.976 41.725L210.971 41.744L212.915 42.216ZM236.147 48.696L238.076 48.1698L238.04 48.0358L237.985 47.9082L236.147 48.696ZM235.091 48.264L234.119 46.5157L235.091 48.264ZM229.235 48.216L228.125 49.8801L228.183 49.9183L228.242 49.9525L229.235 48.216ZM228.131 48.6L226.382 47.6287L226.379 47.6355L226.375 47.6423L228.131 48.6ZM228.755 49.752L229.726 48.0037L229.688 47.9826L229.649 47.9631L228.755 49.752ZM235.667 49.752L234.772 47.9631L234.749 47.9749L234.726 47.9873L235.667 49.752ZM241.486 32.6639C242.281 27.2005 242.283 23.4063 241.534 18.2638L237.576 18.8402C238.267 23.5857 238.269 26.9915 237.528 32.0881L241.486 32.6639ZM241.54 18.3099C241.358 16.8195 241.756 16.1272 242.19 15.7454C242.723 15.2765 243.751 14.888 245.459 14.888V10.888C243.278 10.888 241.115 11.3635 239.547 12.7426C237.881 14.2088 237.271 16.3485 237.569 18.7941L241.54 18.3099ZM245.459 14.888C246.867 14.888 247.836 15.202 248.451 15.6503C249.018 16.0635 249.468 16.7211 249.62 17.8583L253.585 17.3257C253.306 15.2469 252.364 13.5525 250.807 12.4177C249.298 11.318 247.411 10.888 245.459 10.888V14.888ZM249.628 17.9066C250.458 23.1222 250.458 27.4698 249.628 32.6854L253.578 33.3146C254.475 27.6822 254.475 22.9098 253.578 17.2774L249.628 17.9066ZM249.62 32.7337C249.468 33.8709 249.018 34.5285 248.451 34.9417C247.836 35.39 246.867 35.704 245.459 35.704V39.704C247.411 39.704 249.298 39.274 250.807 38.1743C252.364 37.0395 253.306 35.3451 253.585 33.2663L249.62 32.7337ZM245.459 35.704C243.755 35.704 242.698 35.3172 242.145 34.855C241.7 34.4835 241.342 33.8701 241.492 32.6143L237.521 32.1377C237.24 34.4819 237.913 36.5325 239.581 37.925C241.139 39.2268 243.274 39.704 245.459 39.704V35.704ZM213.379 25.416C213.379 22.1214 214.08 19.6222 215.642 17.9375C217.177 16.2807 219.902 15.032 224.819 15.032V11.032C219.272 11.032 215.276 12.4473 212.708 15.2185C210.165 17.9618 209.379 21.6546 209.379 25.416H213.379ZM224.819 15.032C229.735 15.032 232.475 16.2807 234.024 17.9418C235.596 19.6284 236.307 22.1279 236.307 25.416H240.307C240.307 21.6481 239.505 17.9556 236.95 15.2142C234.37 12.4473 230.366 11.032 224.819 11.032V15.032ZM236.307 25.416C236.307 28.497 235.507 30.8971 233.872 32.5358C232.241 34.1717 229.46 35.368 224.819 35.368V39.368C230.113 39.368 234.076 37.9963 236.705 35.3602C239.331 32.7269 240.307 29.151 240.307 25.416H236.307ZM224.819 35.368C220.15 35.368 217.387 34.1704 215.777 32.5418C214.162 30.9082 213.379 28.51 213.379 25.416H209.379C209.379 29.138 210.324 32.7158 212.933 35.3542C215.546 37.9976 219.503 39.368 224.819 39.368V35.368ZM219.614 25.2174C221.358 27.5634 224.219 29.1021 226.965 29.802L227.953 25.926C225.803 25.3779 223.863 24.2286 222.824 22.8306L219.614 25.2174ZM226.992 29.8088C227.763 29.9939 228.561 29.8937 229.242 29.4753C229.884 29.0802 230.273 28.4942 230.47 27.9445C230.662 27.4058 230.723 26.7624 230.546 26.1303C230.361 25.4703 229.861 24.7007 228.907 24.3826L227.642 28.1774C227.048 27.9793 226.776 27.5037 226.694 27.2082C226.619 26.9406 226.655 26.7322 226.704 26.5955C226.757 26.4478 226.882 26.2308 227.146 26.0682C227.448 25.8823 227.754 25.8781 227.925 25.9192L226.992 29.8088ZM228.835 24.36C226.899 23.7956 225.216 22.7445 223.641 21.1698L220.812 23.9982C222.79 25.9755 225.042 27.4204 227.715 28.2L228.835 24.36ZM223.578 21.1097C222.845 20.4373 221.928 20.351 221.219 20.5366C220.565 20.7077 220.049 21.1009 219.7 21.5196C219.005 22.3541 218.514 23.981 219.719 25.3472L222.718 22.7008C222.899 22.9052 223.009 23.2116 222.986 23.527C222.966 23.7953 222.86 23.9766 222.773 24.0804C222.694 24.1751 222.53 24.3282 222.231 24.4064C221.877 24.499 221.321 24.4667 220.875 24.0583L223.578 21.1097ZM230.08 44.8278C231.665 44.6516 232.808 44.6531 234.281 44.8263L234.748 40.8537C232.957 40.6429 231.508 40.6444 229.638 40.8522L230.08 44.8278ZM236.515 42.84V41.592H232.515V42.84H236.515ZM236.515 41.592C236.515 41.8543 236.312 41.4723 237.681 40.9548C238.862 40.5085 240.59 40.2458 242.465 40.2679C244.333 40.2899 246.16 40.5926 247.534 41.1317C248.986 41.7019 249.47 42.3372 249.573 42.7258L253.441 41.7061C252.847 39.4548 250.859 38.1401 248.995 37.4083C247.052 36.6454 244.718 36.2941 242.512 36.2681C240.314 36.2422 238.054 36.5375 236.267 37.2132C234.667 37.8177 232.515 39.1217 232.515 41.592H236.515ZM249.563 42.688C250.322 45.8144 250.419 49.2706 249.595 51.9478L253.418 53.1242C254.514 49.5614 254.323 45.3376 253.45 41.744L249.563 42.688ZM249.594 51.9506C249.259 53.0445 247.813 54.3009 243.949 54.6229L244.281 58.6091C248.48 58.2591 252.314 56.7315 253.419 53.1214L249.594 51.9506ZM243.942 54.6234C236.273 55.2862 228.137 55.3325 220.442 54.6244L220.075 58.6076C228.029 59.3395 236.404 59.2898 244.287 58.6086L243.942 54.6234ZM220.403 54.6212C216.671 54.3515 215.194 53.0742 214.816 51.9152L211.013 53.1568C212.171 56.7018 215.878 58.3045 220.114 58.6108L220.403 54.6212ZM214.842 52.0022C214.083 49.2601 214.11 45.7706 214.858 42.688L210.971 41.744C210.088 45.3814 210.019 49.5719 210.987 53.0698L214.842 52.0022ZM214.849 42.7259C214.952 42.335 215.436 41.7003 216.882 41.131C218.25 40.5924 220.071 40.2899 221.932 40.2679C223.801 40.2458 225.522 40.5084 226.698 40.9541C228.059 41.4702 227.859 41.851 227.859 41.592H231.859C231.859 39.125 229.714 37.8198 228.116 37.2139C226.332 36.5376 224.078 36.2422 221.885 36.2681C219.685 36.2941 217.356 36.6456 215.417 37.409C213.556 38.1417 211.574 39.457 210.981 41.7061L214.849 42.7259ZM227.859 41.592V42.84H231.859V41.592H227.859ZM237.985 47.9082C237.717 47.2822 237.213 46.7712 236.621 46.4751C235.978 46.1537 235.037 46.006 234.119 46.5157L236.062 50.0123C235.577 50.282 235.091 50.1823 234.832 50.0529C234.624 49.9488 234.433 49.7738 234.308 49.4838L237.985 47.9082ZM234.119 46.5157C233.018 47.1278 231.314 47.1009 230.227 46.4795L228.242 49.9525C230.515 51.2511 233.708 51.3203 236.062 50.0123L234.119 46.5157ZM230.344 46.5519C229.531 46.0096 228.63 46.0883 228.065 46.266C227.441 46.4621 226.787 46.9007 226.382 47.6287L229.879 49.5713C229.715 49.8673 229.468 50.0179 229.264 50.082C229.156 50.116 229.012 50.1416 228.837 50.1295C228.667 50.1178 228.402 50.0648 228.125 49.8801L230.344 46.5519ZM226.375 47.6423C226.035 48.2648 225.763 49.2688 226.368 50.277C226.802 51.0014 227.523 51.3722 227.86 51.5409L229.649 47.9631C229.53 47.9034 229.5 47.88 229.516 47.8917C229.529 47.901 229.668 48.0021 229.798 48.219C229.95 48.4723 230.029 48.7833 230.007 49.096C229.988 49.3679 229.9 49.5336 229.886 49.5577L226.375 47.6423ZM227.783 51.5003C230.572 53.0498 233.886 52.9684 236.608 51.5167L234.726 47.9873C233.128 48.8396 231.257 48.8542 229.726 48.0037L227.783 51.5003ZM236.561 51.5409C237.007 51.3177 237.541 50.926 237.881 50.2688C238.239 49.5765 238.257 48.8321 238.076 48.1698L234.217 49.2222C234.181 49.0879 234.15 48.7755 234.328 48.4312C234.488 48.122 234.71 47.9943 234.772 47.9631L236.561 51.5409Z" fill="black" mask="url(#path-12-outside-1_1063_3910)"/>
</svg>
