<svg width="146" height="142" viewBox="0 0 146 142" fill="none" xmlns="http://www.w3.org/2000/svg">
<path fill-rule="evenodd" clip-rule="evenodd" d="M117.157 101.489C118.195 101.765 118.81 102.827 118.53 103.861C116.243 112.32 111.965 118.106 106.768 121.956C101.601 125.783 95.6404 127.614 90.0758 128.383C84.51 129.152 79.2561 128.871 75.411 128.405C73.4834 128.171 71.897 127.89 70.7865 127.665C70.2309 127.552 69.7936 127.454 69.4912 127.383C69.34 127.347 69.2225 127.318 69.1407 127.298C69.0998 127.287 69.0678 127.279 69.0451 127.273L69.0179 127.266L69.0095 127.264L69.0066 127.263C69.0055 127.263 69.0046 127.263 69.5107 125.391L69.0046 127.263C67.9669 126.987 67.3522 125.926 67.6317 124.892C67.9111 123.858 68.9782 123.244 70.0156 123.518C70.0156 123.518 70.0156 123.518 70.0156 123.518M70.0167 123.519L70.0321 123.523C70.0463 123.526 70.0696 123.532 70.1017 123.54C70.1658 123.557 70.2651 123.581 70.3975 123.612C70.6623 123.675 71.059 123.764 71.5712 123.868C72.5961 124.075 74.0799 124.339 75.891 124.558C79.5231 124.999 84.4205 125.254 89.5504 124.545C94.6817 123.836 99.9611 122.175 104.45 118.849C108.909 115.546 112.702 110.52 114.772 102.862C115.052 101.829 116.119 101.214 117.157 101.489" fill="#111111"/>
<path d="M115.698 107.354L99.8255 103.139L107.882 73.3365L123.754 77.5522C127.994 78.6781 130.512 83.0227 129.369 87.2489L125.451 101.742C124.31 105.966 119.939 108.484 115.697 107.357L115.698 107.354Z" fill="#111111"/>
<path fill-rule="evenodd" clip-rule="evenodd" d="M116.189 106.292C119.753 107.13 123.375 104.991 124.333 101.446L128.251 86.9523C129.227 83.3415 127.075 79.6284 123.453 78.6664L108.698 74.7476L101.244 102.322L116.189 106.292ZM114.279 108.172L114.278 108.175L115.396 108.472C120.256 109.762 125.261 106.878 126.569 102.04L130.487 87.5462C131.796 82.7045 128.912 77.7284 124.056 76.4385L107.065 71.9258L98.4059 103.956L114.279 108.172Z" fill="#111111"/>
<path d="M25.407 51.3585L41.2796 55.5743L33.2234 85.3764L17.3508 81.1607C13.1115 80.0348 10.5936 75.6902 11.736 71.464L15.6539 56.9707C16.7956 52.7472 21.1658 50.2292 25.4077 51.3559L25.407 51.3585Z" fill="#111111"/>
<path fill-rule="evenodd" clip-rule="evenodd" d="M24.9155 52.4223C21.3519 51.5835 17.73 53.7228 16.7717 57.268L12.8537 71.7615C11.8777 75.3723 14.0296 79.0855 17.6516 80.0474L32.4065 83.9663L39.8605 56.3916L24.9155 52.4223ZM26.826 50.5419L26.8268 50.5392L25.7087 50.2422C20.8489 48.9515 15.8434 51.8356 14.5355 56.6741L10.6175 71.1676C9.3087 76.0094 12.1928 80.9855 17.0493 82.2753L34.0404 86.7881L42.699 54.7576L26.826 50.5419Z" fill="#111111"/>
<path d="M115.208 91.6502C88.0243 147.082 4.64741 108.446 29.92 52.1388C57.1026 -3.29053 140.479 35.3457 115.208 91.6502Z" fill="white"/>
<path fill-rule="evenodd" clip-rule="evenodd" d="M114.377 91.2659C87.7168 145.596 5.99064 107.726 30.7502 52.5241C57.41 -1.8039 139.136 36.0672 114.377 91.2659ZM29.0962 51.7406C56.8066 -4.7649 141.807 34.6236 116.044 92.0213C116.04 92.0308 116.036 92.0401 116.031 92.0494C88.3196 148.558 3.31995 109.169 29.083 51.7688C29.0872 51.7593 29.0916 51.7499 29.0962 51.7406Z" fill="#111111"/>
<path d="M51.4813 92.3361C47.3587 106.592 25.994 100.921 29.628 86.5388C33.7506 72.2829 55.1154 77.9535 51.4813 92.3361Z" fill="#F3A89F"/>
<path d="M102.388 105.896C98.2655 120.152 76.9007 114.482 80.5347 100.099C84.6573 85.843 106.022 91.5135 102.388 105.896Z" fill="#F3A89F"/>
<path fill-rule="evenodd" clip-rule="evenodd" d="M113.613 90.8987C87.4758 144.128 7.40538 107.02 31.6527 52.9282C57.7899 -0.299381 137.86 36.8105 113.613 90.8987ZM28.3421 51.36C56.5799 -6.22085 143.208 33.916 116.95 92.4105C116.945 92.4217 116.94 92.4328 116.935 92.4438C116.931 92.4515 116.928 92.4591 116.924 92.4668C88.6849 150.051 2.05747 109.913 28.3157 51.4163C28.3242 51.3974 28.333 51.3786 28.3421 51.36Z" fill="#111111"/>
<path d="M32.37 97.8934C23.25 109.688 34.8547 123.642 48.8104 113.3C43.6038 110.629 36.6078 104.847 32.37 97.8934Z" fill="#F49E15"/>
<path fill-rule="evenodd" clip-rule="evenodd" d="M32.4733 96.0693C33.0776 96.1016 33.6262 96.4285 33.9398 96.9431C37.9854 103.582 44.7165 109.142 49.6541 111.676C50.2163 111.964 50.5887 112.521 50.6394 113.149C50.6901 113.777 50.412 114.388 49.9035 114.765C42.3743 120.344 34.9032 119.658 30.6058 115.159C26.3856 110.74 25.891 103.282 30.9172 96.7815C31.2868 96.3035 31.869 96.037 32.4733 96.0693ZM32.3823 101.227C29.9788 105.766 30.8678 110.124 33.2684 112.637C35.6334 115.113 39.9693 116.281 45.2983 113.389C40.9604 110.636 36.0494 106.329 32.3823 101.227Z" fill="#111111"/>
<path fill-rule="evenodd" clip-rule="evenodd" d="M50.933 15.4845C51.2763 14.5339 52.3277 14.0385 53.2815 14.3779L52.6599 16.099C53.2815 14.3779 53.2821 14.3781 53.2827 14.3783L53.2874 14.38L53.2965 14.3833C53.3036 14.3859 53.3128 14.3892 53.3241 14.3934C53.3467 14.4017 53.3775 14.4131 53.416 14.4277C53.4931 14.4569 53.6011 14.4989 53.7362 14.5537C54.0062 14.6633 54.3855 14.8249 54.8422 15.0398C55.7524 15.4683 56.9866 16.1165 58.2813 16.9983C60.8188 18.7267 63.8582 21.5378 64.8151 25.5894C65.047 26.5713 64.4351 27.5565 63.4483 27.7899C62.4615 28.0233 61.4736 27.4166 61.2417 26.4346C60.5938 23.6915 58.4489 21.5461 56.2034 20.0166C55.1065 19.2695 54.0496 18.7135 53.2664 18.3449C52.8765 18.1613 52.5586 18.0262 52.343 17.9387C52.2354 17.895 52.1536 17.8633 52.1014 17.8436C52.0754 17.8337 52.0568 17.8268 52.0461 17.8229L52.0361 17.8192M52.0358 17.8191C52.0358 17.8191 52.0358 17.8191 52.0358 17.8191C51.0837 17.4788 50.59 16.4341 50.933 15.4845L52.0358 17.8191Z" fill="#111111"/>
<path fill-rule="evenodd" clip-rule="evenodd" d="M67.1287 10.186C68.1264 10.3515 68.7985 11.2918 68.6299 12.2863L66.2946 26.0544C66.1259 27.0489 65.1803 27.7209 64.1825 27.5554C63.1847 27.3899 62.5126 26.4495 62.6813 25.4551L65.0166 11.6869C65.1853 10.6925 66.1309 10.0205 67.1287 10.186Z" fill="#111111"/>
<path fill-rule="evenodd" clip-rule="evenodd" d="M52.5689 82.1173C51.3041 81.9634 49.5534 81.9872 47.612 82.7029C46.8708 82.9762 46.0493 82.5998 45.7772 81.8621C45.5052 81.1245 45.8855 80.3049 46.6268 80.0316C49.086 79.1249 51.3121 79.0933 52.9241 79.2896C53.7302 79.3877 54.3876 79.5432 54.8521 79.6777C55.0847 79.7451 55.2699 79.8075 55.4024 79.8553C55.4687 79.8792 55.5219 79.8995 55.5614 79.9151C55.5811 79.9228 55.5974 79.9294 55.6102 79.9347L55.6268 79.9415L55.6331 79.9442L55.6357 79.9453L55.6369 79.9458C55.6375 79.946 55.638 79.9462 55.0742 81.2542L55.638 79.9462C56.3634 80.2548 56.6985 81.0916 56.3866 81.8152C56.0756 82.5367 55.2387 82.8732 54.5148 82.5694C54.5132 82.5687 54.5092 82.5671 54.503 82.5647C54.4883 82.5589 54.4608 82.5483 54.4214 82.5341C54.3424 82.5056 54.2157 82.4625 54.0464 82.4135C53.7071 82.3152 53.2012 82.1943 52.5689 82.1173ZM54.5103 82.5675C54.5103 82.5675 54.5103 82.5675 54.5103 82.5675L54.5103 82.5675L54.5103 82.5675ZM54.5094 82.5671C54.5094 82.5671 54.5094 82.5671 54.5094 82.5671L54.5096 82.5672C54.5095 82.5672 54.5094 82.5671 54.5094 82.5671Z" fill="#111111"/>
<path fill-rule="evenodd" clip-rule="evenodd" d="M85.8567 88.0633C87.3518 88.692 89.2637 89.8224 90.936 91.8261C91.44 92.43 91.3559 93.3282 90.7481 93.8322C90.1403 94.3363 89.2389 94.2553 88.7349 93.6513C87.4148 92.0696 85.9106 91.1815 84.7376 90.6882C84.1512 90.4416 83.652 90.2956 83.3086 90.2126C83.1372 90.1712 83.0058 90.1457 82.923 90.1312C82.8816 90.124 82.8526 90.1196 82.8369 90.1173C82.8302 90.1163 82.826 90.1158 82.8243 90.1155C82.044 90.02 81.4891 89.3139 81.5838 88.535C81.6787 87.7537 82.3912 87.1951 83.1751 87.2873L83.0032 88.7018C83.1751 87.2873 83.1757 87.2874 83.1763 87.2874L83.1776 87.2876L83.1804 87.2879L83.1872 87.2888L83.205 87.291C83.2187 87.2928 83.2362 87.2952 83.2572 87.2983C83.2992 87.3044 83.3555 87.3131 83.425 87.3252C83.5639 87.3495 83.7558 87.3873 83.9912 87.4442C84.4613 87.5578 85.1091 87.7489 85.8567 88.0633Z" fill="#111111"/>
<path d="M68.6111 122.891L63.6255 121.566C62.478 121.261 61.2972 121.941 60.9882 123.085C60.6791 124.228 61.3588 125.403 62.5064 125.707L67.492 127.032C68.6395 127.337 69.8203 126.657 70.1293 125.513C70.4384 124.37 69.7587 123.196 68.6111 122.891Z" fill="#111111"/>
<path fill-rule="evenodd" clip-rule="evenodd" d="M63.2536 122.943C62.8687 122.84 62.4726 123.068 62.3689 123.452C62.2652 123.835 62.4932 124.229 62.8782 124.332L67.8631 125.656C68.2481 125.758 68.6442 125.53 68.7479 125.146C68.8515 124.763 68.6235 124.369 68.2386 124.267L63.2536 122.943ZM59.6079 122.719C60.1223 120.816 62.0874 119.684 63.9972 120.191L68.9821 121.516C70.8919 122.023 72.0232 123.977 71.5088 125.88C70.9945 127.783 69.0293 128.914 67.1195 128.407L62.1346 127.083C60.2248 126.575 59.0936 124.621 59.6079 122.719Z" fill="#111111"/>
</svg>
