<?xml version="1.0" encoding="UTF-8"?>
<svg id="b" data-name="레이어 2" xmlns="http://www.w3.org/2000/svg" viewBox="0 0 147.31 169.12">
  <defs>
    <style>
      .d {
        fill: #f3a89f;
        stroke-width: 0px;
      }

      .e {
        fill: #9dd6e1;
        stroke-width: 2.08px;
      }

      .e, .f, .g, .h, .i {
        stroke: #231815;
        stroke-linecap: round;
        stroke-linejoin: round;
      }

      .f {
        fill: none;
      }

      .f, .i {
        stroke-width: 5.52px;
      }

      .g {
        stroke-width: 3.5px;
      }

      .g, .h {
        fill: #fff;
      }

      .h {
        stroke-width: 2.76px;
      }

      .i {
        fill: #f49e15;
      }
    </style>
  </defs>
  <g id="c" data-name="레이어 1">
    <g>
      <path class="h" d="M145.87,79.35c-1.59,93.16-140.17,93.15-141.75,0,1.59-93.16,140.17-93.15,141.75,0Z"/>
      <line class="f" x1="26.97" y1="21.79" x2="5.32" y2="22.22"/>
      <line class="f" x1="15.99" y1="2.76" x2="28.25" y2="19.96"/>
      <g>
        <path class="d" d="M51.06,116.38c-.38,22.4-33.71,22.4-34.09,0,.38-22.4,33.71-22.4,34.09,0Z"/>
        <path class="d" d="M130.34,116.38c-.38,22.4-33.71,22.4-34.09,0,.38-22.4,33.71-22.4,34.09,0Z"/>
      </g>
      <path class="f" d="M143.45,91.66C125.71,183.13-10.77,159.05,3.86,67.04,21.6-24.43,158.07-.35,143.45,91.66Z"/>
      <g>
        <ellipse class="g" cx="48.01" cy="105.04" rx="4.96" ry="3.85" transform="translate(-25.55 16.01) rotate(-15)"/>
        <g>
          <path class="e" d="M98.51,108h7.36v3.68c0,2.03-1.65,3.68-3.68,3.68h0c-2.03,0-3.68-1.65-3.68-3.68v-3.68h0Z"/>
          <ellipse class="g" cx="101.15" cy="105.04" rx="3.85" ry="4.96" transform="translate(-26.5 175.56) rotate(-75)"/>
        </g>
      </g>
      <path class="i" d="M51.06,146.6c-.04,22.47,26.69,28.59,33.85,3.44-8.69,1.56-22.38,1.02-33.85-3.44"/>
    </g>
  </g>
</svg>