<svg width="106" height="99" viewBox="0 0 106 99" fill="none" xmlns="http://www.w3.org/2000/svg">
<circle cx="53" cy="47" r="45" fill="#E4E4F9"/>
<circle cx="7" cy="72" r="5" fill="#FCC800"/>
<circle cx="96" cy="7" r="5" fill="#FCC800"/>
<circle cx="17.5" cy="73.5" r="2.5" fill="#FCC800"/>
<circle cx="85.5" cy="6.5" r="2.5" fill="#FCC800"/>
<circle cx="99" cy="73" r="1" fill="#FCC800"/>
<circle cx="9.5" cy="94.5" r="2.5" fill="#8889B9"/>
<circle cx="4.5" cy="29.5" r="2.5" fill="#8889B9"/>
<circle cx="101.5" cy="23.5" r="1.5" fill="#8889B9"/>
<mask id="path-10-inside-1_490_1201" fill="white">
<path d="M72.71 37.1768V67.3457C72.7099 69.5547 70.919 71.3456 68.71 71.3457H38C35.7909 71.3457 34 69.5548 34 67.3457V23.792C34 21.5829 35.7909 19.792 38 19.792H59.2568L72.71 37.1768Z"/>
</mask>
<path d="M72.71 37.1768V67.3457C72.7099 69.5547 70.919 71.3456 68.71 71.3457H38C35.7909 71.3457 34 69.5548 34 67.3457V23.792C34 21.5829 35.7909 19.792 38 19.792H59.2568L72.71 37.1768Z" fill="#FEFDEF"/>
<path d="M72.71 37.1768H73.71V36.835L73.5008 36.5648L72.71 37.1768ZM72.71 67.3457L73.71 67.3457V67.3457H72.71ZM68.71 71.3457V72.3457H68.71L68.71 71.3457ZM34 67.3457H33V67.3457L34 67.3457ZM34 23.792L33 23.792V23.792H34ZM59.2568 19.792L60.0477 19.18L59.7474 18.792H59.2568V19.792ZM72.71 37.1768H71.71V67.3457H72.71H73.71V37.1768H72.71ZM72.71 67.3457L71.71 67.3457C71.7099 69.0024 70.3667 70.3456 68.7099 70.3457L68.71 71.3457L68.71 72.3457C71.4712 72.3455 73.7099 70.1071 73.71 67.3457L72.71 67.3457ZM68.71 71.3457V70.3457H38V71.3457V72.3457H68.71V71.3457ZM38 71.3457V70.3457C36.3432 70.3457 35 69.0025 35 67.3457L34 67.3457L33 67.3457C33 70.1071 35.2386 72.3457 38 72.3457V71.3457ZM34 67.3457H35V23.792H34H33V67.3457H34ZM34 23.792L35 23.792C35 22.1351 36.3431 20.792 38 20.792V19.792V18.792C35.2386 18.792 33 21.0306 33 23.792L34 23.792ZM38 19.792V20.792H59.2568V19.792V18.792H38V19.792ZM59.2568 19.792L58.466 20.404L71.9191 37.7888L72.71 37.1768L73.5008 36.5648L60.0477 19.18L59.2568 19.792Z" fill="#4F342F" mask="url(#path-10-inside-1_490_1201)"/>
<mask id="path-12-inside-2_490_1201" fill="white">
<path d="M69.6133 38.21V64.1729C69.6131 66.3817 67.8221 68.1726 65.6133 68.1729H41.0967C38.8877 68.1729 37.097 66.3818 37.0967 64.1729V26.9639C37.0967 24.7547 38.8876 22.9639 41.0967 22.9639H58.3116L69.6133 38.21Z"/>
</mask>
<path d="M69.6133 38.21V64.1729C69.6131 66.3817 67.8221 68.1726 65.6133 68.1729H41.0967C38.8877 68.1729 37.097 66.3818 37.0967 64.1729V26.9639C37.0967 24.7547 38.8876 22.9639 41.0967 22.9639H58.3116L69.6133 38.21Z" fill="#FEFDEF"/>
<path d="M69.6133 38.21H69.7633C69.7633 38.1778 69.753 38.1465 69.7338 38.1206L69.6133 38.21ZM69.6133 64.1729L69.7633 64.1729V64.1729H69.6133ZM65.6133 68.1729V68.3229H65.6134L65.6133 68.1729ZM41.0967 68.1729V68.3229V68.1729ZM37.0967 64.1729H36.9467V64.1729L37.0967 64.1729ZM41.0967 22.9639V22.8139V22.9639ZM58.3116 22.9639L58.4321 22.8745C58.4038 22.8364 58.3591 22.8139 58.3116 22.8139V22.9639ZM68.792 36.8501C68.7427 36.7836 68.6488 36.7696 68.5822 36.819C68.5157 36.8683 68.5017 36.9622 68.551 37.0288L68.792 36.8501ZM66.6674 34.4878C66.7167 34.5543 66.8107 34.5683 66.8772 34.5189C66.9438 34.4696 66.9577 34.3757 66.9084 34.3091L66.6674 34.4878ZM65.0248 31.7681C64.9754 31.7015 64.8815 31.6876 64.8149 31.7369C64.7484 31.7863 64.7344 31.8802 64.7838 31.9467L65.0248 31.7681ZM62.9001 29.4057C62.9495 29.4723 63.0434 29.4862 63.11 29.4369C63.1765 29.3876 63.1905 29.2936 63.1412 29.2271L62.9001 29.4057ZM61.2575 26.6861C61.2082 26.6195 61.1142 26.6056 61.0477 26.6549C60.9811 26.7042 60.9672 26.7982 61.0165 26.8647L61.2575 26.6861ZM59.1329 24.3237C59.1822 24.3903 59.2762 24.4042 59.3427 24.3549C59.4093 24.3055 59.4232 24.2116 59.3739 24.145L59.1329 24.3237ZM56.877 22.8139C56.7942 22.8139 56.727 22.881 56.727 22.9639C56.727 23.0467 56.7942 23.1139 56.877 23.1139V22.8139ZM54.0079 23.1139C54.0907 23.1139 54.1579 23.0467 54.1579 22.9639C54.1579 22.881 54.0907 22.8139 54.0079 22.8139V23.1139ZM51.1387 22.8139C51.0559 22.8139 50.9887 22.881 50.9887 22.9639C50.9887 23.0467 51.0559 23.1139 51.1387 23.1139V22.8139ZM48.2696 23.1139C48.3524 23.1139 48.4196 23.0467 48.4196 22.9639C48.4196 22.881 48.3524 22.8139 48.2696 22.8139V23.1139ZM45.4005 22.8139C45.3176 22.8139 45.2505 22.881 45.2505 22.9639C45.2505 23.0467 45.3176 23.1139 45.4005 23.1139V22.8139ZM42.5313 23.1139C42.6142 23.1139 42.6813 23.0467 42.6813 22.9639C42.6813 22.881 42.6142 22.8139 42.5313 22.8139V23.1139ZM39.5081 23.1288C39.4316 23.1606 39.3953 23.2483 39.427 23.3248C39.4588 23.4014 39.5465 23.4377 39.623 23.4059L39.5081 23.1288ZM37.5388 25.4902C37.5706 25.4137 37.5342 25.3259 37.4577 25.2942C37.3812 25.2624 37.2934 25.2987 37.2617 25.3753L37.5388 25.4902ZM36.9467 28.5142C36.9467 28.5971 37.0139 28.6642 37.0967 28.6642C37.1796 28.6642 37.2467 28.5971 37.2467 28.5142H36.9467ZM37.2467 31.615C37.2467 31.5321 37.1796 31.465 37.0967 31.465C37.0139 31.465 36.9467 31.5321 36.9467 31.615H37.2467ZM36.9467 34.7157C36.9467 34.7986 37.0139 34.8657 37.0967 34.8657C37.1796 34.8657 37.2467 34.7986 37.2467 34.7157H36.9467ZM37.2467 37.8165C37.2467 37.7336 37.1796 37.6665 37.0967 37.6665C37.0139 37.6665 36.9467 37.7336 36.9467 37.8165H37.2467ZM36.9467 40.9172C36.9467 41.0001 37.0139 41.0672 37.0967 41.0672C37.1796 41.0672 37.2467 41.0001 37.2467 40.9172H36.9467ZM37.2467 44.018C37.2467 43.9351 37.1796 43.868 37.0967 43.868C37.0139 43.868 36.9467 43.9351 36.9467 44.018H37.2467ZM36.9467 47.1187C36.9467 47.2016 37.0139 47.2687 37.0967 47.2687C37.1796 47.2687 37.2467 47.2016 37.2467 47.1187H36.9467ZM37.2467 50.2195C37.2467 50.1366 37.1796 50.0695 37.0967 50.0695C37.0139 50.0695 36.9467 50.1366 36.9467 50.2195H37.2467ZM36.9467 53.3202C36.9467 53.4031 37.0139 53.4702 37.0967 53.4702C37.1796 53.4702 37.2467 53.4031 37.2467 53.3202H36.9467ZM37.2467 56.421C37.2467 56.3381 37.1796 56.271 37.0967 56.271C37.0139 56.271 36.9467 56.3381 36.9467 56.421H37.2467ZM36.9467 59.5217C36.9467 59.6046 37.0139 59.6717 37.0967 59.6717C37.1796 59.6717 37.2467 59.6046 37.2467 59.5217H36.9467ZM37.2467 62.6225C37.2467 62.5396 37.1796 62.4725 37.0967 62.4725C37.0139 62.4725 36.9467 62.5396 36.9467 62.6225H37.2467ZM37.2618 65.7614C37.2936 65.8379 37.3813 65.8742 37.4578 65.8425C37.5344 65.8108 37.5707 65.723 37.5389 65.6465L37.2618 65.7614ZM39.6231 67.7307C39.5466 67.699 39.4588 67.7353 39.4271 67.8118C39.3953 67.8883 39.4316 67.9761 39.5082 68.0078L39.6231 67.7307ZM42.629 68.3229C42.7119 68.3229 42.779 68.2557 42.779 68.1729C42.779 68.09 42.7119 68.0229 42.629 68.0229V68.3229ZM45.6936 68.0229C45.6108 68.0229 45.5436 68.09 45.5436 68.1729C45.5436 68.2557 45.6108 68.3229 45.6936 68.3229V68.0229ZM48.7582 68.3229C48.841 68.3229 48.9082 68.2557 48.9082 68.1729C48.9082 68.09 48.841 68.0229 48.7582 68.0229V68.3229ZM51.8228 68.0229C51.7399 68.0229 51.6728 68.09 51.6728 68.1729C51.6728 68.2557 51.7399 68.3229 51.8228 68.3229V68.0229ZM54.8873 68.3229C54.9702 68.3229 55.0373 68.2557 55.0373 68.1729C55.0373 68.09 54.9702 68.0229 54.8873 68.0229V68.3229ZM57.9519 68.0229C57.8691 68.0229 57.8019 68.09 57.8019 68.1729C57.8019 68.2557 57.8691 68.3229 57.9519 68.3229V68.0229ZM61.0165 68.3229C61.0993 68.3229 61.1665 68.2557 61.1665 68.1729C61.1665 68.09 61.0993 68.0229 61.0165 68.0229V68.3229ZM64.0811 68.0229C63.9982 68.0229 63.9311 68.09 63.9311 68.1729C63.9311 68.2557 63.9982 68.3229 64.0811 68.3229V68.0229ZM67.2019 68.0077C67.2784 67.976 67.3147 67.8882 67.2829 67.8117C67.2512 67.7352 67.1634 67.6989 67.0869 67.7306L67.2019 68.0077ZM69.1711 65.6464C69.1394 65.7229 69.1757 65.8107 69.2522 65.8424C69.3287 65.8742 69.4165 65.8379 69.4482 65.7614L69.1711 65.6464ZM69.7633 62.5502C69.7633 62.4673 69.6962 62.4002 69.6133 62.4002C69.5305 62.4002 69.4633 62.4673 69.4633 62.5502H69.7633ZM69.4633 59.3048C69.4633 59.3877 69.5305 59.4548 69.6133 59.4548C69.6962 59.4548 69.7633 59.3877 69.7633 59.3048H69.4633ZM69.7633 56.0594C69.7633 55.9766 69.6962 55.9094 69.6133 55.9094C69.5305 55.9094 69.4633 55.9766 69.4633 56.0594H69.7633ZM69.4633 52.8141C69.4633 52.8969 69.5305 52.9641 69.6133 52.9641C69.6962 52.9641 69.7633 52.8969 69.7633 52.8141H69.4633ZM69.7633 49.5687C69.7633 49.4859 69.6962 49.4187 69.6133 49.4187C69.5305 49.4187 69.4633 49.4859 69.4633 49.5687H69.7633ZM69.4633 46.3234C69.4633 46.4062 69.5305 46.4734 69.6133 46.4734C69.6962 46.4734 69.7633 46.4062 69.7633 46.3234H69.4633ZM69.7633 43.078C69.7633 42.9952 69.6962 42.928 69.6133 42.928C69.5305 42.928 69.4633 42.9952 69.4633 43.078H69.7633ZM69.4633 39.8326C69.4633 39.9155 69.5305 39.9826 69.6133 39.9826C69.6962 39.9826 69.7633 39.9155 69.7633 39.8326H69.4633ZM69.6133 38.21L69.7338 38.1206L68.792 36.8501L68.6715 36.9395L68.551 37.0288L69.4928 38.2993L69.6133 38.21ZM66.7879 34.3984L66.9084 34.3091L65.0248 31.7681L64.9043 31.8574L64.7838 31.9467L66.6674 34.4878L66.7879 34.3984ZM63.0207 29.3164L63.1412 29.2271L61.2575 26.6861L61.137 26.7754L61.0165 26.8647L62.9001 29.4057L63.0207 29.3164ZM59.2534 24.2344L59.3739 24.145L58.4321 22.8745L58.3116 22.9639L58.1911 23.0532L59.1329 24.3237L59.2534 24.2344ZM58.3116 22.9639V22.8139H56.877V22.9639V23.1139H58.3116V22.9639ZM54.0079 22.9639V22.8139H51.1387V22.9639V23.1139H54.0079V22.9639ZM48.2696 22.9639V22.8139H45.4005V22.9639V23.1139H48.2696V22.9639ZM42.5313 22.9639V22.8139H41.0967V22.9639V23.1139H42.5313V22.9639ZM41.0967 22.9639V22.8139C40.5343 22.8139 39.9977 22.9258 39.5081 23.1288L39.5656 23.2674L39.623 23.4059C40.0768 23.2178 40.5744 23.1139 41.0967 23.1139V22.9639ZM37.4003 25.4327L37.2617 25.3753C37.0587 25.8648 36.9467 26.4014 36.9467 26.9639H37.0967H37.2467C37.2467 26.4416 37.3507 25.9439 37.5388 25.4902L37.4003 25.4327ZM37.0967 26.9639H36.9467V28.5142H37.0967H37.2467V26.9639H37.0967ZM37.0967 31.615H36.9467V34.7157H37.0967H37.2467V31.615H37.0967ZM37.0967 37.8165H36.9467V40.9172H37.0967H37.2467V37.8165H37.0967ZM37.0967 44.018H36.9467V47.1187H37.0967H37.2467V44.018H37.0967ZM37.0967 50.2195H36.9467V53.3202H37.0967H37.2467V50.2195H37.0967ZM37.0967 56.421H36.9467V59.5217H37.0967H37.2467V56.421H37.0967ZM37.0967 62.6225H36.9467V64.1729H37.0967H37.2467V62.6225H37.0967ZM37.0967 64.1729L36.9467 64.1729C36.9468 64.7353 37.0588 65.2719 37.2618 65.7614L37.4004 65.7039L37.5389 65.6465C37.3508 65.1927 37.2468 64.6951 37.2467 64.1728L37.0967 64.1729ZM39.5656 67.8693L39.5082 68.0078C39.9977 68.2109 40.5343 68.3229 41.0967 68.3229V68.1729V68.0229C40.5745 68.0229 40.0768 67.9189 39.6231 67.7307L39.5656 67.8693ZM41.0967 68.1729V68.3229H42.629V68.1729V68.0229H41.0967V68.1729ZM45.6936 68.1729V68.3229H48.7582V68.1729V68.0229H45.6936V68.1729ZM51.8228 68.1729V68.3229H54.8873V68.1729V68.0229H51.8228V68.1729ZM57.9519 68.1729V68.3229H61.0165V68.1729V68.0229H57.9519V68.1729ZM64.0811 68.1729V68.3229H65.6133V68.1729V68.0229H64.0811V68.1729ZM65.6133 68.1729L65.6134 68.3229C66.1757 68.3228 66.7124 68.2108 67.2019 68.0077L67.1444 67.8692L67.0869 67.7306C66.6332 67.9188 66.1356 68.0228 65.6133 68.0229L65.6133 68.1729ZM69.3097 65.7039L69.4482 65.7614C69.6513 65.2719 69.7633 64.7352 69.7633 64.1729L69.6133 64.1729L69.4633 64.1728C69.4633 64.6951 69.3593 65.1927 69.1711 65.6464L69.3097 65.7039ZM69.6133 64.1729H69.7633V62.5502H69.6133H69.4633V64.1729H69.6133ZM69.6133 59.3048H69.7633V56.0594H69.6133H69.4633V59.3048H69.6133ZM69.6133 52.8141H69.7633V49.5687H69.6133H69.4633V52.8141H69.6133ZM69.6133 46.3234H69.7633V43.078H69.6133H69.4633V46.3234H69.6133ZM69.6133 39.8326H69.7633V38.21H69.6133H69.4633V39.8326H69.6133ZM69.6133 38.21H69.9133C69.9133 38.1456 69.8927 38.083 69.8543 38.0313L69.6133 38.21ZM69.6133 64.1729L69.9133 64.1729V64.1729H69.6133ZM65.6133 68.1729V68.4729H65.6134L65.6133 68.1729ZM41.0967 68.1729V68.4729V68.1729ZM37.0967 64.1729H36.7967V64.1729L37.0967 64.1729ZM41.0967 22.9639V22.6639V22.9639ZM58.3116 22.9639L58.5526 22.7852C58.496 22.7089 58.4066 22.6639 58.3116 22.6639V22.9639ZM68.9125 36.7608C68.8139 36.6277 68.626 36.5998 68.4929 36.6984C68.3598 36.7971 68.3319 36.985 68.4305 37.1181L68.9125 36.7608ZM66.5469 34.5771C66.6456 34.7102 66.8335 34.7381 66.9666 34.6394C67.0997 34.5408 67.1276 34.3529 67.0289 34.2198L66.5469 34.5771ZM65.1453 31.6788C65.0466 31.5457 64.8587 31.5178 64.7256 31.6164C64.5925 31.7151 64.5646 31.903 64.6633 32.0361L65.1453 31.6788ZM62.7796 29.4951C62.8783 29.6282 63.0662 29.6561 63.1993 29.5574C63.3324 29.4587 63.3603 29.2709 63.2617 29.1378L62.7796 29.4951ZM61.378 26.5967C61.2794 26.4636 61.0915 26.4357 60.9584 26.5344C60.8253 26.6331 60.7974 26.8209 60.896 26.954L61.378 26.5967ZM59.0124 24.413C59.1111 24.5461 59.2989 24.574 59.4321 24.4754C59.5652 24.3767 59.5931 24.1888 59.4944 24.0557L59.0124 24.413ZM56.877 22.6639C56.7113 22.6639 56.577 22.7982 56.577 22.9639C56.577 23.1296 56.7113 23.2639 56.877 23.2639V22.6639ZM54.0079 23.2639C54.1736 23.2639 54.3079 23.1296 54.3079 22.9639C54.3079 22.7982 54.1736 22.6639 54.0079 22.6639V23.2639ZM51.1387 22.6639C50.973 22.6639 50.8387 22.7982 50.8387 22.9639C50.8387 23.1296 50.973 23.2639 51.1387 23.2639V22.6639ZM48.2696 23.2639C48.4353 23.2639 48.5696 23.1296 48.5696 22.9639C48.5696 22.7982 48.4353 22.6639 48.2696 22.6639V23.2639ZM45.4005 22.6639C45.2348 22.6639 45.1005 22.7982 45.1005 22.9639C45.1005 23.1296 45.2348 23.2639 45.4005 23.2639V22.6639ZM42.5313 23.2639C42.697 23.2639 42.8313 23.1296 42.8313 22.9639C42.8313 22.7982 42.697 22.6639 42.5313 22.6639V23.2639ZM39.4507 22.9903C39.2976 23.0537 39.225 23.2293 39.2885 23.3823C39.3519 23.5354 39.5275 23.608 39.6805 23.5445L39.4507 22.9903ZM37.6774 25.5476C37.7408 25.3946 37.6682 25.2191 37.5152 25.1556C37.3621 25.0921 37.1866 25.1648 37.1231 25.3178L37.6774 25.5476ZM36.7967 28.5142C36.7967 28.6799 36.9311 28.8142 37.0967 28.8142C37.2624 28.8142 37.3967 28.6799 37.3967 28.5142H36.7967ZM37.3967 31.615C37.3967 31.4493 37.2624 31.315 37.0967 31.315C36.9311 31.315 36.7967 31.4493 36.7967 31.615H37.3967ZM36.7967 34.7157C36.7967 34.8814 36.9311 35.0157 37.0967 35.0157C37.2624 35.0157 37.3967 34.8814 37.3967 34.7157H36.7967ZM37.3967 37.8165C37.3967 37.6508 37.2624 37.5165 37.0967 37.5165C36.9311 37.5165 36.7967 37.6508 36.7967 37.8165H37.3967ZM36.7967 40.9172C36.7967 41.0829 36.9311 41.2172 37.0967 41.2172C37.2624 41.2172 37.3967 41.0829 37.3967 40.9172H36.7967ZM37.3967 44.018C37.3967 43.8523 37.2624 43.718 37.0967 43.718C36.9311 43.718 36.7967 43.8523 36.7967 44.018H37.3967ZM36.7967 47.1187C36.7967 47.2844 36.9311 47.4187 37.0967 47.4187C37.2624 47.4187 37.3967 47.2844 37.3967 47.1187H36.7967ZM37.3967 50.2195C37.3967 50.0538 37.2624 49.9195 37.0967 49.9195C36.9311 49.9195 36.7967 50.0538 36.7967 50.2195H37.3967ZM36.7967 53.3202C36.7967 53.4859 36.9311 53.6202 37.0967 53.6202C37.2624 53.6202 37.3967 53.4859 37.3967 53.3202H36.7967ZM37.3967 56.421C37.3967 56.2553 37.2624 56.121 37.0967 56.121C36.9311 56.121 36.7967 56.2553 36.7967 56.421H37.3967ZM36.7967 59.5217C36.7967 59.6874 36.9311 59.8217 37.0967 59.8217C37.2624 59.8217 37.3967 59.6874 37.3967 59.5217H36.7967ZM37.3967 62.6225C37.3967 62.4568 37.2624 62.3225 37.0967 62.3225C36.9311 62.3225 36.7967 62.4568 36.7967 62.6225H37.3967ZM37.1233 65.8189C37.1867 65.9719 37.3623 66.0445 37.5153 65.9811C37.6684 65.9176 37.741 65.7421 37.6775 65.589L37.1233 65.8189ZM39.6806 67.5922C39.5275 67.5287 39.352 67.6013 39.2885 67.7544C39.225 67.9074 39.2977 68.0829 39.4507 68.1464L39.6806 67.5922ZM42.629 68.4729C42.7947 68.4729 42.929 68.3385 42.929 68.1729C42.929 68.0072 42.7947 67.8729 42.629 67.8729V68.4729ZM45.6936 67.8729C45.5279 67.8729 45.3936 68.0072 45.3936 68.1729C45.3936 68.3385 45.5279 68.4729 45.6936 68.4729V67.8729ZM48.7582 68.4729C48.9239 68.4729 49.0582 68.3385 49.0582 68.1729C49.0582 68.0072 48.9239 67.8729 48.7582 67.8729V68.4729ZM51.8228 67.8729C51.6571 67.8729 51.5228 68.0072 51.5228 68.1729C51.5228 68.3385 51.6571 68.4729 51.8228 68.4729V67.8729ZM54.8873 68.4729C55.053 68.4729 55.1873 68.3385 55.1873 68.1729C55.1873 68.0072 55.053 67.8729 54.8873 67.8729V68.4729ZM57.9519 67.8729C57.7862 67.8729 57.6519 68.0072 57.6519 68.1729C57.6519 68.3385 57.7862 68.4729 57.9519 68.4729V67.8729ZM61.0165 68.4729C61.1822 68.4729 61.3165 68.3385 61.3165 68.1729C61.3165 68.0072 61.1822 67.8729 61.0165 67.8729V68.4729ZM64.0811 67.8729C63.9154 67.8729 63.7811 68.0072 63.7811 68.1729C63.7811 68.3385 63.9154 68.4729 64.0811 68.4729V67.8729ZM67.2593 68.1463C67.4124 68.0828 67.485 67.9072 67.4215 67.7542C67.358 67.6012 67.1825 67.5286 67.0294 67.592L67.2593 68.1463ZM69.0325 65.5889C68.9691 65.742 69.0417 65.9175 69.1947 65.981C69.3477 66.0445 69.5233 65.9719 69.5868 65.8188L69.0325 65.5889ZM69.9133 62.5502C69.9133 62.3845 69.779 62.2502 69.6133 62.2502C69.4477 62.2502 69.3133 62.3845 69.3133 62.5502H69.9133ZM69.3133 59.3048C69.3133 59.4705 69.4477 59.6048 69.6133 59.6048C69.779 59.6048 69.9133 59.4705 69.9133 59.3048H69.3133ZM69.9133 56.0594C69.9133 55.8938 69.779 55.7594 69.6133 55.7594C69.4477 55.7594 69.3133 55.8938 69.3133 56.0594H69.9133ZM69.3133 52.8141C69.3133 52.9798 69.4477 53.1141 69.6133 53.1141C69.779 53.1141 69.9133 52.9798 69.9133 52.8141H69.3133ZM69.9133 49.5687C69.9133 49.403 69.779 49.2687 69.6133 49.2687C69.4477 49.2687 69.3133 49.403 69.3133 49.5687H69.9133ZM69.3133 46.3234C69.3133 46.489 69.4477 46.6234 69.6133 46.6234C69.779 46.6234 69.9133 46.489 69.9133 46.3234H69.3133ZM69.9133 43.078C69.9133 42.9123 69.779 42.778 69.6133 42.778C69.4477 42.778 69.3133 42.9123 69.3133 43.078H69.9133ZM69.3133 39.8326C69.3133 39.9983 69.4477 40.1326 69.6133 40.1326C69.779 40.1326 69.9133 39.9983 69.9133 39.8326H69.3133ZM69.6133 38.21L69.8543 38.0313L68.9125 36.7608L68.6715 36.9395L68.4305 37.1181L69.3723 38.3886L69.6133 38.21ZM66.7879 34.3984L67.0289 34.2198L65.1453 31.6788L64.9043 31.8574L64.6633 32.0361L66.5469 34.5771L66.7879 34.3984ZM63.0207 29.3164L63.2617 29.1378L61.378 26.5967L61.137 26.7754L60.896 26.954L62.7796 29.4951L63.0207 29.3164ZM59.2534 24.2344L59.4944 24.0557L58.5526 22.7852L58.3116 22.9639L58.0706 23.1425L59.0124 24.413L59.2534 24.2344ZM58.3116 22.9639V22.6639H56.877V22.9639V23.2639H58.3116V22.9639ZM54.0079 22.9639V22.6639H51.1387V22.9639V23.2639H54.0079V22.9639ZM48.2696 22.9639V22.6639H45.4005V22.9639V23.2639H48.2696V22.9639ZM42.5313 22.9639V22.6639H41.0967V22.9639V23.2639H42.5313V22.9639ZM41.0967 22.9639V22.6639C40.5142 22.6639 39.9581 22.7799 39.4507 22.9903L39.5656 23.2674L39.6805 23.5445C40.1163 23.3638 40.5945 23.2639 41.0967 23.2639V22.9639ZM37.4003 25.4327L37.1231 25.3178C36.9127 25.8252 36.7967 26.3814 36.7967 26.9639H37.0967H37.3967C37.3967 26.4616 37.4966 25.9835 37.6774 25.5476L37.4003 25.4327ZM37.0967 26.9639H36.7967V28.5142H37.0967H37.3967V26.9639H37.0967ZM37.0967 31.615H36.7967V34.7157H37.0967H37.3967V31.615H37.0967ZM37.0967 37.8165H36.7967V40.9172H37.0967H37.3967V37.8165H37.0967ZM37.0967 44.018H36.7967V47.1187H37.0967H37.3967V44.018H37.0967ZM37.0967 50.2195H36.7967V53.3202H37.0967H37.3967V50.2195H37.0967ZM37.0967 56.421H36.7967V59.5217H37.0967H37.3967V56.421H37.0967ZM37.0967 62.6225H36.7967V64.1729H37.0967H37.3967V62.6225H37.0967ZM37.0967 64.1729L36.7967 64.1729C36.7968 64.7553 36.9128 65.3115 37.1233 65.8189L37.4004 65.7039L37.6775 65.589C37.4967 65.1532 37.3968 64.675 37.3967 64.1728L37.0967 64.1729ZM39.5656 67.8693L39.4507 68.1464C39.9581 68.3568 40.5143 68.4729 41.0967 68.4729V68.1729V67.8729C40.5945 67.8729 40.1164 67.7729 39.6806 67.5922L39.5656 67.8693ZM41.0967 68.1729V68.4729H42.629V68.1729V67.8729H41.0967V68.1729ZM45.6936 68.1729V68.4729H48.7582V68.1729V67.8729H45.6936V68.1729ZM51.8228 68.1729V68.4729H54.8873V68.1729V67.8729H51.8228V68.1729ZM57.9519 68.1729V68.4729H61.0165V68.1729V67.8729H57.9519V68.1729ZM64.0811 68.1729V68.4729H65.6133V68.1729V67.8729H64.0811V68.1729ZM65.6133 68.1729L65.6134 68.4729C66.1958 68.4728 66.7519 68.3567 67.2593 68.1463L67.1444 67.8692L67.0294 67.592C66.5936 67.7728 66.1155 67.8728 65.6133 67.8729L65.6133 68.1729ZM69.3097 65.7039L69.5868 65.8188C69.7972 65.3114 69.9133 64.7553 69.9133 64.1729L69.6133 64.1729L69.3133 64.1728C69.3133 64.675 69.2133 65.1531 69.0325 65.5889L69.3097 65.7039ZM69.6133 64.1729H69.9133V62.5502H69.6133H69.3133V64.1729H69.6133ZM69.6133 59.3048H69.9133V56.0594H69.6133H69.3133V59.3048H69.6133ZM69.6133 52.8141H69.9133V49.5687H69.6133H69.3133V52.8141H69.6133ZM69.6133 46.3234H69.9133V43.078H69.6133H69.3133V46.3234H69.6133ZM69.6133 39.8326H69.9133V38.21H69.6133H69.3133V39.8326H69.6133Z" fill="#4F342F" mask="url(#path-12-inside-2_490_1201)"/>
<path d="M59.8862 35.5392C58.7913 35.2511 58.032 34.2375 58.0438 33.0794L58.1502 22.6313C58.1749 20.2256 61.1602 19.1933 62.5866 21.0972L72.3595 34.1447C73.7859 36.0491 72.0398 38.7363 69.765 38.1378L59.8862 35.5392Z" fill="#FEF6AA" stroke="#4F342F"/>
<path d="M40.9678 37.2402H52.1936" stroke="#111111" stroke-linecap="round"/>
<path d="M40.9678 43.5859H55.6775" stroke="#111111" stroke-linecap="round"/>
<path d="M40.9678 49.9307H55.6775" stroke="#111111" stroke-linecap="round"/>
<path d="M58 49.9307H63.4194" stroke="#111111"/>
<path d="M48.7097 54.6895H63.4193" stroke="#111111" stroke-linecap="round"/>
<path d="M58 49.9307H63.4194" stroke="#111111" stroke-linecap="round"/>
<path d="M40.9678 30.8955H46.3871" stroke="#111111" stroke-linecap="round"/>
<path d="M40.9678 54.6895H46.3871" stroke="#111111" stroke-linecap="round"/>
<path d="M40.9678 59.4482H51.0323" stroke="#111111" stroke-linecap="round"/>
</svg>
