<svg width="17" height="20" viewBox="0 0 17 20" fill="none" xmlns="http://www.w3.org/2000/svg">
<path d="M8.24446 17.8473C12.627 17.8473 16.1798 14.2945 16.1798 9.91194C16.1798 5.52935 12.627 1.97656 8.24446 1.97656C3.86187 1.97656 0.309082 5.52935 0.309082 9.91194C0.309082 14.2945 3.86187 17.8473 8.24446 17.8473Z" fill="white"/>
<path fill-rule="evenodd" clip-rule="evenodd" d="M8.24479 2.13054C3.9476 2.13054 0.464036 5.6141 0.464036 9.91129C0.464036 14.2085 3.9476 17.692 8.24479 17.692C12.542 17.692 16.0255 14.2085 16.0255 9.91129C16.0255 5.6141 12.542 2.13054 8.24479 2.13054ZM0.154785 9.91129C0.154785 5.44331 3.7768 1.82129 8.24479 1.82129C12.7128 1.82129 16.3348 5.44331 16.3348 9.91129C16.3348 14.3793 12.7128 18.0013 8.24479 18.0013C3.7768 18.0013 0.154785 14.3793 0.154785 9.91129Z" fill="black"/>
<path d="M5.62859 17.4416C5.57602 18.3693 6.2007 19.2661 6.85322 19.563C7.77479 19.9805 8.97468 19.328 9.42 17.825C8.44896 17.9982 6.91507 17.9395 5.63168 17.4385" fill="#F49E15"/>
<path fill-rule="evenodd" clip-rule="evenodd" d="M5.40726 17.225C5.49125 17.1368 5.62334 17.1031 5.74382 17.1502C6.96861 17.6283 8.44417 17.6847 9.36539 17.5204C9.47096 17.5015 9.57874 17.5387 9.65021 17.6187C9.72169 17.6986 9.74666 17.8098 9.7162 17.9127C9.24335 19.5085 7.89109 20.3726 6.7253 19.8445L6.72484 19.8443C6.33133 19.6652 5.96888 19.3187 5.71249 18.9002C5.45464 18.4794 5.28905 17.9615 5.31952 17.4238C5.32393 17.3461 5.35672 17.2766 5.40726 17.225ZM5.96641 17.8817C6.01331 18.1269 6.10952 18.3643 6.23987 18.5771C6.44576 18.9131 6.7218 19.1633 6.98075 19.2812C7.57807 19.5516 8.46311 19.2406 8.95039 18.1965C8.08504 18.2695 6.98263 18.1934 5.96641 17.8817Z" fill="black"/>
<path d="M3.94275 16.2263C4.99655 16.2263 5.85082 15.372 5.85082 14.3182C5.85082 13.2644 4.99655 12.4102 3.94275 12.4102C2.88894 12.4102 2.03467 13.2644 2.03467 14.3182C2.03467 15.372 2.88894 16.2263 3.94275 16.2263Z" fill="#F3A89F"/>
<path fill-rule="evenodd" clip-rule="evenodd" d="M2.35747 1.57433C2.37126 1.40409 2.52045 1.27727 2.69069 1.29107L2.66571 1.59931C2.69069 1.29107 2.69058 1.29106 2.69069 1.29107L2.69174 1.29115L2.69337 1.29129L2.69832 1.29173C2.70236 1.2921 2.70789 1.29262 2.71481 1.29333C2.72864 1.29474 2.74809 1.29688 2.77252 1.29994C2.82133 1.30606 2.89024 1.31591 2.9741 1.33111C3.14124 1.3614 3.37085 1.41349 3.62056 1.5012C4.11003 1.67311 4.72887 2.00038 5.06271 2.62195C5.14352 2.77241 5.08706 2.9599 4.93659 3.04072C4.78613 3.12153 4.59864 3.06507 4.51782 2.9146C4.29192 2.49399 3.84848 2.23678 3.41561 2.08475C3.20415 2.01049 3.00757 1.96575 2.86381 1.9397C2.79223 1.92672 2.73452 1.91852 2.69557 1.91364C2.67611 1.9112 2.66139 1.90959 2.65204 1.90864L2.64212 1.90767L2.64074 1.90755C2.47059 1.89367 2.34368 1.74451 2.35747 1.57433Z" fill="black"/>
<path fill-rule="evenodd" clip-rule="evenodd" d="M4.7607 0.00143474C4.93071 -0.0148741 5.08176 0.109729 5.09807 0.279743L5.32382 2.63314C5.34013 2.80316 5.21553 2.9542 5.04551 2.97051C4.8755 2.98682 4.72445 2.86222 4.70814 2.6922L4.48239 0.338802C4.46608 0.168788 4.59069 0.0177436 4.7607 0.00143474Z" fill="black"/>
<path d="M5.37192 13.0534C5.69301 13.0534 5.95331 12.7931 5.95331 12.472C5.95331 12.1509 5.69301 11.8906 5.37192 11.8906C5.05083 11.8906 4.79053 12.1509 4.79053 12.472C4.79053 12.7931 5.05083 13.0534 5.37192 13.0534Z" fill="black"/>
<path d="M12.8182 15.7068C13.872 15.7068 14.7263 14.8525 14.7263 13.7987C14.7263 12.7449 13.872 11.8906 12.8182 11.8906C11.7644 11.8906 10.9102 12.7449 10.9102 13.7987C10.9102 14.8525 11.7644 15.7068 12.8182 15.7068Z" fill="#F3A89F"/>
<path d="M10.9907 12.9912C11.2777 12.9912 11.5103 12.7586 11.5103 12.4717C11.5103 12.1848 11.2777 11.9521 10.9907 11.9521C10.7038 11.9521 10.4712 12.1848 10.4712 12.4717C10.4712 12.7586 10.7038 12.9912 10.9907 12.9912Z" fill="black"/>
<path fill-rule="evenodd" clip-rule="evenodd" d="M8.24463 2.28549C4.03283 2.28549 0.618502 5.69983 0.618502 9.91162C0.618502 14.1234 4.03283 17.5377 8.24463 17.5377C12.4564 17.5377 15.8708 14.1234 15.8708 9.91162C15.8708 5.69983 12.4564 2.28549 8.24463 2.28549ZM0 9.91162C0 5.35824 3.69125 1.66699 8.24463 1.66699C12.798 1.66699 16.4893 5.35824 16.4893 9.91162C16.4893 14.465 12.798 18.1562 8.24463 18.1562C3.69125 18.1562 0 14.465 0 9.91162Z" fill="black"/>
</svg>
