<?xml version="1.0" encoding="UTF-8"?>
<svg id="b" data-name="레이어 2" xmlns="http://www.w3.org/2000/svg" viewBox="0 0 147.31 169.12">
  <defs>
    <style>
      .d {
        fill: #f3a89f;
      }

      .d, .e {
        stroke-width: 0px;
      }

      .f {
        fill: #9dd6e1;
        stroke-width: 2.08px;
      }

      .f, .g, .h, .i, .j {
        stroke: #231815;
        stroke-linecap: round;
        stroke-linejoin: round;
      }

      .e {
        fill: #231815;
      }

      .g, .i {
        fill: none;
      }

      .g, .j {
        stroke-width: 5.52px;
      }

      .h {
        fill: #fff;
        stroke-width: 2.76px;
      }

      .i {
        stroke-width: 5px;
      }

      .j {
        fill: #f49e15;
      }
    </style>
  </defs>
  <g id="c" data-name="레이어 1">
    <g>
      <path class="h" d="M145.87,79.35c-1.59,93.16-140.17,93.15-141.75,0,1.59-93.16,140.17-93.15,141.75,0Z"/>
      <path class="j" d="M50.29,146.6c-.04,22.47,26.69,28.59,33.85,3.44-8.69,1.56-22.38,1.02-33.85-3.44"/>
      <line class="g" x1="26.97" y1="21.79" x2="5.32" y2="22.22"/>
      <line class="g" x1="15.99" y1="2.76" x2="28.25" y2="19.96"/>
      <g>
        <path class="d" d="M51.06,116.38c-.38,22.4-33.71,22.4-34.09,0,.38-22.4,33.71-22.4,34.09,0Z"/>
        <path class="d" d="M130.34,116.38c-.38,22.4-33.71,22.4-34.09,0,.38-22.4,33.71-22.4,34.09,0Z"/>
      </g>
      <path class="g" d="M143.45,91.66C125.71,183.13-10.77,159.05,3.86,67.04,21.6-24.43,158.07-.35,143.45,91.66Z"/>
      <path class="e" d="M41.44,112.32c-.92,0-1.81-.51-2.25-1.4-.61-1.24-.1-2.74,1.14-3.35l5.46-2.68-5.58-3.14c-1.2-.68-1.63-2.2-.95-3.41.68-1.2,2.2-1.63,3.4-.95l9.72,5.47c.81.46,1.3,1.32,1.27,2.25-.03.93-.56,1.76-1.4,2.17l-9.72,4.77c-.35.17-.73.26-1.1.26Z"/>
      <path class="f" d="M98.51,108.17h7.36v3.68c0,2.03-1.65,3.68-3.68,3.68h0c-2.03,0-3.68-1.65-3.68-3.68v-3.68h0Z"/>
      <polyline class="i" points="105.87 99.58 96.16 105.05 105.87 109.82"/>
    </g>
  </g>
</svg>