<svg width="106" height="99" viewBox="0 0 106 99" fill="none" xmlns="http://www.w3.org/2000/svg">
<circle cx="53" cy="47" r="45" fill="#FCE0A2"/>
<rect x="25.6914" y="41.6596" width="52" height="29" rx="4.5" transform="rotate(-14 25.6914 41.6596)" fill="#98A94F" stroke="#4F342F"/>
<rect x="30.5948" y="43.0371" width="44.3345" height="23.667" rx="2.75" transform="rotate(-14 30.5948 43.0371)" fill="#74A025" stroke="#4F342F" stroke-width="0.5"/>
<rect x="21.6061" y="37.186" width="52" height="29" rx="4.5" transform="rotate(-14 21.6061 37.186)" fill="#C0D078" stroke="#4F342F"/>
<rect x="26.5095" y="38.5634" width="44.3345" height="23.667" rx="2.75" transform="rotate(-14 26.5095 38.5634)" fill="#9BC651" stroke="#4F342F" stroke-width="0.5"/>
<circle cx="50.9147" cy="44.5259" r="4.75" fill="#C0D078" stroke="#4F342F" stroke-width="0.5"/>
<circle cx="40.4147" cy="47.0259" r="1.25" fill="#C0D078" stroke="#4F342F" stroke-width="0.5"/>
<circle cx="60.4147" cy="42.0259" r="1.25" fill="#C0D078" stroke="#4F342F" stroke-width="0.5"/>
<circle cx="79" cy="57" r="9.75" fill="#F49E15" stroke="#4F342F" stroke-width="0.5"/>
<circle cx="79" cy="57" r="6.75" fill="#F49E15" stroke="#4F342F" stroke-width="0.5"/>
<path d="M78.8613 61.8887V61.0977C77.377 61.0146 76.4541 60.2334 76.4004 58.9199H77.6504C77.7041 59.5742 78.1973 59.9355 78.8613 60.0039V57.9141L78.4707 57.8164C77.3086 57.5137 76.5859 56.9277 76.5859 55.9121C76.5859 54.7549 77.543 53.959 78.8613 53.8418V53.041H79.4277V53.8418C80.7949 53.9248 81.7031 54.7451 81.7227 55.873H80.502C80.4482 55.3408 80.043 55.0039 79.4277 54.9258V56.8984L79.75 56.9863C80.8047 57.2305 81.8203 57.7871 81.8203 59.0176C81.8203 60.1895 80.9512 61.0098 79.4277 61.0977V61.8887H78.8613ZM77.875 55.834C77.875 56.3516 78.3486 56.6055 78.8613 56.752V54.9355C78.2412 55.0234 77.875 55.375 77.875 55.834ZM79.4277 60.0039C80.1064 59.9209 80.5508 59.54 80.5508 59.0078C80.5508 58.4902 80.1016 58.251 79.4277 58.0605V60.0039Z" fill="#4F342F"/>
<circle cx="67" cy="64" r="7.75" fill="#F49E15" stroke="#4F342F" stroke-width="0.5"/>
<circle cx="67" cy="63.9999" r="5.35" fill="#F49E15" stroke="#4F342F" stroke-width="0.5"/>
<path d="M67.2506 66.7334V66.2588C66.36 66.209 65.8063 65.7402 65.774 64.9521H66.524C66.5563 65.3447 66.8522 65.5615 67.2506 65.6025V64.3486L67.0162 64.29C66.319 64.1084 65.8854 63.7568 65.8854 63.1475C65.8854 62.4531 66.4596 61.9756 67.2506 61.9053V61.4248H67.5904V61.9053C68.4107 61.9551 68.9557 62.4473 68.9674 63.124H68.235C68.2027 62.8047 67.9596 62.6025 67.5904 62.5557V63.7393L67.7838 63.792C68.4166 63.9385 69.026 64.2725 69.026 65.0107C69.026 65.7139 68.5045 66.2061 67.5904 66.2588V66.7334H67.2506ZM66.6588 63.1006C66.6588 63.4111 66.943 63.5635 67.2506 63.6514V62.5615C66.8785 62.6143 66.6588 62.8252 66.6588 63.1006ZM67.5904 65.6025C67.9977 65.5527 68.2643 65.3242 68.2643 65.0049C68.2643 64.6943 67.9947 64.5508 67.5904 64.4365V65.6025Z" fill="#4F342F"/>
<circle cx="7" cy="72" r="5" fill="#FCC800"/>
<circle cx="96" cy="7" r="5" fill="#FCC800"/>
<circle cx="17.5" cy="73.5" r="2.5" fill="#FCC800"/>
<circle cx="85.5" cy="6.5" r="2.5" fill="#FCC800"/>
<circle cx="99" cy="73" r="1" fill="#FCC800"/>
<circle cx="9.5" cy="94.5" r="2.5" fill="#FF6666"/>
<circle cx="4.5" cy="29.5" r="2.5" fill="#FF6666"/>
<circle cx="101.5" cy="23.5" r="1.5" fill="#FF6666"/>
</svg>
