<?xml version="1.0" encoding="UTF-8"?>
<svg id="b" data-name="레이어 2" xmlns="http://www.w3.org/2000/svg" viewBox="0 0 147.31 167.27">
  <defs>
    <style>
      .d {
        fill: #f3a89f;
        stroke-width: 0px;
      }

      .e {
        stroke-miterlimit: 10;
        stroke-width: 5px;
      }

      .e, .f {
        fill: none;
      }

      .e, .f, .g, .h {
        stroke: #231815;
        stroke-linecap: round;
      }

      .f, .g, .h {
        stroke-linejoin: round;
      }

      .f, .h {
        stroke-width: 5.52px;
      }

      .g {
        fill: #fff;
        stroke-width: 2.76px;
      }

      .h {
        fill: #f49e15;
      }
    </style>
  </defs>
  <g id="c" data-name="레이어 1">
    <path class="g" d="M144.1,77.51c-1.59,93.16-140.17,93.15-141.75,0,1.59-93.16,140.17-93.15,141.75,0Z"/>
    <path class="h" d="M50.29,144.75c-.04,22.47,26.69,28.59,33.85,3.44-8.69,1.56-22.38,1.02-33.85-3.44"/>
    <path class="d" d="M52.27,114.54c-.38,22.4-33.71,22.4-34.09,0,.38-22.4,33.71-22.4,34.09,0Z"/>
    <g>
      <path class="f" d="M26.97,19.95c-8.98-5.55-21.66.44-21.66.44"/>
      <path class="f" d="M14.26,2.76c13.61,4.16,15.95,13.84,15.95,13.84"/>
    </g>
    <path class="d" d="M131.55,114.54c-.38,22.4-33.71,22.4-34.09,0,.38-22.4,33.71-22.4,34.09,0Z"/>
    <path class="f" d="M143.45,89.82C125.71,181.29-10.77,157.21,3.86,65.2,21.6-26.27,158.07-2.19,143.45,89.82Z"/>
    <path class="e" d="M39.23,99.34c8.06,4.94,13.69-2.48,13.69-2.48"/>
    <path class="e" d="M108.09,99.34c-8.06,4.94-13.69-2.48-13.69-2.48"/>
  </g>
</svg>