<?xml version="1.0" encoding="UTF-8"?>
<svg id="b" data-name="레이어 2" xmlns="http://www.w3.org/2000/svg" viewBox="0 0 159.19 160.85">
  <defs>
    <style>
      .d {
        fill: #f3a89f;
        stroke-width: 0px;
      }

      .e {
        fill: none;
        stroke-width: 5.52px;
      }

      .e, .f, .g, .h {
        stroke: #231815;
        stroke-linecap: round;
        stroke-linejoin: round;
      }

      .f {
        fill: #fff;
        stroke-width: 2.76px;
      }

      .g {
        fill: #231815;
        stroke-width: 3.01px;
      }

      .h {
        fill: #f49e15;
        stroke-width: 5.88px;
      }
    </style>
  </defs>
  <g id="c" data-name="레이어 1">
    <g>
      <path class="h" d="M111.31,124.78c63.12,17.73,58.96,27.75-7.51,25.91l7.51-25.91"/>
      <path class="f" d="M143.45,100.39C125.71,191.87-10.77,167.79,3.86,75.78,21.6-15.69,158.07,8.39,143.45,100.39Z"/>
      <path class="d" d="M50.99,124.78c-.38,22.4-33.71,22.4-34.09,0,.38-22.4,33.71-22.4,34.09,0Z"/>
      <line class="e" x1="41.73" y1="24.73" x2="14.72" y2="24.1"/>
      <line class="e" x1="12.85" y1="2.76" x2="43.75" y2="23.78"/>
      <path class="d" d="M132.02,123.52c-.38,22.4-33.71,22.4-34.09,0,.38-22.4,33.71-22.4,34.09,0Z"/>
      <path class="e" d="M143.45,100.39C125.71,191.87-10.77,167.79,3.86,75.78,21.6-15.69,158.07,8.39,143.45,100.39Z"/>
      <path class="g" d="M52.15,111.49c-.36,2.22-2.49,3.76-4.71,3.4s-4.74-2.83-3.43-6.91c0,0,5.44,3.07,8.14,3.51Z"/>
      <path class="g" d="M95.3,111.49c.36,2.22,2.49,3.76,4.71,3.4s4.74-2.83,3.43-6.91c0,0-5.44,3.07-8.14,3.51Z"/>
    </g>
  </g>
</svg>