<svg width="106" height="99" viewBox="0 0 106 99" fill="none" xmlns="http://www.w3.org/2000/svg">
<circle cx="53" cy="47" r="45" fill="#FCE0A2"/>
<circle cx="7" cy="72" r="5" fill="#FCC800"/>
<circle cx="96" cy="7" r="5" fill="#FCC800"/>
<circle cx="17.5" cy="73.5" r="2.5" fill="#FCC800"/>
<circle cx="85.5" cy="6.5" r="2.5" fill="#FCC800"/>
<circle cx="99" cy="73" r="1" fill="#FCC800"/>
<circle cx="9.5" cy="94.5" r="2.5" fill="#FF6666"/>
<circle cx="4.5" cy="29.5" r="2.5" fill="#FF6666"/>
<circle cx="101.5" cy="23.5" r="1.5" fill="#FF6666"/>
<mask id="path-10-outside-1_490_1254" maskUnits="userSpaceOnUse" x="33" y="17" width="39" height="61" fill="black">
<rect fill="white" x="33" y="17" width="39" height="61"/>
<path d="M46.5547 58.6562C46.6328 48.7344 49.4453 45.6875 54.3672 42.6406C57.7266 40.5312 60.2266 37.875 60.2266 33.9688C60.2266 29.5938 56.8672 26.7812 52.5703 26.7812C48.6641 26.7812 44.9141 29.2812 44.6797 34.5156H34.9141C35.1484 24.0469 43.0391 18.6562 52.6484 18.6562C63.1953 18.6562 70.4609 24.5156 70.4609 33.8125C70.4609 40.1406 67.2578 44.2812 62.1797 47.3281C57.6484 50.0625 55.7734 52.7969 55.6953 58.6562V59.3594H46.5547V58.6562ZM51.3984 76.625C48.0391 76.625 45.3047 73.8906 45.3047 70.5312C45.3047 67.25 48.0391 64.5156 51.3984 64.5156C54.6016 64.5156 57.4141 67.25 57.4141 70.5312C57.4141 73.8906 54.6016 76.625 51.3984 76.625Z"/>
</mask>
<path d="M46.5547 58.6562C46.6328 48.7344 49.4453 45.6875 54.3672 42.6406C57.7266 40.5312 60.2266 37.875 60.2266 33.9688C60.2266 29.5938 56.8672 26.7812 52.5703 26.7812C48.6641 26.7812 44.9141 29.2812 44.6797 34.5156H34.9141C35.1484 24.0469 43.0391 18.6562 52.6484 18.6562C63.1953 18.6562 70.4609 24.5156 70.4609 33.8125C70.4609 40.1406 67.2578 44.2812 62.1797 47.3281C57.6484 50.0625 55.7734 52.7969 55.6953 58.6562V59.3594H46.5547V58.6562ZM51.3984 76.625C48.0391 76.625 45.3047 73.8906 45.3047 70.5312C45.3047 67.25 48.0391 64.5156 51.3984 64.5156C54.6016 64.5156 57.4141 67.25 57.4141 70.5312C57.4141 73.8906 54.6016 76.625 51.3984 76.625Z" fill="#A1D3A2"/>
<path d="M46.5547 58.6562L45.5547 58.6484V58.6562H46.5547ZM54.3672 42.6406L54.8936 43.4909L54.899 43.4875L54.3672 42.6406ZM44.6797 34.5156V35.5156H45.6359L45.6787 34.5604L44.6797 34.5156ZM34.9141 34.5156L33.9143 34.4932L33.8914 35.5156H34.9141V34.5156ZM62.1797 47.3281L61.6652 46.4706L61.663 46.4719L62.1797 47.3281ZM55.6953 58.6562L54.6953 58.6429V58.6562H55.6953ZM55.6953 59.3594V60.3594H56.6953V59.3594H55.6953ZM46.5547 59.3594H45.5547V60.3594H46.5547V59.3594ZM46.5547 58.6562L47.5547 58.6641C47.5931 53.7829 48.3057 50.7321 49.518 48.5572C50.7222 46.3968 52.4829 44.9832 54.8935 43.4909L54.3672 42.6406L53.8408 41.7904C51.3296 43.3449 49.2231 44.9782 47.7711 47.5835C46.3271 50.1741 45.5944 53.6077 45.5547 58.6484L46.5547 58.6562ZM54.3672 42.6406L54.899 43.4875C58.3617 41.3133 61.2266 38.3941 61.2266 33.9688H60.2266H59.2266C59.2266 37.3559 57.0915 39.7492 53.8354 41.7937L54.3672 42.6406ZM60.2266 33.9688H61.2266C61.2266 31.5092 60.2749 29.4401 58.6819 27.994C57.0984 26.5565 54.9351 25.7812 52.5703 25.7812V26.7812V27.7812C54.5024 27.7812 56.1672 28.4123 57.3376 29.4748C58.4985 30.5287 59.2266 32.0533 59.2266 33.9688H60.2266ZM52.5703 26.7812V25.7812C50.41 25.7812 48.2506 26.4726 46.5878 27.9345C44.9106 29.4091 43.8089 31.6068 43.6807 34.4709L44.6797 34.5156L45.6787 34.5604C45.7848 32.1901 46.6754 30.5206 47.9083 29.4366C49.1557 28.3399 50.8244 27.7812 52.5703 27.7812V26.7812ZM44.6797 34.5156V33.5156H34.9141V34.5156V35.5156H44.6797V34.5156ZM34.9141 34.5156L35.9138 34.538C36.025 29.5728 37.9392 25.8885 40.904 23.4299C43.8893 20.9543 48.0217 19.6562 52.6484 19.6562V18.6562V17.6562C47.6658 17.6562 43.0482 19.0535 39.6273 21.8904C36.1858 24.7443 34.0375 28.9897 33.9143 34.4932L34.9141 34.5156ZM52.6484 18.6562V19.6562C57.744 19.6562 61.9521 21.0714 64.8675 23.5145C67.7653 25.9429 69.4609 29.4463 69.4609 33.8125H70.4609H71.4609C71.4609 28.8818 69.5238 24.8071 66.1521 21.9816C62.7979 19.1708 58.0997 17.6562 52.6484 17.6562V18.6562ZM70.4609 33.8125H69.4609C69.4609 36.7963 68.7093 39.2216 67.3863 41.2555C66.0565 43.3 64.1156 45.0004 61.6652 46.4706L62.1797 47.3281L62.6942 48.1856C65.3219 46.609 67.5216 44.7156 69.0629 42.346C70.611 39.9659 71.4609 37.1568 71.4609 33.8125H70.4609ZM62.1797 47.3281L61.663 46.4719C59.3298 47.8799 57.5721 49.3511 56.408 51.3093C55.2419 53.271 54.7358 55.6123 54.6954 58.6429L55.6953 58.6562L56.6952 58.6696C56.7329 55.8408 57.2034 53.8852 58.1272 52.3313C59.0529 50.7739 60.4983 49.5107 62.6964 48.1843L62.1797 47.3281ZM55.6953 58.6562H54.6953V59.3594H55.6953H56.6953V58.6562H55.6953ZM55.6953 59.3594V58.3594H46.5547V59.3594V60.3594H55.6953V59.3594ZM46.5547 59.3594H47.5547V58.6562H46.5547H45.5547V59.3594H46.5547ZM51.3984 76.625V75.625C48.5913 75.625 46.3047 73.3383 46.3047 70.5312H45.3047H44.3047C44.3047 74.4429 47.4868 77.625 51.3984 77.625V76.625ZM45.3047 70.5312H46.3047C46.3047 67.8106 48.5829 65.5156 51.3984 65.5156V64.5156V63.5156C47.4952 63.5156 44.3047 66.6894 44.3047 70.5312H45.3047ZM51.3984 64.5156V65.5156C54.0577 65.5156 56.4141 67.8106 56.4141 70.5312H57.4141H58.4141C58.4141 66.6894 55.1454 63.5156 51.3984 63.5156V64.5156ZM57.4141 70.5312H56.4141C56.4141 73.3383 54.0493 75.625 51.3984 75.625V76.625V77.625C55.1538 77.625 58.4141 74.4429 58.4141 70.5312H57.4141Z" fill="#4F342F" mask="url(#path-10-outside-1_490_1254)"/>
</svg>
