<?xml version="1.0" encoding="UTF-8"?>
<svg id="b" data-name="레이어 2" xmlns="http://www.w3.org/2000/svg" viewBox="0 0 147.31 178.3">
  <defs>
    <style>
      .d {
        fill: #f3a89f;
      }

      .d, .e {
        stroke-width: 0px;
      }

      .e {
        fill: #231815;
      }

      .f {
        fill: none;
      }

      .f, .g, .h {
        stroke: #231815;
        stroke-linecap: round;
        stroke-linejoin: round;
      }

      .f, .h {
        stroke-width: 5.52px;
      }

      .g {
        fill: #fff;
        stroke-width: 2.76px;
      }

      .h {
        fill: #f49e15;
      }
    </style>
  </defs>
  <g id="c" data-name="레이어 1">
    <path class="g" d="M144.1,88.53c-1.59,93.16-140.17,93.15-141.75,0,1.59-93.16,140.17-93.15,141.75,0Z"/>
    <path class="h" d="M50.29,155.78c-.04,22.47,26.69,28.59,33.85,3.44-8.69,1.56-22.38,1.02-33.85-3.44"/>
    <path class="d" d="M52.27,125.56c-.38,22.4-33.71,22.4-34.09,0,.38-22.4,33.71-22.4,34.09,0Z"/>
    <path class="f" d="M42.8,24.73c-5-9.3-18.97-10.45-18.97-10.45"/>
    <line class="f" x1="42.8" y1="2.76" x2="44.81" y2="23.78"/>
    <path class="d" d="M131.55,125.56c-.38,22.4-33.71,22.4-34.09,0,.38-22.4,33.71-22.4,34.09,0Z"/>
    <g>
      <path class="e" d="M54.03,111.91c.1,6.73-10.48,6.73-10.38,0-.1-6.73,10.48-6.73,10.38,0Z"/>
      <path class="e" d="M103.66,112.45c.09,6.02-9.37,6.02-9.29,0-.09-6.02,9.37-6.02,9.29,0Z"/>
    </g>
    <path class="f" d="M143.45,100.84C125.71,192.31-10.77,168.24,3.86,76.22,21.6-15.25,158.07,8.83,143.45,100.84Z"/>
  </g>
</svg>